<?xml version="1.0" encoding="UTF-8" standalone="no"?>
<!-- Created with Inkscape (http://www.inkscape.org/) -->

<svg
   width="0.63075763in"
   height="0.63075763in"
   viewBox="0 0 16.021242 16.021245"
   version="1.1"
   id="svg1"
   xml:space="preserve"
   xmlns="http://www.w3.org/2000/svg"
   xmlns:svg="http://www.w3.org/2000/svg"><defs
     id="defs1" /><g
     id="layer1"
     transform="translate(-48.482313,-57.393913)"><g
       id="g74"
       transform="translate(-0.45455868,-1.4666191)"><g
         id="g197"
         style="display:inline;stroke-width:1.24674"
         transform="matrix(0.20373155,0,0,0.20373155,46.080348,56.004337)"><path
           id="path669"
           style="fill:#ff0051;fill-opacity:1;stroke-width:1.29868;stroke-linecap:round;stroke-linejoin:round;paint-order:markers stroke fill"
           d="m 45.719603,14.019399 a 1.2193975,1.2193975 0 0 0 -1.220055,1.220055 1.2193975,1.2193975 0 0 0 1.220055,1.220055 1.2193975,1.2193975 0 0 0 1.220054,-1.220055 1.2193975,1.2193975 0 0 0 -1.220054,-1.220055 z m 0,15.241806 a 1.2193975,1.2193975 0 0 0 -1.220055,1.220055 1.2193975,1.2193975 0 0 0 1.220055,1.217518 1.2193975,1.2193975 0 0 0 1.220054,-1.217518 1.2193975,1.2193975 0 0 0 -1.220054,-1.220055 z m -30.478539,15.23927 a 1.2193975,1.2193975 0 0 0 -1.220055,1.220054 1.2193975,1.2193975 0 0 0 1.220055,1.220055 1.2193975,1.2193975 0 0 0 1.217518,-1.220055 1.2193975,1.2193975 0 0 0 -1.217518,-1.220054 z m 15.239269,0 a 1.2193975,1.2193975 0 0 0 -1.220054,1.220054 1.2193975,1.2193975 0 0 0 1.220054,1.220055 1.2193975,1.2193975 0 0 0 1.220055,-1.220055 1.2193975,1.2193975 0 0 0 -1.220055,-1.220054 z m 15.23927,0 a 1.2193975,1.2193975 0 0 0 -1.220055,1.220054 1.2193975,1.2193975 0 0 0 1.220055,1.220055 1.2193975,1.2193975 0 0 0 1.220054,-1.220055 1.2193975,1.2193975 0 0 0 -1.220054,-1.220054 z m 15.239269,0 a 1.2193975,1.2193975 0 0 0 -1.217518,1.220054 1.2193975,1.2193975 0 0 0 1.217518,1.220055 1.2193975,1.2193975 0 0 0 1.220055,-1.220055 1.2193975,1.2193975 0 0 0 -1.220055,-1.220054 z m 15.241806,0 a 1.2193975,1.2193975 0 0 0 -1.220054,1.220054 1.2193975,1.2193975 0 0 0 1.220054,1.220055 1.2193975,1.2193975 0 0 0 1.217519,-1.220055 1.2193975,1.2193975 0 0 0 -1.217519,-1.220054 z m 15.23927,0 a 1.2193975,1.2193975 0 0 0 -1.220055,1.220054 1.2193975,1.2193975 0 0 0 1.220055,1.220055 1.2193975,1.2193975 0 0 0 1.220055,-1.220055 1.2193975,1.2193975 0 0 0 -1.220055,-1.220054 z M 45.719603,59.739744 a 1.2193975,1.2193975 0 0 0 -1.220055,1.220055 1.2193975,1.2193975 0 0 0 1.220055,1.220055 1.2193975,1.2193975 0 0 0 1.220054,-1.220055 1.2193975,1.2193975 0 0 0 -1.220054,-1.220055 z m 0,15.241806 a 1.2193975,1.2193975 0 0 0 -1.220055,1.217518 1.2193975,1.2193975 0 0 0 1.220055,1.220055 1.2193975,1.2193975 0 0 0 1.220054,-1.220055 1.2193975,1.2193975 0 0 0 -1.220054,-1.217518 z m 0,15.23927 a 1.2193975,1.2193975 0 0 0 -1.220055,1.220054 1.2193975,1.2193975 0 0 0 1.220055,1.217519 1.2193975,1.2193975 0 0 0 1.220054,-1.217519 1.2193975,1.2193975 0 0 0 -1.220054,-1.220054 z" /><path
           id="path672"
           style="fill:#000000;fill-opacity:1;stroke-width:1.29868;stroke-linecap:round;stroke-linejoin:round;paint-order:markers stroke fill"
           d="m 15.241064,14.019399 a 1.2193975,1.2193975 0 0 0 -1.220055,1.220055 1.2193975,1.2193975 0 0 0 1.220055,1.220055 1.2193975,1.2193975 0 0 0 1.217518,-1.220055 1.2193975,1.2193975 0 0 0 -1.217518,-1.220055 z m 15.239269,0 a 1.2193975,1.2193975 0 0 0 -1.220054,1.220055 1.2193975,1.2193975 0 0 0 1.220054,1.220055 1.2193975,1.2193975 0 0 0 1.220055,-1.220055 1.2193975,1.2193975 0 0 0 -1.220055,-1.220055 z m 30.478539,0 a 1.2193975,1.2193975 0 0 0 -1.217518,1.220055 1.2193975,1.2193975 0 0 0 1.217518,1.220055 1.2193975,1.2193975 0 0 0 1.220055,-1.220055 1.2193975,1.2193975 0 0 0 -1.220055,-1.220055 z m 15.241806,0 a 1.2193975,1.2193975 0 0 0 -1.220054,1.220055 1.2193975,1.2193975 0 0 0 1.220054,1.220055 1.2193975,1.2193975 0 0 0 1.217519,-1.220055 1.2193975,1.2193975 0 0 0 -1.217519,-1.220055 z m 15.23927,0 a 1.2193975,1.2193975 0 0 0 -1.220055,1.220055 1.2193975,1.2193975 0 0 0 1.220055,1.220055 1.2193975,1.2193975 0 0 0 1.220055,-1.220055 1.2193975,1.2193975 0 0 0 -1.220055,-1.220055 z M 15.241064,29.261205 a 1.2193975,1.2193975 0 0 0 -1.220055,1.220055 1.2193975,1.2193975 0 0 0 1.220055,1.217518 1.2193975,1.2193975 0 0 0 1.217518,-1.217518 1.2193975,1.2193975 0 0 0 -1.217518,-1.220055 z m 15.239269,0 a 1.2193975,1.2193975 0 0 0 -1.220054,1.220055 1.2193975,1.2193975 0 0 0 1.220054,1.217518 1.2193975,1.2193975 0 0 0 1.220055,-1.217518 1.2193975,1.2193975 0 0 0 -1.220055,-1.220055 z m 30.478539,0 a 1.2193975,1.2193975 0 0 0 -1.217518,1.220055 1.2193975,1.2193975 0 0 0 1.217518,1.217518 1.2193975,1.2193975 0 0 0 1.220055,-1.217518 1.2193975,1.2193975 0 0 0 -1.220055,-1.220055 z m 15.241806,0 a 1.2193975,1.2193975 0 0 0 -1.220054,1.220055 1.2193975,1.2193975 0 0 0 1.220054,1.217518 1.2193975,1.2193975 0 0 0 1.217519,-1.217518 1.2193975,1.2193975 0 0 0 -1.217519,-1.220055 z m 15.23927,0 a 1.2193975,1.2193975 0 0 0 -1.220055,1.220055 1.2193975,1.2193975 0 0 0 1.220055,1.217518 1.2193975,1.2193975 0 0 0 1.220055,-1.217518 1.2193975,1.2193975 0 0 0 -1.220055,-1.220055 z M 15.241064,59.739744 a 1.2193975,1.2193975 0 0 0 -1.220055,1.220055 1.2193975,1.2193975 0 0 0 1.220055,1.220055 1.2193975,1.2193975 0 0 0 1.217518,-1.220055 1.2193975,1.2193975 0 0 0 -1.217518,-1.220055 z m 15.239269,0 a 1.2193975,1.2193975 0 0 0 -1.220054,1.220055 1.2193975,1.2193975 0 0 0 1.220054,1.220055 1.2193975,1.2193975 0 0 0 1.220055,-1.220055 1.2193975,1.2193975 0 0 0 -1.220055,-1.220055 z m 30.478539,0 a 1.2193975,1.2193975 0 0 0 -1.217518,1.220055 1.2193975,1.2193975 0 0 0 1.217518,1.220055 1.2193975,1.2193975 0 0 0 1.220055,-1.220055 1.2193975,1.2193975 0 0 0 -1.220055,-1.220055 z m 15.241806,0 a 1.2193975,1.2193975 0 0 0 -1.220054,1.220055 1.2193975,1.2193975 0 0 0 1.220054,1.220055 1.2193975,1.2193975 0 0 0 1.217519,-1.220055 1.2193975,1.2193975 0 0 0 -1.217519,-1.220055 z m 15.23927,0 a 1.2193975,1.2193975 0 0 0 -1.220055,1.220055 1.2193975,1.2193975 0 0 0 1.220055,1.220055 1.2193975,1.2193975 0 0 0 1.220055,-1.220055 1.2193975,1.2193975 0 0 0 -1.220055,-1.220055 z M 15.241064,74.98155 a 1.2193975,1.2193975 0 0 0 -1.220055,1.217518 1.2193975,1.2193975 0 0 0 1.220055,1.220055 1.2193975,1.2193975 0 0 0 1.217518,-1.220055 1.2193975,1.2193975 0 0 0 -1.217518,-1.217518 z m 15.239269,0 a 1.2193975,1.2193975 0 0 0 -1.220054,1.217518 1.2193975,1.2193975 0 0 0 1.220054,1.220055 1.2193975,1.2193975 0 0 0 1.220055,-1.220055 1.2193975,1.2193975 0 0 0 -1.220055,-1.217518 z m 30.478539,0 a 1.2193975,1.2193975 0 0 0 -1.217518,1.217518 1.2193975,1.2193975 0 0 0 1.217518,1.220055 1.2193975,1.2193975 0 0 0 1.220055,-1.220055 1.2193975,1.2193975 0 0 0 -1.220055,-1.217518 z m 15.241806,0 a 1.2193975,1.2193975 0 0 0 -1.220054,1.217518 1.2193975,1.2193975 0 0 0 1.220054,1.220055 1.2193975,1.2193975 0 0 0 1.217519,-1.220055 1.2193975,1.2193975 0 0 0 -1.217519,-1.217518 z m 15.23927,0 a 1.2193975,1.2193975 0 0 0 -1.220055,1.217518 1.2193975,1.2193975 0 0 0 1.220055,1.220055 1.2193975,1.2193975 0 0 0 1.220055,-1.220055 1.2193975,1.2193975 0 0 0 -1.220055,-1.217518 z M 15.241064,90.22082 a 1.2193975,1.2193975 0 0 0 -1.220055,1.220054 1.2193975,1.2193975 0 0 0 1.220055,1.217519 1.2193975,1.2193975 0 0 0 1.217518,-1.217519 1.2193975,1.2193975 0 0 0 -1.217518,-1.220054 z m 15.239269,0 a 1.2193975,1.2193975 0 0 0 -1.220054,1.220054 1.2193975,1.2193975 0 0 0 1.220054,1.217519 1.2193975,1.2193975 0 0 0 1.220055,-1.217519 1.2193975,1.2193975 0 0 0 -1.220055,-1.220054 z m 30.478539,0 a 1.2193975,1.2193975 0 0 0 -1.217518,1.220054 1.2193975,1.2193975 0 0 0 1.217518,1.217519 1.2193975,1.2193975 0 0 0 1.220055,-1.217519 1.2193975,1.2193975 0 0 0 -1.220055,-1.220054 z m 15.241806,0 a 1.2193975,1.2193975 0 0 0 -1.220054,1.220054 1.2193975,1.2193975 0 0 0 1.220054,1.217519 1.2193975,1.2193975 0 0 0 1.217519,-1.217519 1.2193975,1.2193975 0 0 0 -1.217519,-1.220054 z m 15.23927,0 a 1.2193975,1.2193975 0 0 0 -1.220055,1.220054 1.2193975,1.2193975 0 0 0 1.220055,1.217519 1.2193975,1.2193975 0 0 0 1.220055,-1.217519 1.2193975,1.2193975 0 0 0 -1.220055,-1.220054 z" /></g></g></g></svg>
