<?xml version="1.0" encoding="UTF-8" standalone="no"?>
<svg
   width="384"
   height="384"
   viewBox="0 0 384 384"
   style="isolation:isolate"
   version="1.1"
   id="svg1"
   sodipodi:docname="ValueToCrosshatch.svg"
   inkscape:version="1.4.4 (dcaf3e7d9e, 2026-05-05)"
   xmlns:inkscape="http://www.inkscape.org/namespaces/inkscape"
   xmlns:sodipodi="http://sodipodi.sourceforge.net/DTD/sodipodi-0.dtd"
   xmlns="http://www.w3.org/2000/svg"
   xmlns:svg="http://www.w3.org/2000/svg">
  <sodipodi:namedview
     id="namedview1"
     pagecolor="#ffffff"
     bordercolor="#000000"
     borderopacity="0.25"
     inkscape:showpageshadow="2"
     inkscape:pageopacity="0.0"
     inkscape:pagecheckerboard="0"
     inkscape:deskcolor="#d1d1d1"
     inkscape:zoom="2.0052083"
     inkscape:cx="192"
     inkscape:cy="192"
     inkscape:window-width="1920"
     inkscape:window-height="1011"
     inkscape:window-x="0"
     inkscape:window-y="0"
     inkscape:window-maximized="1"
     inkscape:current-layer="svg1" />
  <title
     id="title1">Toniator — ColorSource.svg</title>
  <desc
     id="desc1">Editable CMYK full-width curve halftone generated by Toniator</desc>
  <defs
     id="defs1">
    <clipPath
       id="toniator-artboard-clip">
      <rect
         x="0"
         y="0"
         width="384"
         height="384"
         id="rect1" />
    </clipPath>
  </defs>
  <g
     id="toniator-black"
     inkscape:groupmode="layer"
     inkscape:label="Layer 1 (K)"
     fill="#111111"
     opacity="1"
     style="mix-blend-mode:multiply"
     clip-path="url(#toniator-artboard-clip)">
    <path
       id="black-curve-0"
       d="M 295.473 56.527 C 316.806 77.861 338.139 99.194 359.473 120.527 C 338.139 99.194 316.806 77.861 295.473 56.527 Z"
       fill-rule="nonzero" />
    <path
       id="black-curve-1"
       d="M 284.612 67.388 C 300.612 83.388 316.612 99.388 332.612 115.388 C 316.612 99.388 300.612 83.388 284.612 67.388 ZM 332.612 115.388 C 337.945 120.722 343.278 126.055 348.612 131.388 C 353.945 136.722 359.278 142.055 364.612 147.388 C 359.278 142.055 353.945 136.722 348.612 131.388 C 343.278 126.055 337.945 120.722 332.612 115.388 Z"
       fill-rule="nonzero" />
    <path
       id="black-curve-2"
       d="M 209.75 14.25 C 231.084 35.583 252.417 56.916 273.75 78.25 C 252.417 56.916 231.084 35.583 209.75 14.25 ZM 273.75 78.25 C 278.923 83.744 283.986 89.343 289.268 94.732 C 299.828 105.504 310.499 116.168 321.273 126.727 C 326.662 132.009 332.258 137.075 337.75 142.25 C 332.576 136.757 327.51 131.161 322.228 125.772 C 311.669 114.999 301.005 104.327 290.233 93.767 C 284.844 88.485 279.245 83.422 273.75 78.25 Z"
       fill-rule="nonzero" />
    <path
       id="black-curve-3"
       d="M 198.889 25.111 C 214.879 41.121 230.922 57.079 246.857 73.143 C 252.17 78.498 257.515 83.826 262.632 89.368 C 267.761 94.921 272.358 100.955 277.584 106.416 C 288.015 117.314 298.724 127.946 309.579 138.421 C 320.442 148.901 331.769 158.892 342.73 169.27 C 348.207 174.456 353.503 179.831 358.889 185.111 C 353.609 179.724 348.235 174.428 343.049 168.951 C 332.67 157.991 322.68 146.664 312.199 135.801 C 301.725 124.945 291.092 114.236 280.194 103.806 C 274.733 98.58 268.699 93.982 263.146 88.854 C 257.605 83.736 252.277 78.391 246.921 73.079 C 230.857 57.143 214.9 41.1 198.889 25.111 Z"
       fill-rule="nonzero" />
    <path
       id="black-curve-4"
       d="M 188.028 35.972 C 192.982 41.685 197.676 47.633 202.889 53.111 C 213.287 64.04 224.163 74.504 234.835 85.165 C 266.854 117.146 298.624 149.38 330.963 181.037 C 336.365 186.325 342.34 190.994 348.028 195.972 C 343.05 190.283 338.381 184.308 333.093 178.907 C 301.436 146.568 269.202 114.798 237.221 82.779 C 226.56 72.106 216.096 61.231 205.168 50.832 C 199.69 45.62 193.741 40.925 188.028 35.972 Z"
       fill-rule="nonzero" />
    <path
       id="black-curve-5"
       d="M 161.167 30.833 C 171.429 41.904 181.361 53.291 191.955 64.045 C 234.297 107.034 276.967 149.702 319.956 192.044 C 330.711 202.637 342.227 212.432 353.167 222.833 C 358.633 228.03 363.834 233.5 369.167 238.833 C 363.834 233.5 358.364 228.299 353.167 222.833 C 342.766 211.893 332.971 200.377 322.378 189.622 C 280.036 146.633 237.368 103.963 194.379 61.621 C 183.625 51.027 172.238 41.096 161.167 30.833 Z"
       fill-rule="nonzero" />
    <path
       id="black-curve-6"
       d="M 134.306 25.694 C 139.575 31.092 144.99 36.351 150.114 41.886 C 155.248 47.433 159.757 53.553 165.07 58.93 C 212.782 107.216 260.822 155.18 309.158 202.842 C 319.906 213.44 331.257 223.41 342.306 233.694 C 332.022 222.645 322.052 211.295 311.454 200.546 C 263.792 152.211 215.827 104.171 167.542 56.458 C 162.165 51.146 156.045 46.637 150.498 41.502 C 144.962 36.378 139.703 30.964 134.306 25.694 Z"
       fill-rule="nonzero" />
    <path
       id="black-curve-7"
       d="M 123.445 36.555 C 128.412 42.255 133.033 48.275 138.346 53.654 C 196.651 112.68 255.263 171.406 314.264 229.736 C 319.643 235.053 325.718 239.615 331.445 244.555 C 326.505 238.829 321.942 232.753 316.625 227.375 C 258.295 168.374 199.569 109.762 140.543 51.457 C 135.165 46.144 129.144 41.522 123.445 36.555 Z"
       fill-rule="nonzero" />
    <path
       id="black-curve-8"
       d="M 80.583 15.417 C 85.915 20.752 91.381 25.956 96.578 31.422 C 106.981 42.361 116.762 53.889 127.376 64.624 C 185.711 123.62 244.371 182.298 303.405 240.595 C 308.786 245.909 314.857 250.476 320.583 255.417 C 315.643 249.69 311.076 243.619 305.762 238.238 C 247.465 179.204 188.787 120.544 129.791 62.209 C 119.056 51.596 107.528 41.814 96.589 31.411 C 91.123 26.214 85.919 20.748 80.583 15.417 Z"
       fill-rule="nonzero" />
    <path
       id="black-curve-9"
       d="M 85.722 42.278 C 96.006 53.327 105.975 64.678 116.573 75.427 C 148.346 107.652 180.841 139.159 212.818 171.182 C 239.465 197.869 265.526 225.143 292.443 251.557 C 297.843 256.857 303.963 261.371 309.722 266.278 C 304.815 260.518 300.301 254.399 295.002 248.998 C 268.587 222.081 241.314 196.02 214.627 169.373 C 182.603 137.397 151.097 104.902 118.871 73.129 C 108.123 62.531 96.772 52.561 85.722 42.278 ZM 309.722 266.278 C 315.056 271.611 320.389 276.945 325.722 282.278 C 331.055 287.611 336.389 292.944 341.722 298.278 C 336.389 292.944 331.056 287.611 325.723 282.277 C 320.389 276.944 315.056 271.611 309.722 266.278 Z"
       fill-rule="nonzero" />
    <path
       id="black-curve-10"
       d="M 58.861 37.139 C 64.194 42.472 69.656 47.68 74.86 53.14 C 85.275 64.066 95.19 75.465 105.709 86.291 C 121.476 102.521 137.57 118.431 153.704 134.296 C 169.841 150.163 186.495 165.501 202.518 181.482 C 213.201 192.138 223.26 203.403 233.808 214.192 C 249.626 230.373 265.35 246.654 281.612 262.388 C 287.048 267.649 293.111 272.222 298.861 277.139 C 293.944 271.389 289.372 265.326 284.111 259.889 C 268.376 243.628 252.095 227.903 235.915 212.085 C 225.125 201.538 213.86 191.478 203.205 180.795 C 187.223 164.772 171.885 148.118 156.018 131.982 C 140.153 115.848 124.243 99.754 108.014 83.986 C 97.187 73.468 85.789 63.552 74.862 53.138 C 69.402 47.934 64.195 42.472 58.861 37.139 ZM 298.861 277.139 C 304.194 282.472 309.528 287.806 314.861 293.139 C 320.194 298.472 325.528 303.806 330.861 309.139 C 325.528 303.806 320.194 298.472 314.861 293.139 C 309.528 287.806 304.194 282.472 298.861 277.139 Z"
       fill-rule="nonzero" />
    <path
       id="black-curve-11"
       d="M 48 48 C 53.331 53.335 58.791 58.545 63.994 64.006 C 74.405 74.936 84.315 86.34 94.834 97.166 C 110.603 113.393 126.786 129.214 142.847 145.153 C 148.201 150.467 153.557 155.782 159.076 160.924 C 164.604 166.073 170.486 170.835 175.98 176.02 C 181.465 181.197 186.66 186.673 192 192 C 186.673 186.66 181.197 181.465 176.02 175.98 C 170.835 170.486 166.073 164.604 160.924 159.076 C 155.782 153.557 150.467 148.201 145.153 142.847 C 129.214 126.786 113.393 110.603 97.166 94.834 C 86.34 84.315 74.936 74.405 64.006 63.994 C 58.545 58.791 53.335 53.331 48 48 ZM 192 192 C 202.517 202.817 213.13 213.54 223.55 224.45 C 228.764 229.908 233.681 235.646 238.899 241.101 C 244.113 246.551 249.487 251.846 254.842 257.158 C 260.197 262.471 265.503 267.836 271.026 272.974 C 276.559 278.12 282.342 282.991 288 288 C 282.991 282.342 278.12 276.559 272.974 271.026 C 267.836 265.503 262.471 260.197 257.158 254.842 C 251.846 249.487 246.551 244.113 241.101 238.899 C 235.646 233.681 229.908 228.764 224.45 223.55 C 213.54 213.13 202.817 202.517 192 192 Z"
       fill-rule="nonzero" />
    <path
       id="black-curve-12"
       d="M 37.139 58.861 C 42.472 64.195 47.934 69.402 53.138 74.862 C 63.552 85.789 73.468 97.187 83.986 108.014 C 99.754 124.243 115.954 140.046 131.983 156.017 C 137.327 161.34 142.582 166.758 148.103 171.897 C 153.635 177.046 159.616 181.701 165.13 186.87 C 170.633 192.028 175.803 197.531 181.139 202.861 C 175.808 197.525 170.306 192.356 165.148 186.852 C 159.979 181.338 155.324 175.358 150.175 169.825 C 145.036 164.304 139.618 159.049 134.294 153.706 C 118.324 137.677 102.521 121.476 86.291 105.709 C 75.465 95.19 64.066 85.275 53.14 74.86 C 47.68 69.656 42.472 64.194 37.139 58.861 ZM 181.139 202.861 C 191.7 213.634 202.348 224.321 212.821 235.179 C 223.298 246.039 233.263 257.396 243.986 268.014 C 254.713 278.634 266.088 288.579 277.139 298.861 C 266.856 287.81 256.912 276.435 246.291 265.709 C 235.674 254.986 224.317 245.02 213.456 234.544 C 202.599 224.07 191.911 213.422 181.139 202.861 Z"
       fill-rule="nonzero" />
    <path
       id="black-curve-13"
       d="M 42.278 85.722 C 47.509 91.157 52.848 96.491 57.972 102.028 C 63.104 107.573 67.757 113.559 73.038 118.962 C 94.126 140.538 115.507 161.828 137.058 182.942 C 147.838 193.504 159.221 203.437 170.021 213.979 C 180.815 224.517 191.325 235.344 201.829 246.171 C 212.335 257.002 222.304 268.357 233.048 278.952 C 243.797 289.551 255.201 299.465 266.278 309.722 C 256.021 298.646 246.107 287.242 235.507 276.493 C 224.912 265.748 213.557 255.78 202.727 245.273 C 191.899 234.77 181.072 224.26 170.535 213.465 C 159.993 202.666 150.059 191.282 139.498 180.502 C 118.384 158.952 97.093 137.571 75.517 116.483 C 70.114 111.202 64.128 106.549 58.583 101.417 C 53.046 96.293 47.713 90.954 42.278 85.722 Z"
       fill-rule="nonzero" />
    <path
       id="black-curve-14"
       d="M 47.417 112.583 C 57.685 123.649 67.665 134.988 78.22 145.78 C 104.592 172.738 131.445 199.222 158.183 225.817 C 163.531 231.137 169.135 236.197 174.476 241.524 C 190.498 257.502 206.036 273.967 222.27 289.73 C 227.695 294.998 233.701 299.632 239.417 304.583 C 234.465 298.868 229.831 292.862 224.563 287.437 C 208.8 271.203 192.335 255.665 176.357 239.643 C 171.03 234.302 165.971 228.698 160.65 223.35 C 134.055 196.612 107.571 169.759 80.613 143.387 C 69.821 132.832 58.482 122.851 47.417 112.583 Z"
       fill-rule="nonzero" />
    <path
       id="black-curve-15"
       d="M 52.555 139.445 C 57.512 145.155 62.118 151.189 67.425 156.575 C 115.064 204.933 163.051 252.951 211.358 300.642 C 222.1 311.248 233.616 321.043 244.553 331.447 C 250.017 336.646 255.221 342.112 260.555 347.445 C 255.223 342.11 249.757 336.907 244.558 331.442 C 234.154 320.505 224.358 308.989 213.753 298.247 C 166.061 249.94 118.044 201.954 69.686 154.314 C 64.299 149.008 58.266 144.401 52.555 139.445 Z"
       fill-rule="nonzero" />
    <path
       id="black-curve-16"
       d="M 41.694 150.306 C 46.947 155.72 52.329 161.011 57.452 166.548 C 62.585 172.094 67.148 178.165 72.455 183.545 C 114.834 226.497 157.518 269.151 200.484 311.516 C 205.865 316.822 211.929 321.392 217.47 326.53 C 223.002 331.658 228.286 337.047 233.694 342.306 C 228.436 336.898 223.047 331.613 217.918 326.082 C 212.781 320.54 208.21 314.477 202.904 309.096 C 160.539 266.13 117.885 223.446 74.933 181.067 C 69.553 175.759 63.483 171.197 57.936 166.064 C 52.4 160.94 47.108 155.558 41.694 150.306 Z"
       fill-rule="nonzero" />
    <path
       id="black-curve-17"
       d="M 46.833 177.167 C 57.1 188.233 67.051 199.602 77.634 210.366 C 114.647 248.017 151.924 285.413 189.606 322.394 C 195.004 327.693 201.091 332.243 206.833 337.167 C 201.909 331.424 197.359 325.338 192.06 319.94 C 155.079 282.258 117.683 244.981 80.033 207.967 C 69.268 197.385 57.9 187.434 46.833 177.167 Z"
       fill-rule="nonzero" />
    <path
       id="black-curve-18"
       d="M 51.972 204.028 C 56.922 209.745 61.53 215.776 66.822 221.178 C 98.49 253.507 130.797 285.203 162.815 317.185 C 168.151 322.515 173.363 327.977 178.886 333.114 C 184.421 338.263 190.277 343.057 195.972 348.028 C 191 342.333 186.207 336.478 181.058 330.942 C 175.92 325.42 170.459 320.208 165.129 314.871 C 133.147 282.853 101.451 250.546 69.122 218.878 C 63.72 213.587 57.689 208.978 51.972 204.028 Z"
       fill-rule="nonzero" />
    <path
       id="black-curve-19"
       d="M 9.111 182.889 C 19.756 193.578 30.669 204.005 41.045 214.955 C 46.249 220.445 50.526 226.776 55.819 232.181 C 87.485 264.512 119.555 296.448 151.88 328.12 C 157.279 333.411 163.414 337.903 168.961 343.039 C 174.496 348.163 179.728 353.606 185.111 358.889 C 179.827 353.506 174.385 348.275 169.26 342.74 C 164.124 337.193 159.632 331.058 154.342 325.658 C 122.67 293.334 90.733 261.263 58.402 229.598 C 52.998 224.305 46.667 220.027 41.176 214.824 C 30.226 204.448 19.799 193.534 9.111 182.889 Z"
       fill-rule="nonzero" />
    <path
       id="black-curve-20"
       d="M 30.25 225.75 C 40.505 236.828 50.479 248.173 61.016 258.984 C 82.073 280.59 103.41 301.927 125.016 322.984 C 135.827 333.521 147.172 343.495 158.25 353.75 C 147.994 342.673 138.02 331.328 127.483 320.517 C 106.426 298.911 85.089 277.574 63.483 256.517 C 52.672 245.98 41.327 236.006 30.25 225.75 Z"
       fill-rule="nonzero" />
    <path
       id="black-curve-21"
       d="M 35.388 252.612 C 40.377 258.29 45.14 264.174 50.354 269.646 C 60.761 280.567 71.565 291.102 82.231 301.769 C 92.898 312.435 103.433 323.239 114.354 333.646 C 119.826 338.86 125.71 343.623 131.388 348.612 C 126.4 342.933 121.637 337.049 116.423 331.577 C 106.016 320.656 95.212 310.121 84.545 299.455 C 73.879 288.788 63.344 277.984 52.423 267.577 C 46.951 262.363 41.067 257.6 35.388 252.612 Z"
       fill-rule="nonzero" />
    <path
       id="black-curve-22"
       d="M 24.527 263.473 C 40.396 279.604 56.133 295.865 72.134 311.866 C 88.135 327.867 104.396 343.604 120.527 359.473 C 104.658 343.342 88.921 327.08 72.92 311.08 C 56.92 295.079 40.658 279.342 24.527 263.473 Z"
       fill-rule="nonzero" />
    <path
       id="black-curve-23"
       d="M 13.666 274.334 C 18.998 279.669 24.328 285.005 29.662 290.338 C 34.995 295.672 40.331 301.002 45.666 306.334 C 40.334 300.999 35.004 295.663 29.67 290.33 C 24.337 284.996 19.001 279.666 13.666 274.334 ZM 77.666 338.334 C 82.998 343.669 88.328 349.005 93.662 354.338 C 98.995 359.672 104.331 365.002 109.666 370.334 C 104.334 364.999 99.004 359.663 93.67 354.33 C 88.337 348.996 83.001 343.666 77.666 338.334 Z"
       fill-rule="nonzero" />
  </g>
  <g
     id="toniator-cyan"
     inkscape:groupmode="layer"
     inkscape:label="Layer 2 (C)"
     fill="#111111"
     opacity="1"
     style="mix-blend-mode:multiply"
     clip-path="url(#toniator-artboard-clip)">
    <path
       id="cyan-curve-0"
       d="M 29.666 93.666 C 56.333 66.999 82.999 40.333 109.666 13.666 C 82.999 40.333 56.333 66.999 29.666 93.666 Z"
       fill-rule="nonzero" />
    <path
       id="cyan-curve-1"
       d="M 40.527 104.527 C 45.867 99.201 51.214 93.881 56.548 88.548 C 61.881 83.214 67.201 77.867 72.527 72.527 C 67.187 77.854 61.84 83.174 56.507 88.507 C 51.174 93.84 45.854 99.187 40.527 104.527 ZM 88.527 56.527 C 93.868 51.201 99.215 45.882 104.549 40.549 C 109.882 35.215 115.201 29.868 120.527 24.527 C 115.187 29.853 109.839 35.173 104.506 40.506 C 99.173 45.839 93.853 51.187 88.527 56.527 Z"
       fill-rule="nonzero" />
    <path
       id="cyan-curve-2"
       d="M 51.388 115.388 C 57.072 110.405 62.921 105.605 68.439 100.439 C 73.945 95.284 79.111 89.778 84.443 84.443 C 95.106 73.772 105.993 63.321 116.423 52.423 C 121.649 46.962 126.4 41.067 131.388 35.388 C 125.71 40.377 119.815 45.128 114.354 50.354 C 103.456 60.784 93.004 71.671 82.334 82.334 C 76.999 87.666 71.493 92.832 66.338 98.338 C 61.172 103.856 56.371 109.705 51.388 115.388 Z"
       fill-rule="nonzero" />
    <path
       id="cyan-curve-3"
       d="M 46.25 142.25 C 57.326 131.992 68.64 121.986 79.478 111.478 C 95.722 95.726 111.731 79.727 127.483 63.483 C 137.993 52.646 147.994 41.327 158.25 30.25 C 147.172 40.505 135.853 50.506 125.016 61.016 C 108.772 76.768 92.773 92.777 77.022 109.022 C 66.513 119.859 56.507 131.174 46.25 142.25 Z"
       fill-rule="nonzero" />
    <path
       id="cyan-curve-4"
       d="M 41.111 169.111 C 46.509 163.843 51.771 158.431 57.307 153.307 C 62.854 148.173 68.945 143.634 74.347 138.347 C 101.299 111.969 127.979 85.308 154.342 58.342 C 159.626 52.936 164.124 46.807 169.26 41.26 C 174.385 35.725 179.827 30.494 185.111 25.111 C 179.728 30.394 174.496 35.837 168.961 40.961 C 163.414 46.097 157.285 50.595 151.88 55.88 C 124.913 82.243 98.252 108.922 71.875 135.875 C 66.588 141.276 62.049 147.368 56.914 152.914 C 51.791 158.45 46.379 163.712 41.111 169.111 Z"
       fill-rule="nonzero" />
    <path
       id="cyan-curve-5"
       d="M 19.972 211.972 C 25.306 206.639 30.64 201.307 35.973 195.973 C 41.307 190.64 46.639 185.306 51.972 179.972 C 46.638 185.305 41.304 190.637 35.97 195.97 C 30.637 201.304 25.305 206.638 19.972 211.972 ZM 51.972 179.972 C 57.672 175.006 63.673 170.364 69.074 165.074 C 101.402 133.406 133.139 101.139 165.129 69.129 C 170.461 63.794 175.9 58.56 181.037 53.037 C 186.186 47.502 190.994 41.66 195.972 35.972 C 190.283 40.95 184.441 45.758 178.907 50.907 C 173.384 56.044 168.15 61.483 162.815 66.815 C 130.804 98.804 98.538 130.541 66.87 162.87 C 61.58 168.271 56.938 174.271 51.972 179.972 Z"
       fill-rule="nonzero" />
    <path
       id="cyan-curve-6"
       d="M 46.833 206.833 C 57.901 196.567 69.273 186.62 80.036 176.036 C 117.682 139.018 155.024 101.688 192.044 64.044 C 202.629 53.281 212.432 41.773 222.833 30.833 C 228.03 25.367 233.5 20.166 238.833 14.833 C 233.5 20.166 228.299 25.636 222.833 30.833 C 211.893 41.234 200.385 51.037 189.622 61.622 C 151.978 98.642 114.648 135.984 77.63 173.63 C 67.046 184.393 57.099 195.765 46.833 206.833 Z"
       fill-rule="nonzero" />
    <path
       id="cyan-curve-7"
       d="M 25.694 249.694 C 42.109 234.109 58.83 218.84 74.939 202.939 C 117.883 160.552 160.509 117.839 202.842 74.842 C 213.432 64.086 223.41 52.743 233.694 41.694 C 222.645 51.978 211.303 61.956 200.546 72.546 C 157.549 114.88 114.837 157.505 72.449 200.449 C 56.549 216.559 41.279 233.279 25.694 249.694 Z"
       fill-rule="nonzero" />
    <path
       id="cyan-curve-8"
       d="M 36.555 260.555 C 42.255 255.588 48.244 250.935 53.654 245.654 C 80.642 219.312 107.043 192.376 133.718 165.718 C 160.394 139.061 187.32 112.651 213.709 85.709 C 224.272 74.926 234.144 63.485 244.558 52.558 C 249.762 47.098 255.223 41.89 260.555 36.555 C 255.221 41.888 250.013 47.349 244.553 52.553 C 233.626 62.967 222.185 72.839 211.401 83.401 C 184.46 109.79 158.05 136.716 131.392 163.392 C 104.735 190.068 77.798 216.469 51.457 243.457 C 46.176 248.867 41.522 254.856 36.555 260.555 Z"
       fill-rule="nonzero" />
    <path
       id="cyan-curve-9"
       d="M 15.417 303.417 C 20.752 298.085 25.956 292.619 31.422 287.422 C 42.361 277.019 53.834 267.182 64.624 256.624 C 91.578 230.248 118.256 203.586 144.637 176.637 C 149.924 171.235 154.436 165.119 159.6 159.6 C 164.754 154.093 170.24 148.907 175.576 143.576 C 180.912 138.246 186.165 132.829 191.616 127.616 C 202.526 117.186 214.014 107.359 224.654 96.654 C 235.296 85.947 245.025 74.367 255.421 63.421 C 260.615 57.952 266.085 52.751 271.417 47.417 C 266.082 52.748 260.881 58.218 255.412 63.412 C 244.466 73.808 232.887 83.537 222.179 94.179 C 211.474 104.819 201.647 116.307 191.217 127.217 C 186.004 132.668 180.587 137.921 175.257 143.257 C 169.926 148.593 164.74 154.079 159.233 159.233 C 153.714 164.397 147.598 168.909 142.196 174.196 C 115.247 200.577 88.585 227.255 62.209 254.209 C 51.652 264.999 41.814 276.472 31.411 287.411 C 26.214 292.877 20.748 298.081 15.417 303.417 Z"
       fill-rule="nonzero" />
    <path
       id="cyan-curve-10"
       d="M 42.278 298.278 C 53.327 287.994 64.618 277.963 75.427 267.427 C 97.031 246.368 118.428 225.092 139.505 203.505 C 150.051 192.703 160.02 181.353 170.278 170.278 C 159.202 180.535 147.852 190.505 137.051 201.051 C 115.464 222.127 94.188 243.524 73.129 265.129 C 62.592 275.938 52.561 287.228 42.278 298.278 ZM 218.278 122.278 C 223.863 117.196 229.693 112.372 235.032 107.032 C 245.702 96.363 255.863 85.196 266.278 74.278 C 255.359 84.693 244.193 94.853 233.523 105.523 C 228.184 110.862 223.359 116.693 218.278 122.278 Z"
       fill-rule="nonzero" />
    <path
       id="cyan-curve-11"
       d="M 53.139 309.139 C 58.884 304.218 64.973 299.671 70.375 294.375 C 97.309 267.978 123.783 241.112 150.104 214.104 C 155.378 208.692 160.127 202.794 165.139 197.139 C 159.484 202.15 153.585 206.9 148.174 212.174 C 121.166 238.495 94.3 264.969 67.902 291.902 C 62.607 297.305 58.06 303.393 53.139 309.139 ZM 197.139 165.139 C 202.472 159.806 207.806 154.472 213.139 149.139 C 218.472 143.806 223.806 138.472 229.139 133.139 C 223.805 138.472 218.472 143.805 213.139 149.139 C 207.805 154.472 202.472 159.805 197.139 165.139 ZM 229.139 133.139 C 234.557 127.891 239.867 122.528 245.394 117.394 C 250.929 112.252 257.013 107.697 262.317 102.317 C 267.626 96.933 272.022 90.709 277.169 85.169 C 282.302 79.643 287.815 74.482 293.139 69.139 C 287.796 74.462 282.635 79.976 277.109 85.109 C 271.569 90.256 265.345 94.651 259.961 99.961 C 254.581 105.265 250.026 111.348 244.884 116.884 C 239.749 122.41 234.387 127.72 229.139 133.139 Z"
       fill-rule="nonzero" />
    <path
       id="cyan-curve-12"
       d="M 64 320 C 69.712 315.045 75.661 310.352 81.135 305.135 C 92.055 294.728 102.485 283.818 113.154 273.154 C 123.823 262.49 134.697 252.026 145.152 241.152 C 150.388 235.705 155.06 229.739 160.207 224.207 C 165.346 218.685 170.736 213.402 176 208 C 170.598 213.264 165.315 218.654 159.793 223.793 C 154.261 228.94 148.295 233.612 142.848 238.848 C 131.974 249.303 121.51 260.177 110.846 270.846 C 100.182 281.515 89.272 291.945 78.865 302.865 C 73.648 308.339 68.955 314.288 64 320 ZM 224 160 C 234.735 149.402 245.286 138.614 256.206 128.206 C 261.675 122.993 267.832 118.517 273.153 113.153 C 283.782 102.435 293.592 90.933 304.006 80.006 C 309.21 74.546 314.669 69.335 320 64 C 314.665 69.331 309.454 74.79 303.994 79.994 C 293.067 90.408 281.565 100.218 270.847 110.847 C 265.483 116.168 261.007 122.325 255.794 127.794 C 245.386 138.714 234.598 149.265 224 160 Z"
       fill-rule="nonzero" />
    <path
       id="cyan-curve-13"
       d="M 74.861 330.861 C 80.607 325.94 86.671 321.368 92.098 316.098 C 113.741 295.079 134.957 273.621 156.033 252.033 C 161.311 246.628 165.931 240.611 171.141 235.141 C 181.544 224.216 192.288 213.621 202.861 202.861 C 192.101 213.435 181.506 224.178 170.582 234.582 C 165.111 239.791 159.094 244.412 153.689 249.689 C 132.102 270.765 110.643 291.981 89.625 313.625 C 84.354 319.052 79.782 325.116 74.861 330.861 ZM 218.861 186.861 C 234.899 170.899 250.755 154.752 266.973 138.973 C 272.385 133.707 278.412 129.091 283.739 123.739 C 294.384 113.043 304.487 101.82 314.861 90.861 C 303.902 101.235 292.679 111.338 281.984 121.984 C 276.632 127.311 272.015 133.337 266.749 138.749 C 250.97 154.967 234.824 170.824 218.861 186.861 Z"
       fill-rule="nonzero" />
    <path
       id="cyan-curve-14"
       d="M 85.722 341.722 C 96.772 331.439 108.041 321.385 118.871 310.871 C 135.107 295.111 151.114 279.112 166.91 262.91 C 172.183 257.502 176.851 251.53 182.059 246.059 C 192.459 235.131 203.168 224.501 213.722 213.722 C 202.944 224.277 192.314 234.986 181.386 245.386 C 175.915 250.593 169.943 255.262 164.535 260.535 C 148.333 276.33 132.334 292.337 116.573 308.573 C 106.059 319.404 96.006 330.673 85.722 341.722 ZM 213.722 213.722 C 235.09 192.423 256.252 170.916 277.825 149.825 C 283.225 144.546 289.296 139.976 294.625 134.625 C 305.273 123.931 315.356 112.69 325.722 101.722 C 314.755 112.088 303.514 122.172 292.82 132.82 C 287.469 138.148 282.899 144.22 277.62 149.62 C 256.528 171.192 235.021 192.355 213.722 213.722 Z"
       fill-rule="nonzero" />
    <path
       id="cyan-curve-15"
       d="M 80.583 368.583 C 85.919 363.252 91.123 357.786 96.589 352.589 C 107.528 342.186 118.964 332.311 129.791 321.791 C 146.019 306.022 162.001 289.996 177.737 273.737 C 182.993 268.307 187.598 262.278 192.746 256.746 C 197.884 251.223 203.304 245.971 208.583 240.583 C 203.196 245.863 197.944 251.283 192.421 256.421 C 186.889 261.569 180.86 266.174 175.43 271.43 C 159.171 287.166 143.145 303.148 127.376 319.376 C 116.856 330.203 106.981 341.639 96.578 352.578 C 91.381 358.044 85.915 363.248 80.583 368.583 ZM 224.583 224.583 C 245.974 203.307 267.148 181.811 288.754 160.754 C 294.163 155.482 300.291 150.972 305.613 145.613 C 316.248 134.904 326.147 123.487 336.588 112.588 C 341.806 107.142 347.252 101.918 352.583 96.583 C 347.249 101.915 342.025 107.361 336.579 112.579 C 325.68 123.019 314.263 132.919 303.554 143.554 C 298.194 148.876 293.685 155.004 288.413 160.413 C 267.356 182.019 245.86 203.193 224.583 224.583 Z"
       fill-rule="nonzero" />
    <path
       id="cyan-curve-16"
       d="M 123.445 347.445 C 129.144 342.478 135.102 337.792 140.543 332.543 C 156.829 316.835 172.598 300.598 188.6 284.6 C 193.933 279.267 199.411 274.071 204.548 268.548 C 209.698 263.013 214.479 257.146 219.445 251.445 C 213.743 256.41 207.876 261.191 202.341 266.341 C 196.819 271.478 191.623 276.956 186.29 282.29 C 170.291 298.291 154.055 314.06 138.346 330.346 C 133.097 335.787 128.412 341.745 123.445 347.445 ZM 235.445 235.445 C 256.841 214.174 277.992 192.655 299.632 171.632 C 305.052 166.367 311.291 161.977 316.603 156.603 C 321.918 151.224 326.497 145.164 331.445 139.445 C 325.725 144.392 319.665 148.971 314.287 154.287 C 308.912 159.598 304.522 165.837 299.257 171.257 C 278.234 192.897 256.715 214.049 235.445 235.445 Z"
       fill-rule="nonzero" />
    <path
       id="cyan-curve-17"
       d="M 134.306 358.306 C 139.703 353.036 144.962 347.622 150.498 342.498 C 156.045 337.363 162.117 332.805 167.542 327.542 C 183.781 311.785 199.71 295.706 215.465 279.465 C 225.974 268.63 235.795 257.14 246.325 246.325 C 262.111 230.114 278.138 214.134 294.399 198.399 C 305.247 187.901 316.977 178.327 327.638 167.638 C 332.982 162.28 337.136 155.834 342.336 150.336 C 352.703 139.378 363.649 128.983 374.306 118.306 C 363.629 128.962 353.234 139.909 342.275 150.275 C 336.778 155.476 330.331 159.63 324.974 164.974 C 314.285 175.634 304.711 187.365 294.213 198.213 C 278.478 214.473 262.498 230.501 246.286 246.286 C 235.471 256.816 223.982 266.637 213.147 277.147 C 196.906 292.902 180.827 308.83 165.07 325.07 C 159.807 330.495 155.248 336.567 150.114 342.114 C 144.99 347.649 139.575 352.908 134.306 358.306 Z"
       fill-rule="nonzero" />
    <path
       id="cyan-curve-18"
       d="M 161.167 353.167 C 172.23 342.896 183.512 332.857 194.355 322.355 C 210.608 306.612 226.624 290.622 242.442 274.442 C 247.721 269.042 252.463 263.138 257.63 257.63 C 262.791 252.129 268.076 246.744 273.421 241.421 C 284.111 230.777 294.839 220.169 305.733 209.733 C 311.185 204.51 317.175 199.851 322.45 194.45 C 332.999 183.65 342.928 172.261 353.167 161.167 C 342.073 171.406 330.684 181.335 319.884 191.884 C 314.482 197.159 309.824 203.149 304.601 208.601 C 294.165 219.495 283.557 230.223 272.913 240.913 C 267.59 246.258 262.205 251.543 256.704 256.704 C 251.196 261.871 245.292 266.613 239.892 271.892 C 223.712 287.71 207.722 303.726 191.979 319.979 C 181.477 330.822 171.438 342.104 161.167 353.167 Z"
       fill-rule="nonzero" />
    <path
       id="cyan-curve-19"
       d="M 188.028 348.028 C 193.407 342.74 198.64 337.3 204.164 332.164 C 209.7 327.018 215.858 322.547 221.195 317.195 C 226.532 311.841 230.766 305.457 236.117 300.117 C 241.469 294.777 247.826 290.518 253.231 285.231 C 280.188 258.857 306.837 232.166 333.168 205.168 C 338.447 199.754 343.075 193.741 348.028 188.028 C 342.315 192.982 336.302 197.609 330.889 202.889 C 303.89 229.219 277.199 255.869 250.825 282.825 C 245.538 288.23 241.279 294.587 235.939 299.939 C 230.6 305.29 224.215 309.524 218.861 314.861 C 213.509 320.198 209.038 326.356 203.892 331.892 C 198.756 337.416 193.316 342.649 188.028 348.028 Z"
       fill-rule="nonzero" />
    <path
       id="cyan-curve-20"
       d="M 214.889 342.889 C 220.253 337.586 225.646 332.313 230.98 326.98 C 236.313 321.646 241.586 316.253 246.889 310.889 C 241.526 316.193 236.132 321.466 230.799 326.799 C 225.466 332.132 220.193 337.526 214.889 342.889 ZM 246.889 310.889 C 268.451 289.784 290.199 268.868 311.575 247.575 C 316.922 242.249 321.785 236.456 327.044 231.044 C 337.558 220.226 348.274 209.608 358.889 198.889 C 348.171 209.504 337.552 220.221 326.734 230.734 C 321.322 235.994 315.53 240.857 310.204 246.204 C 288.91 267.58 267.994 289.327 246.889 310.889 Z"
       fill-rule="nonzero" />
    <path
       id="cyan-curve-21"
       d="M 225.75 353.75 C 231.085 348.419 236.422 343.089 241.756 337.756 C 247.089 332.422 252.419 327.085 257.75 321.75 C 252.415 327.082 247.079 332.412 241.745 337.745 C 236.412 343.079 231.082 348.415 225.75 353.75 ZM 257.75 321.75 C 263.086 316.419 268.423 311.09 273.757 305.757 C 279.09 300.423 284.419 295.086 289.75 289.75 C 284.415 295.082 279.078 300.411 273.744 305.744 C 268.411 311.078 263.082 316.415 257.75 321.75 ZM 337.75 241.75 C 343.085 236.419 348.421 231.088 353.755 225.755 C 359.088 220.421 364.419 215.085 369.75 209.75 C 364.416 215.082 359.079 220.413 353.746 225.746 C 348.413 231.079 343.082 236.416 337.75 241.75 Z"
       fill-rule="nonzero" />
    <path
       id="cyan-curve-22"
       d="M 316.612 284.612 C 321.945 279.278 327.278 273.945 332.612 268.612 C 337.945 263.278 343.278 257.945 348.612 252.612 C 343.278 257.945 337.945 263.278 332.612 268.612 C 327.278 273.945 321.945 279.278 316.612 284.612 Z"
       fill-rule="nonzero" />
  </g>
  <g
     id="toniator-magenta"
     inkscape:groupmode="layer"
     inkscape:label="Layer 3 (M)"
     fill="#111111"
     opacity="1"
     style="mix-blend-mode:multiply"
     clip-path="url(#toniator-artboard-clip)">
    <path
       id="magenta-curve-0"
       d="M 80 23.04 C 85.333 23.04 90.667 23.04 96 23.04 C 101.333 23.04 106.667 23.04 112 23.04 C 106.667 23.04 101.333 23.04 96 23.04 C 90.667 23.04 85.333 23.04 80 23.04 ZM 208 23.04 C 213.333 23.04 218.667 23.04 224 23.04 C 229.333 23.04 234.667 23.04 240 23.04 C 234.667 23.04 229.333 23.04 224 23.04 C 218.667 23.04 213.333 23.04 208 23.04 Z"
       fill-rule="nonzero" />
    <path
       id="magenta-curve-1"
       d="M 64 38.4 C 69.333 38.4 74.667 38.4 80 38.4 C 85.333 38.4 90.667 38.4 96 38.4 C 90.667 38.4 85.333 38.4 80 38.4 C 74.667 38.4 69.333 38.4 64 38.4 ZM 96 38.4 C 138.667 38.4 181.333 38.4 224 38.4 C 181.333 38.4 138.667 38.4 96 38.4 ZM 224 38.4 C 229.333 38.4 234.667 38.4 240 38.4 C 245.333 38.4 250.667 38.4 256 38.4 C 250.667 38.4 245.333 38.4 240 38.4 C 234.667 38.4 229.333 38.4 224 38.4 Z"
       fill-rule="nonzero" />
    <path
       id="magenta-curve-2"
       d="M 64 53.76 C 69.333 53.76 74.667 53.76 80 53.76 C 85.333 53.76 90.667 53.76 96 53.76 C 90.667 53.76 85.333 53.76 80 53.76 C 74.667 53.76 69.333 53.76 64 53.76 ZM 96 53.76 C 101.333 54.217 106.654 54.855 112 55.131 C 117.327 55.405 122.666 55.398 128 55.411 C 154.667 55.473 181.337 55.812 208 55.354 C 213.359 55.262 218.667 54.291 224 53.76 C 218.667 53.229 213.359 52.258 208 52.166 C 181.337 51.708 154.667 52.047 128 52.109 C 122.666 52.122 117.327 52.115 112 52.389 C 106.654 52.665 101.333 53.303 96 53.76 ZM 224 53.76 C 229.333 53.76 234.667 53.76 240 53.76 C 245.333 53.76 250.667 53.76 256 53.76 C 250.667 53.76 245.333 53.76 240 53.76 C 234.667 53.76 229.333 53.76 224 53.76 Z"
       fill-rule="nonzero" />
    <path
       id="magenta-curve-3"
       d="M 32 69.12 C 37.333 69.12 42.667 69.12 48 69.12 C 53.333 69.12 58.667 69.12 64 69.12 C 58.667 69.12 53.333 69.12 48 69.12 C 42.667 69.12 37.333 69.12 32 69.12 ZM 80 69.12 C 85.333 69.554 90.656 70.143 96 70.421 C 101.328 70.697 106.665 70.77 112 70.78 C 149.333 70.852 186.67 71.152 224 70.668 C 229.358 70.598 234.667 69.636 240 69.12 C 234.667 68.604 229.358 67.642 224 67.572 C 186.67 67.088 149.333 67.388 112 67.46 C 106.665 67.47 101.328 67.543 96 67.82 C 90.656 68.097 85.333 68.687 80 69.12 ZM 288 69.12 C 293.333 69.12 298.667 69.12 304 69.12 C 309.333 69.12 314.667 69.12 320 69.12 C 314.667 69.12 309.333 69.12 304 69.12 C 298.667 69.12 293.333 69.12 288 69.12 Z"
       fill-rule="nonzero" />
    <path
       id="magenta-curve-4"
       d="M 64 84.48 C 69.333 84.889 74.658 85.427 80 85.706 C 85.328 85.984 90.665 86.141 96 86.15 C 144 86.231 192.003 86.476 240 85.975 C 245.356 85.919 250.667 84.978 256 84.48 C 250.667 83.982 245.356 83.041 240 82.985 C 192.003 82.484 144 82.729 96 82.81 C 90.665 82.819 85.328 82.976 80 83.254 C 74.658 83.533 69.333 84.071 64 84.48 ZM 256 84.48 C 272 84.48 288 84.48 304 84.48 C 288 84.48 272 84.48 256 84.48 ZM 304 84.48 C 309.333 84.48 314.667 84.48 320 84.48 C 325.333 84.48 330.667 84.48 336 84.48 C 330.667 84.48 325.333 84.48 320 84.48 C 314.667 84.48 309.333 84.48 304 84.48 Z"
       fill-rule="nonzero" />
    <path
       id="magenta-curve-5"
       d="M 48 99.84 C 58.667 100.4 69.319 101.424 80 101.521 C 127.998 101.958 176 101.628 224 101.443 C 229.336 101.422 234.664 100.894 240 100.903 C 250.669 100.921 261.331 101.471 272 101.524 C 277.335 101.55 282.673 101.421 288 101.14 C 293.344 100.859 298.667 100.273 304 99.84 C 298.667 99.407 293.344 98.821 288 98.54 C 282.673 98.259 277.335 98.13 272 98.156 C 261.331 98.209 250.669 98.759 240 98.777 C 234.664 98.786 229.336 98.258 224 98.237 C 176 98.052 127.998 97.722 80 98.159 C 69.319 98.256 58.667 99.28 48 99.84 ZM 320 99.84 C 325.333 99.84 330.667 99.84 336 99.84 C 341.333 99.84 346.667 99.84 352 99.84 C 346.667 99.84 341.333 99.84 336 99.84 C 330.667 99.84 325.333 99.84 320 99.84 Z"
       fill-rule="nonzero" />
    <path
       id="magenta-curve-6"
       d="M 48 115.2 C 58.667 115.76 69.32 116.743 80 116.881 C 111.997 117.295 144.002 117.207 176 116.855 C 181.348 116.796 186.659 115.925 192 115.649 C 197.328 115.374 202.667 115.35 208 115.2 C 202.667 115.05 197.328 115.026 192 114.751 C 186.659 114.475 181.348 113.604 176 113.545 C 144.002 113.193 111.997 113.105 80 113.519 C 69.32 113.657 58.667 114.64 48 115.2 ZM 256 115.2 C 261.333 115.259 266.671 115.149 272 115.377 C 277.343 115.607 282.655 116.393 288 116.574 C 293.33 116.755 298.671 116.69 304 116.461 C 309.345 116.231 314.667 115.62 320 115.2 C 314.667 114.78 309.345 114.169 304 113.939 C 298.671 113.71 293.33 113.645 288 113.826 C 282.655 114.007 277.343 114.793 272 115.023 C 266.671 115.251 261.333 115.141 256 115.2 Z"
       fill-rule="nonzero" />
    <path
       id="magenta-curve-7"
       d="M 48 130.56 C 58.667 131.12 69.32 132.08 80 132.241 C 106.664 132.643 133.337 132.705 160 132.249 C 165.361 132.157 170.646 130.881 176 130.598 C 181.326 130.317 186.667 130.573 192 130.56 C 186.667 130.547 181.326 130.803 176 130.522 C 170.646 130.239 165.361 128.963 160 128.871 C 133.337 128.415 106.664 128.477 80 128.879 C 69.32 129.04 58.667 130 48 130.56 ZM 272 130.56 C 277.333 130.624 282.671 130.536 288 130.751 C 293.342 130.966 298.657 131.682 304 131.849 C 309.331 132.016 314.671 131.969 320 131.754 C 325.344 131.539 330.667 130.958 336 130.56 C 330.667 130.162 325.344 129.581 320 129.366 C 314.671 129.151 309.331 129.104 304 129.271 C 298.657 129.438 293.342 130.154 288 130.369 C 282.671 130.584 277.333 130.496 272 130.56 Z"
       fill-rule="nonzero" />
    <path
       id="magenta-curve-8"
       d="M 48 145.92 C 58.667 146.48 69.32 147.413 80 147.601 C 101.33 147.977 122.669 147.935 144 147.611 C 149.348 147.53 154.654 146.577 160 146.388 C 170.661 146.013 181.333 146.076 192 145.92 C 181.333 145.764 170.661 145.827 160 145.452 C 154.654 145.263 149.348 144.31 144 144.229 C 122.669 143.905 101.33 143.863 80 144.239 C 69.32 144.427 58.667 145.36 48 145.92 ZM 256 145.92 C 261.333 145.92 266.667 145.92 272 145.92 C 277.333 145.92 282.667 145.92 288 145.92 C 282.667 145.92 277.333 145.92 272 145.92 C 266.667 145.92 261.333 145.92 256 145.92 ZM 288 145.92 C 298.667 146.343 309.325 147.189 320 147.189 C 325.35 147.189 330.667 146.343 336 145.92 C 330.667 145.497 325.35 144.651 320 144.651 C 309.325 144.651 298.667 145.497 288 145.92 Z"
       fill-rule="nonzero" />
    <path
       id="magenta-curve-9"
       d="M 48 161.28 C 58.667 161.84 69.32 162.804 80 162.961 C 101.331 163.276 122.671 163.125 144 162.695 C 149.351 162.587 154.653 161.584 160 161.347 C 165.328 161.112 170.667 161.302 176 161.28 C 170.667 161.258 165.328 161.448 160 161.213 C 154.653 160.976 149.351 159.973 144 159.865 C 122.671 159.435 101.331 159.284 80 159.599 C 69.32 159.756 58.667 160.72 48 161.28 ZM 288 161.28 C 293.333 161.337 298.67 161.258 304 161.452 C 309.34 161.645 314.659 162.28 320 162.44 C 325.331 162.6 330.67 162.603 336 162.409 C 341.343 162.216 346.667 161.656 352 161.28 C 346.667 160.904 341.343 160.344 336 160.151 C 330.67 159.957 325.331 159.96 320 160.12 C 314.659 160.28 309.34 160.915 304 161.108 C 298.67 161.302 293.333 161.223 288 161.28 Z"
       fill-rule="nonzero" />
    <path
       id="magenta-curve-10"
       d="M 48 176.64 C 58.667 177.2 69.32 178.123 80 178.321 C 95.997 178.618 112.003 178.442 128 178.125 C 133.344 178.019 138.657 177.218 144 177.053 C 154.662 176.723 165.333 176.778 176 176.64 C 165.333 176.502 154.662 176.557 144 176.227 C 138.657 176.062 133.344 175.261 128 175.155 C 112.003 174.838 95.997 174.662 80 174.959 C 69.32 175.157 58.667 176.08 48 176.64 ZM 288 176.64 C 293.333 176.643 298.668 176.518 304 176.648 C 314.671 176.909 325.326 177.814 336 177.812 C 341.348 177.811 346.667 177.031 352 176.64 C 346.667 176.249 341.348 175.469 336 175.468 C 325.326 175.466 314.671 176.371 304 176.632 C 298.668 176.762 293.333 176.637 288 176.64 Z"
       fill-rule="nonzero" />
    <path
       id="magenta-curve-11"
       d="M 48 192 C 58.667 192.564 69.32 193.494 80 193.691 C 95.997 193.985 112.003 193.814 128 193.473 C 133.346 193.358 138.655 192.489 144 192.325 C 154.662 191.998 165.333 192.108 176 192 C 165.333 191.892 154.662 192.002 144 191.675 C 138.655 191.511 133.346 190.642 128 190.527 C 112.003 190.186 95.997 190.015 80 190.309 C 69.32 190.506 58.667 191.436 48 192 ZM 304 192 C 314.667 192.393 325.326 193.179 336 193.179 C 341.348 193.179 346.667 192.393 352 192 C 346.667 191.607 341.348 190.821 336 190.821 C 325.326 190.821 314.667 191.607 304 192 Z"
       fill-rule="nonzero" />
    <path
       id="magenta-curve-12"
       d="M 48 207.36 C 58.667 207.92 69.32 208.846 80 209.041 C 95.997 209.334 112.003 209.152 128 208.822 C 138.675 208.602 149.328 207.716 160 207.391 C 165.331 207.229 170.667 207.37 176 207.36 C 170.667 207.35 165.331 207.491 160 207.329 C 149.328 207.004 138.675 206.118 128 205.898 C 112.003 205.568 95.997 205.386 80 205.679 C 69.32 205.874 58.667 206.8 48 207.36 ZM 256 207.36 C 261.333 207.36 266.667 207.36 272 207.36 C 277.333 207.36 282.667 207.36 288 207.36 C 282.667 207.36 277.333 207.36 272 207.36 C 266.667 207.36 261.333 207.36 256 207.36 ZM 288 207.36 C 304 207.742 319.995 208.507 336 208.507 C 341.347 208.507 346.667 207.742 352 207.36 C 346.667 206.978 341.347 206.213 336 206.213 C 319.995 206.213 304 206.978 288 207.36 Z"
       fill-rule="nonzero" />
    <path
       id="magenta-curve-13"
       d="M 32 222.72 C 42.667 223.284 53.319 224.27 64 224.412 C 90.664 224.768 117.337 224.665 144 224.214 C 149.354 224.124 154.651 223.042 160 222.792 C 165.328 222.543 170.667 222.744 176 222.72 C 170.667 222.696 165.328 222.897 160 222.648 C 154.651 222.398 149.354 221.316 144 221.226 C 117.337 220.775 90.664 220.672 64 221.028 C 53.319 221.17 42.667 222.156 32 222.72 ZM 288 222.72 C 298.667 223.077 309.327 223.792 320 223.792 C 325.345 223.792 330.667 223.077 336 222.72 C 330.667 222.363 325.345 221.648 320 221.648 C 309.327 221.648 298.667 222.363 288 222.72 Z"
       fill-rule="nonzero" />
    <path
       id="magenta-curve-14"
       d="M 32 238.08 C 42.667 238.644 53.32 239.613 64 239.772 C 90.664 240.169 117.336 240.145 144 239.747 C 154.68 239.588 165.326 238.471 176 238.1 C 181.33 237.915 186.667 238.087 192 238.08 C 186.667 238.073 181.33 238.245 176 238.06 C 165.326 237.689 154.68 236.572 144 236.413 C 117.336 236.015 90.664 235.991 64 236.388 C 53.32 236.547 42.667 237.516 32 238.08 ZM 272 238.08 C 277.333 238.101 282.668 238.005 288 238.142 C 298.67 238.417 309.326 239.33 320 239.316 C 325.349 239.309 330.667 238.492 336 238.08 C 330.667 237.668 325.349 236.851 320 236.844 C 309.326 236.83 298.67 237.743 288 238.018 C 282.668 238.155 277.333 238.059 272 238.08 Z"
       fill-rule="nonzero" />
    <path
       id="magenta-curve-15"
       d="M 32 253.44 C 42.667 254.004 53.319 254.994 64 255.132 C 95.997 255.548 128.003 255.526 160 255.103 C 170.68 254.962 181.333 253.994 192 253.44 C 181.333 252.886 170.68 251.918 160 251.777 C 128.003 251.354 95.997 251.332 64 251.748 C 53.319 251.886 42.667 252.876 32 253.44 ZM 256 253.44 C 261.333 253.456 266.669 253.342 272 253.488 C 282.671 253.78 293.325 254.765 304 254.754 C 309.351 254.749 314.667 253.878 320 253.44 C 314.667 253.002 309.351 252.131 304 252.126 C 293.325 252.115 282.671 253.1 272 253.392 C 266.669 253.538 261.333 253.424 256 253.44 Z"
       fill-rule="nonzero" />
    <path
       id="magenta-curve-16"
       d="M 32 268.8 C 42.667 269.364 53.319 270.393 64 270.492 C 106.665 270.89 149.335 270.68 192 270.292 C 197.346 270.243 202.66 269.43 208 269.181 C 213.329 268.933 218.667 268.927 224 268.8 C 218.667 268.673 213.329 268.667 208 268.419 C 202.66 268.17 197.346 267.357 192 267.308 C 149.335 266.92 106.665 266.71 64 267.108 C 53.319 267.207 42.667 268.236 32 268.8 ZM 224 268.8 C 229.333 268.811 234.669 268.671 240 268.833 C 250.672 269.157 261.327 269.97 272 270.257 C 277.332 270.4 282.672 270.365 288 270.122 C 293.346 269.879 298.667 269.241 304 268.8 C 298.667 268.359 293.346 267.721 288 267.478 C 282.672 267.235 277.332 267.2 272 267.343 C 261.327 267.63 250.672 268.443 240 268.767 C 234.669 268.929 229.333 268.789 224 268.8 Z"
       fill-rule="nonzero" />
    <path
       id="magenta-curve-17"
       d="M 48 284.16 C 58.667 284.72 69.319 285.75 80 285.841 C 133.331 286.298 186.667 285.878 240 285.803 C 245.334 285.796 250.673 285.869 256 285.596 C 261.348 285.321 266.667 284.639 272 284.16 C 266.667 283.681 261.348 282.999 256 282.724 C 250.673 282.451 245.334 282.524 240 282.517 C 186.667 282.442 133.331 282.022 80 282.479 C 69.319 282.57 58.667 283.6 48 284.16 Z"
       fill-rule="nonzero" />
    <path
       id="magenta-curve-18"
       d="M 48 299.52 C 58.667 300.08 69.319 301.107 80 301.201 C 127.998 301.623 176.003 301.572 224 301.068 C 229.358 301.012 234.667 300.036 240 299.52 C 234.667 299.004 229.358 298.028 224 297.972 C 176.003 297.468 127.998 297.417 80 297.839 C 69.319 297.933 58.667 298.96 48 299.52 Z"
       fill-rule="nonzero" />
    <path
       id="magenta-curve-19"
       d="M 64 314.88 C 69.333 315.289 74.658 315.827 80 316.106 C 85.328 316.384 90.665 316.538 96 316.55 C 138.667 316.646 181.336 316.923 224 316.428 C 229.358 316.366 234.667 315.396 240 314.88 C 234.667 314.364 229.358 313.394 224 313.332 C 181.336 312.837 138.667 313.114 96 313.21 C 90.665 313.222 85.328 313.376 80 313.654 C 74.658 313.933 69.333 314.471 64 314.88 Z"
       fill-rule="nonzero" />
    <path
       id="magenta-curve-20"
       d="M 96 330.24 C 101.333 330.697 106.654 331.335 112 331.611 C 117.327 331.885 122.666 331.873 128 331.891 C 149.333 331.961 170.671 332.312 192 331.872 C 197.36 331.761 202.667 330.784 208 330.24 C 202.667 329.696 197.36 328.719 192 328.608 C 170.671 328.168 149.333 328.519 128 328.589 C 122.666 328.607 117.327 328.595 112 328.869 C 106.654 329.145 101.333 329.783 96 330.24 Z"
       fill-rule="nonzero" />
    <path
       id="magenta-curve-21"
       d="M 80 345.6 C 85.333 345.6 90.667 345.6 96 345.6 C 101.333 345.6 106.667 345.6 112 345.6 C 106.667 345.6 101.333 345.6 96 345.6 C 90.667 345.6 85.333 345.6 80 345.6 ZM 192 345.6 C 197.333 345.6 202.667 345.6 208 345.6 C 213.333 345.6 218.667 345.6 224 345.6 C 218.667 345.6 213.333 345.6 208 345.6 C 202.667 345.6 197.333 345.6 192 345.6 Z"
       fill-rule="nonzero" />
  </g>
  <g
     id="toniator-yellow"
     inkscape:groupmode="layer"
     inkscape:label="Layer 4 (Y)"
     fill="#111111"
     opacity="1"
     style="mix-blend-mode:multiply"
     clip-path="url(#toniator-artboard-clip)">
    <path
       id="yellow-curve-0"
       d="M 345.6 128 C 345.6 133.333 345.6 138.667 345.6 144 C 345.6 149.333 345.6 154.667 345.6 160 C 345.6 154.667 345.6 149.333 345.6 144 C 345.6 138.667 345.6 133.333 345.6 128 ZM 345.6 208 C 345.6 213.333 345.6 218.667 345.6 224 C 345.6 229.333 345.6 234.667 345.6 240 C 345.6 234.667 345.6 229.333 345.6 224 C 345.6 218.667 345.6 213.333 345.6 208 Z"
       fill-rule="nonzero" />
    <path
       id="yellow-curve-1"
       d="M 330.24 144 C 329.724 149.333 328.962 154.649 328.691 160 C 328.422 165.327 328.629 170.667 328.624 176 C 328.614 186.667 328.287 197.339 328.645 208 C 328.826 213.357 329.708 218.667 330.24 224 C 330.772 218.667 331.654 213.357 331.835 208 C 332.193 197.339 331.866 186.667 331.856 176 C 331.851 170.667 332.058 165.327 331.789 160 C 331.518 154.649 330.756 149.333 330.24 144 Z"
       fill-rule="nonzero" />
    <path
       id="yellow-curve-2"
       d="M 314.88 112 C 314.464 117.333 313.674 122.651 313.632 128 C 313.591 133.344 314.494 138.658 314.632 144 C 314.91 154.663 314.797 165.333 314.88 176 C 314.963 165.333 314.85 154.663 315.128 144 C 315.266 138.658 316.169 133.344 316.128 128 C 316.086 122.651 315.296 117.333 314.88 112 ZM 314.88 208 C 314.863 213.333 314.979 218.669 314.829 224 C 314.678 229.339 313.969 234.659 313.978 240 C 313.986 245.342 314.579 250.667 314.88 256 C 315.181 250.667 315.774 245.342 315.782 240 C 315.791 234.659 315.082 229.339 314.931 224 C 314.781 218.669 314.897 213.333 314.88 208 Z"
       fill-rule="nonzero" />
    <path
       id="yellow-curve-3"
       d="M 299.52 96 C 299.21 101.333 298.612 106.658 298.59 112 C 298.567 117.34 299.229 122.662 299.384 128 C 299.539 133.331 299.475 138.667 299.52 144 C 299.565 138.667 299.501 133.331 299.656 128 C 299.811 122.662 300.473 117.34 300.45 112 C 300.428 106.658 299.83 101.333 299.52 96 ZM 299.52 224 C 299.37 234.667 299.071 245.332 299.071 256 C 299.071 261.335 299.37 266.667 299.52 272 C 299.67 266.667 299.969 261.335 299.969 256 C 299.969 245.332 299.67 234.667 299.52 224 Z"
       fill-rule="nonzero" />
    <path
       id="yellow-curve-4"
       d="M 284.16 80 C 283.715 85.333 282.87 90.648 282.824 96 C 282.778 101.345 283.664 106.66 283.887 112 C 284.109 117.329 284.069 122.667 284.16 128 C 284.251 122.667 284.211 117.329 284.433 112 C 284.656 106.66 285.542 101.345 285.496 96 C 285.45 90.648 284.605 85.333 284.16 80 ZM 284.16 240 C 283.889 250.667 283.346 261.33 283.346 272 C 283.346 277.34 283.889 282.667 284.16 288 C 284.431 282.667 284.974 277.34 284.974 272 C 284.974 261.33 284.431 250.667 284.16 240 Z"
       fill-rule="nonzero" />
    <path
       id="yellow-curve-5"
       d="M 268.8 80 C 268.635 85.333 268.306 90.664 268.306 96 C 268.306 106.668 268.635 117.333 268.8 128 C 268.965 117.333 269.294 106.668 269.294 96 C 269.294 90.664 268.965 85.333 268.8 80 Z"
       fill-rule="nonzero" />
    <path
       id="yellow-curve-6"
       d="M 253.44 256 C 253.343 261.333 253.386 266.671 253.15 272 C 252.914 277.341 251.976 282.654 252.025 288 C 252.073 293.354 252.968 298.667 253.44 304 C 253.912 298.667 254.807 293.354 254.855 288 C 254.904 282.654 253.966 277.341 253.73 272 C 253.494 266.671 253.537 261.333 253.44 256 Z"
       fill-rule="nonzero" />
    <path
       id="yellow-curve-7"
       d="M 238.08 64 C 237.639 69.333 236.756 74.648 236.756 80 C 236.756 90.676 237.639 101.333 238.08 112 C 238.521 101.333 239.404 90.676 239.404 80 C 239.404 74.648 238.521 69.333 238.08 64 ZM 238.08 256 C 237.993 261.333 238.031 266.67 237.819 272 C 237.605 277.34 236.758 282.656 236.802 288 C 236.846 293.35 237.654 298.667 238.08 304 C 238.506 298.667 239.314 293.35 239.358 288 C 239.402 282.656 238.555 277.34 238.341 272 C 238.129 266.67 238.167 261.333 238.08 256 Z"
       fill-rule="nonzero" />
    <path
       id="yellow-curve-8"
       d="M 222.72 48 C 222.343 53.333 221.858 58.66 221.59 64 C 221.323 69.329 220.995 74.666 221.118 80 C 221.241 85.347 222.06 90.658 222.327 96 C 222.594 101.328 222.589 106.667 222.72 112 C 222.851 106.667 222.846 101.328 223.113 96 C 223.38 90.658 224.199 85.347 224.322 80 C 224.445 74.666 224.117 69.329 223.85 64 C 223.582 58.66 223.097 53.333 222.72 48 ZM 222.72 256 C 222.682 261.333 222.759 266.669 222.605 272 C 222.295 282.671 221.563 293.327 221.327 304 C 221.209 309.333 221.312 314.671 221.544 320 C 221.777 325.343 222.328 330.667 222.72 336 C 223.112 330.667 223.663 325.343 223.896 320 C 224.128 314.671 224.231 309.333 224.113 304 C 223.877 293.327 223.145 282.671 222.835 272 C 222.681 266.669 222.758 261.333 222.72 256 Z"
       fill-rule="nonzero" />
    <path
       id="yellow-curve-9"
       d="M 207.36 32 C 206.835 42.667 205.786 53.32 205.786 64 C 205.786 85.34 206.835 106.667 207.36 128 C 207.885 106.667 208.934 85.34 208.934 64 C 208.934 53.32 207.885 42.667 207.36 32 ZM 207.36 256 C 207.057 277.333 206.452 298.665 206.452 320 C 206.452 325.342 207.057 330.667 207.36 336 C 207.663 330.667 208.268 325.342 208.268 320 C 208.268 298.665 207.663 277.333 207.36 256 ZM 207.36 336 C 207.36 341.333 207.36 346.667 207.36 352 C 207.36 357.333 207.36 362.667 207.36 368 C 207.36 362.667 207.36 357.333 207.36 352 C 207.36 346.667 207.36 341.333 207.36 336 Z"
       fill-rule="nonzero" />
    <path
       id="yellow-curve-10"
       d="M 192 32 C 191.653 37.333 191.2 42.661 190.958 48 C 190.716 53.33 190.565 58.665 190.549 64 C 190.515 74.667 190.525 85.337 190.808 96 C 190.95 101.342 191.625 106.66 191.824 112 C 192.022 117.33 191.941 122.667 192 128 C 192.059 122.667 191.978 117.33 192.176 112 C 192.375 106.66 193.05 101.342 193.192 96 C 193.475 85.337 193.485 74.667 193.451 64 C 193.435 58.665 193.284 53.33 193.042 48 C 192.8 42.661 192.347 37.333 192 32 ZM 192 256 C 191.865 272 191.876 288.002 191.595 304 C 191.501 309.338 190.985 314.662 190.876 320 C 190.767 325.332 190.756 330.67 190.944 336 C 191.131 341.342 191.648 346.667 192 352 C 192.352 346.667 192.869 341.342 193.056 336 C 193.244 330.67 193.233 325.332 193.124 320 C 193.015 314.662 192.499 309.338 192.405 304 C 192.124 288.002 192.135 272 192 256 Z"
       fill-rule="nonzero" />
    <path
       id="yellow-curve-11"
       d="M 176.64 32 C 176.187 42.667 175.478 53.326 175.28 64 C 175.081 74.665 175.237 85.335 175.45 96 C 175.663 106.671 176.294 117.33 176.558 128 C 176.69 133.332 176.613 138.667 176.64 144 C 176.667 138.667 176.59 133.332 176.722 128 C 176.986 117.33 177.617 106.671 177.83 96 C 178.043 85.335 178.199 74.665 178 64 C 177.802 53.326 177.093 42.667 176.64 32 ZM 176.64 240 C 176.349 272 175.767 303.999 175.767 336 C 175.767 341.341 176.349 346.667 176.64 352 C 176.931 346.667 177.513 341.341 177.513 336 C 177.513 303.999 176.931 272 176.64 240 Z"
       fill-rule="nonzero" />
    <path
       id="yellow-curve-12"
       d="M 161.28 32 C 160.837 42.667 160.111 53.325 159.952 64 C 159.714 79.998 159.837 96.002 160.091 112 C 160.26 122.672 160.958 133.33 161.222 144 C 161.355 149.332 161.261 154.667 161.28 160 C 161.299 154.667 161.205 149.332 161.338 144 C 161.602 133.33 162.3 122.672 162.469 112 C 162.723 96.002 162.846 79.998 162.608 64 C 162.449 53.325 161.723 42.667 161.28 32 ZM 161.28 224 C 161.032 261.333 160.537 298.666 160.537 336 C 160.537 341.339 161.032 346.667 161.28 352 C 161.528 346.667 162.023 341.339 162.023 336 C 162.023 298.666 161.528 261.333 161.28 224 Z"
       fill-rule="nonzero" />
    <path
       id="yellow-curve-13"
       d="M 145.92 32 C 145.474 42.667 144.691 53.325 144.582 64 C 144.312 90.665 144.427 117.336 144.783 144 C 144.854 149.345 145.675 154.658 145.865 160 C 146.054 165.33 145.902 170.667 145.92 176 C 145.938 170.667 145.786 165.33 145.975 160 C 146.165 154.658 146.986 149.345 147.057 144 C 147.413 117.336 147.528 90.665 147.258 64 C 147.149 53.325 146.366 42.667 145.92 32 ZM 145.92 176 C 145.92 181.333 145.92 186.667 145.92 192 C 145.92 197.333 145.92 202.667 145.92 208 C 145.92 202.667 145.92 197.333 145.92 192 C 145.92 186.667 145.92 181.333 145.92 176 ZM 145.92 208 C 145.676 250.667 145.188 293.333 145.188 336 C 145.188 341.339 145.676 346.667 145.92 352 C 146.164 346.667 146.652 341.339 146.652 336 C 146.652 293.333 146.164 250.667 145.92 208 Z"
       fill-rule="nonzero" />
    <path
       id="yellow-curve-14"
       d="M 130.56 32 C 130.224 37.333 129.786 42.661 129.553 48 C 129.321 53.33 129.175 58.665 129.165 64 C 129.114 90.667 129.04 117.335 129.369 144 C 129.501 154.673 130.286 165.329 130.551 176 C 130.683 181.332 130.557 186.667 130.56 192 C 130.563 186.667 130.437 181.332 130.569 176 C 130.834 165.329 131.619 154.673 131.751 144 C 132.08 117.335 132.006 90.667 131.955 64 C 131.945 58.665 131.799 53.33 131.567 48 C 131.334 42.661 130.896 37.333 130.56 32 ZM 130.56 192 C 130.468 229.333 130.497 266.667 130.283 304 C 130.222 314.668 129.674 325.332 129.735 336 C 129.766 341.34 130.285 346.667 130.56 352 C 130.835 346.667 131.354 341.34 131.385 336 C 131.446 325.332 130.898 314.668 130.837 304 C 130.623 266.667 130.652 229.333 130.56 192 Z"
       fill-rule="nonzero" />
    <path
       id="yellow-curve-15"
       d="M 115.2 32 C 114.844 37.333 114.383 42.661 114.132 48 C 113.88 53.329 113.696 58.665 113.69 64 C 113.66 90.667 113.668 117.335 114.023 144 C 114.166 154.673 115.111 165.327 115.181 176 C 115.424 213.333 115.194 250.667 114.963 288 C 114.864 304.002 114.132 319.998 114.191 336 C 114.211 341.344 114.864 346.667 115.2 352 C 115.536 346.667 116.189 341.344 116.209 336 C 116.268 319.998 115.536 304.002 115.437 288 C 115.206 250.667 114.976 213.333 115.219 176 C 115.289 165.327 116.234 154.673 116.377 144 C 116.732 117.335 116.74 90.667 116.71 64 C 116.704 58.665 116.52 53.329 116.268 48 C 116.017 42.661 115.556 37.333 115.2 32 Z"
       fill-rule="nonzero" />
    <path
       id="yellow-curve-16"
       d="M 99.84 48 C 99.481 53.333 99.001 58.66 98.764 64 C 98.528 69.329 98.428 74.665 98.424 80 C 98.404 106.667 98.354 133.335 98.691 160 C 98.826 170.673 99.457 181.333 99.84 192 C 100.223 181.333 100.854 170.673 100.989 160 C 101.326 133.335 101.276 106.667 101.256 80 C 101.252 74.665 101.152 69.329 100.916 64 C 100.679 58.66 100.199 53.333 99.84 48 ZM 99.84 192 C 99.744 224 99.759 256.001 99.552 288 C 99.483 298.668 98.951 309.332 99.014 320 C 99.046 325.34 99.565 330.667 99.84 336 C 100.115 330.667 100.634 325.34 100.666 320 C 100.729 309.332 100.197 298.668 100.128 288 C 99.921 256.001 99.936 224 99.84 192 Z"
       fill-rule="nonzero" />
    <path
       id="yellow-curve-17"
       d="M 84.48 16 C 84.48 21.333 84.48 26.667 84.48 32 C 84.48 37.333 84.48 42.667 84.48 48 C 84.48 42.667 84.48 37.333 84.48 32 C 84.48 26.667 84.48 21.333 84.48 16 ZM 84.48 64 C 84.1 69.333 83.577 74.658 83.339 80 C 83.101 85.329 83.053 90.666 83.05 96 C 83.035 122.667 83.04 149.334 83.285 176 C 83.432 192.002 84.085 207.998 84.224 224 C 84.364 239.999 84.322 256.001 84.122 272 C 83.989 282.67 83.397 293.331 83.228 304 C 83.143 309.333 83.152 314.671 83.36 320 C 83.569 325.342 84.107 330.667 84.48 336 C 84.853 330.667 85.391 325.342 85.6 320 C 85.808 314.671 85.817 309.333 85.732 304 C 85.563 293.331 84.971 282.67 84.838 272 C 84.638 256.001 84.596 239.999 84.736 224 C 84.875 207.998 85.528 192.002 85.675 176 C 85.92 149.334 85.925 122.667 85.91 96 C 85.907 90.666 85.859 85.329 85.621 80 C 85.383 74.658 84.86 69.333 84.48 64 ZM 84.48 336 C 84.48 341.333 84.48 346.667 84.48 352 C 84.48 357.333 84.48 362.667 84.48 368 C 84.48 362.667 84.48 357.333 84.48 352 C 84.48 346.667 84.48 341.333 84.48 336 Z"
       fill-rule="nonzero" />
    <path
       id="yellow-curve-18"
       d="M 69.12 32 C 69.12 37.333 69.12 42.667 69.12 48 C 69.12 53.333 69.12 58.667 69.12 64 C 69.12 58.667 69.12 53.333 69.12 48 C 69.12 42.667 69.12 37.333 69.12 32 ZM 69.12 80 C 68.694 85.333 68.099 90.656 67.842 96 C 67.585 101.328 67.596 106.666 67.58 112 C 67.514 133.333 67.451 154.667 67.593 176 C 67.735 197.335 68.403 218.665 68.431 240 C 68.453 256.002 67.878 271.999 67.743 288 C 67.698 293.333 67.663 298.671 67.892 304 C 68.122 309.344 68.711 314.667 69.12 320 C 69.529 314.667 70.118 309.344 70.348 304 C 70.577 298.671 70.542 293.333 70.497 288 C 70.362 271.999 69.787 256.002 69.809 240 C 69.837 218.665 70.505 197.335 70.647 176 C 70.789 154.667 70.726 133.333 70.66 112 C 70.644 106.666 70.655 101.328 70.398 96 C 70.141 90.656 69.546 85.333 69.12 80 Z"
       fill-rule="nonzero" />
    <path
       id="yellow-curve-19"
       d="M 53.76 64 C 53.76 69.333 53.76 74.667 53.76 80 C 53.76 85.333 53.76 90.667 53.76 96 C 53.76 90.667 53.76 85.333 53.76 80 C 53.76 74.667 53.76 69.333 53.76 64 ZM 53.76 192 C 53.747 197.333 54.003 202.674 53.722 208 C 53.439 213.354 52.183 218.64 52.071 224 C 51.738 239.997 51.967 256.005 52.389 272 C 52.53 277.351 53.303 282.667 53.76 288 C 54.217 282.667 54.99 277.351 55.131 272 C 55.553 256.005 55.782 239.997 55.449 224 C 55.337 218.64 54.081 213.354 53.798 208 C 53.517 202.674 53.773 197.333 53.76 192 ZM 53.76 304 C 53.76 309.333 53.76 314.667 53.76 320 C 53.76 325.333 53.76 330.667 53.76 336 C 53.76 330.667 53.76 325.333 53.76 320 C 53.76 314.667 53.76 309.333 53.76 304 Z"
       fill-rule="nonzero" />
    <path
       id="yellow-curve-20"
       d="M 38.4 176 C 38.4 181.333 38.4 186.667 38.4 192 C 38.4 197.333 38.4 202.667 38.4 208 C 38.4 202.667 38.4 197.333 38.4 192 C 38.4 186.667 38.4 181.333 38.4 176 ZM 38.4 272 C 38.4 277.333 38.4 282.667 38.4 288 C 38.4 293.333 38.4 298.667 38.4 304 C 38.4 298.667 38.4 293.333 38.4 288 C 38.4 282.667 38.4 277.333 38.4 272 Z"
       fill-rule="nonzero" />
    <path
       id="yellow-curve-21"
       d="M 23.04 176 C 23.04 181.333 23.04 186.667 23.04 192 C 23.04 197.333 23.04 202.667 23.04 208 C 23.04 202.667 23.04 197.333 23.04 192 C 23.04 186.667 23.04 181.333 23.04 176 ZM 23.04 272 C 23.04 277.333 23.04 282.667 23.04 288 C 23.04 293.333 23.04 298.667 23.04 304 C 23.04 298.667 23.04 293.333 23.04 288 C 23.04 282.667 23.04 277.333 23.04 272 Z"
       fill-rule="nonzero" />
  </g>
</svg>
