<?xml version="1.0" encoding="UTF-8" standalone="no"?>
<!-- Created with Inkscape (http://www.inkscape.org/) -->

<svg
   width="4.5566244in"
   height="1.9731355in"
   viewBox="0 0 115.73825 50.117646"
   version="1.1"
   id="svg1"
   xmlns="http://www.w3.org/2000/svg"
   xmlns:svg="http://www.w3.org/2000/svg">
  <defs
     id="defs1" />
  <g
     id="layer1"
     transform="translate(7.0691286,61.521108)">
    <g
       id="g737">
      <g
         id="g4"
         transform="matrix(0.62490949,0.36079166,-0.36079166,0.62490949,-1.516123,-85.649455)">
        <g
           id="g3"
           transform="translate(4.4558399)">
          <circle
             style="mix-blend-mode:normal;fill:#0000ff;fill-opacity:1;stroke:#000000;stroke-width:2.032;stroke-linecap:round;stroke-linejoin:round;paint-order:stroke markers fill"
             id="path1"
             cx="36.133484"
             cy="42.118366"
             r="19.405352" />
          <circle
             style="mix-blend-mode:difference;fill:#00ff00;fill-opacity:1;stroke:#000000;stroke-width:2.032;stroke-linecap:round;stroke-linejoin:round;paint-order:stroke markers fill"
             id="circle2"
             cx="56.554836"
             cy="42.118366"
             r="19.405352" />
        </g>
        <circle
           style="mix-blend-mode:difference;fill:#ff0000;fill-opacity:1;stroke:#000000;stroke-width:2.032;stroke-linecap:round;stroke-linejoin:round;paint-order:stroke markers fill"
           id="circle3"
           cx="50.799999"
           cy="62.539719"
           r="19.405352" />
      </g>
      <path
         id="path4"
         style="fill:#0000ff;fill-opacity:1;stroke:none;stroke-width:1.69709;stroke-linecap:round;stroke-linejoin:round;paint-order:stroke markers fill"
         d="m 52.478846,-43.44584 v 4.224592 h -15.20269 v 5.517922 h 15.20269 v 4.224592 l 6.856429,-6.983553 z" />
      <g
         id="g131"
         transform="translate(-10.754164,-82.199269)">
        <g
           id="g130"
           transform="matrix(0.62490948,0.36079165,-0.36079165,0.62490948,108.03148,84.781628)">
          <circle
             style="fill:#000000;fill-opacity:1;stroke:none;stroke-width:0.0708411;stroke-linecap:round;stroke-linejoin:round;stroke-dasharray:none;stroke-opacity:1;paint-order:stroke markers fill"
             id="circle113"
             cx="-47.842888"
             cy="-74.776283"
             r="2.0963151"
             transform="rotate(-30)" />
          <circle
             style="fill:#000000;fill-opacity:1;stroke:none;stroke-width:0.0847993;stroke-linecap:round;stroke-linejoin:round;stroke-dasharray:none;stroke-opacity:1;paint-order:stroke markers fill"
             id="circle114"
             cx="-37.704285"
             cy="-85.192719"
             r="2.5093629"
             transform="rotate(-30)" />
          <circle
             style="fill:#000000;fill-opacity:1;stroke:none;stroke-width:0.0847993;stroke-linecap:round;stroke-linejoin:round;stroke-dasharray:none;stroke-opacity:1;paint-order:stroke markers fill"
             id="circle115"
             cx="-27.287855"
             cy="-85.192719"
             r="2.5093629"
             transform="rotate(-30)" />
          <circle
             style="fill:#000000;fill-opacity:1;stroke:none;stroke-width:0.0847993;stroke-linecap:round;stroke-linejoin:round;stroke-dasharray:none;stroke-opacity:1;paint-order:stroke markers fill"
             id="circle116"
             cx="-17.149248"
             cy="-85.192719"
             r="2.5093629"
             transform="rotate(-30)" />
          <circle
             style="fill:#000000;fill-opacity:1;stroke:none;stroke-width:0.0933935;stroke-linecap:round;stroke-linejoin:round;stroke-dasharray:none;stroke-opacity:1;paint-order:stroke markers fill"
             id="circle117"
             cx="-6.7328186"
             cy="-74.776291"
             r="2.7636812"
             transform="rotate(-30)" />
          <circle
             style="fill:#000000;fill-opacity:1;stroke:none;stroke-width:0.0654891;stroke-linecap:round;stroke-linejoin:round;stroke-dasharray:none;stroke-opacity:1;paint-order:stroke markers fill"
             id="circle118"
             cx="13.822217"
             cy="-54.672379"
             r="1.9379406"
             transform="rotate(-30)" />
          <circle
             style="fill:#000000;fill-opacity:1;stroke:none;stroke-width:0.0933938;stroke-linecap:round;stroke-linejoin:round;stroke-dasharray:none;stroke-opacity:1;paint-order:stroke markers fill"
             id="circle119"
             cx="3.4057877"
             cy="-74.776283"
             r="2.7636888"
             transform="rotate(-30)" />
          <circle
             style="fill:#000000;fill-opacity:1;stroke:none;stroke-width:0.0654891;stroke-linecap:round;stroke-linejoin:round;stroke-dasharray:none;stroke-opacity:1;paint-order:stroke markers fill"
             id="circle120"
             cx="3.6836109"
             cy="-64.359863"
             r="1.9379406"
             transform="rotate(-30)" />
          <circle
             style="fill:#000000;fill-opacity:1;stroke:none;stroke-width:0.10642;stroke-linecap:round;stroke-linejoin:round;stroke-dasharray:none;stroke-opacity:1;paint-order:stroke markers fill"
             id="circle121"
             cx="3.405787"
             cy="-44.255951"
             r="3.1491532"
             transform="rotate(-30)" />
          <circle
             style="fill:#000000;fill-opacity:1;stroke:none;stroke-width:0.0982337;stroke-linecap:round;stroke-linejoin:round;stroke-dasharray:none;stroke-opacity:1;paint-order:stroke markers fill"
             id="circle122"
             cx="-7.0106425"
             cy="-33.839523"
             r="2.9069107"
             transform="rotate(-30)" />
          <circle
             style="fill:#000000;fill-opacity:1;stroke:none;stroke-width:0.10642;stroke-linecap:round;stroke-linejoin:round;stroke-dasharray:none;stroke-opacity:1;paint-order:stroke markers fill"
             id="circle123"
             cx="-17.149246"
             cy="-33.83952"
             r="3.1491532"
             transform="rotate(-30)" />
          <circle
             style="fill:#000000;fill-opacity:1;stroke:none;stroke-width:0.110513;stroke-linecap:round;stroke-linejoin:round;stroke-dasharray:none;stroke-opacity:1;paint-order:stroke markers fill"
             id="circle124"
             cx="-27.287855"
             cy="-23.787567"
             r="3.2702744"
             transform="rotate(-30)" />
          <circle
             style="fill:#000000;fill-opacity:1;stroke:none;stroke-width:0.0982337;stroke-linecap:round;stroke-linejoin:round;stroke-dasharray:none;stroke-opacity:1;paint-order:stroke markers fill"
             id="circle125"
             cx="-37.704285"
             cy="-23.787567"
             r="2.9069107"
             transform="rotate(-30)" />
          <circle
             style="fill:#000000;fill-opacity:1;stroke:none;stroke-width:0.10642;stroke-linecap:round;stroke-linejoin:round;stroke-dasharray:none;stroke-opacity:1;paint-order:stroke markers fill"
             id="circle126"
             cx="-47.842888"
             cy="-33.83952"
             r="3.1491532"
             transform="rotate(-30)" />
          <circle
             style="fill:#000000;fill-opacity:1;stroke:none;stroke-width:0.10642;stroke-linecap:round;stroke-linejoin:round;stroke-dasharray:none;stroke-opacity:1;paint-order:stroke markers fill"
             id="circle127"
             cx="-47.842888"
             cy="-44.255947"
             r="3.1491532"
             transform="rotate(-30)" />
          <circle
             style="fill:#000000;fill-opacity:1;stroke:none;stroke-width:0.0900475;stroke-linecap:round;stroke-linejoin:round;stroke-dasharray:none;stroke-opacity:1;paint-order:stroke markers fill"
             id="circle128"
             cx="-47.842888"
             cy="-54.307903"
             r="2.6646681"
             transform="rotate(-30)" />
          <circle
             style="fill:#000000;fill-opacity:1;stroke:none;stroke-width:0.10642;stroke-linecap:round;stroke-linejoin:round;stroke-dasharray:none;stroke-opacity:1;paint-order:stroke markers fill"
             id="circle129"
             cx="-47.842888"
             cy="-64.359856"
             r="3.1491532"
             transform="rotate(-30)" />
        </g>
        <g
           id="g108"
           transform="matrix(0.62490948,0.36079165,-0.36079165,0.62490948,110.11663,85.663067)">
          <path
             id="path90"
             style="fill:#ff00ff;fill-opacity:1;stroke:none;stroke-width:0.170912;stroke-linecap:round;stroke-linejoin:round;stroke-dasharray:none;stroke-opacity:1;paint-order:stroke markers fill"
             d="m -64.466785,-61.48103 a 4.9987969,4.9987969 0 0 0 -1.829671,6.82842 4.9987969,4.9987969 0 0 0 6.828421,1.829668 4.9987969,4.9987969 0 0 0 1.829669,-6.828419 4.9987969,4.9987969 0 0 0 -6.828419,-1.829669 z m -8.68028,5.302638 a 4.7461786,4.7461786 0 0 0 -1.736777,6.483711 4.7461786,4.7461786 0 0 0 6.483087,1.737139 4.7461786,4.7461786 0 0 0 1.737136,-6.483087 4.7461786,4.7461786 0 0 0 -6.483446,-1.737763 z m 18.370688,-8.85568 a 3.230468,3.230468 0 0 0 -1.182469,4.41304 3.230468,3.230468 0 0 0 4.413039,1.182471 3.230468,3.230468 0 0 0 1.182469,-4.413039 3.230468,3.230468 0 0 0 -4.413039,-1.182472 z m -26.259168,16.327551 a 2.2199945,2.2199945 0 0 0 -0.812601,3.032683 2.2199945,2.2199945 0 0 0 3.032676,0.8126 2.2199945,2.2199945 0 0 0 0.812607,-3.032675 2.2199945,2.2199945 0 0 0 -3.032682,-0.812608 z m 12.84677,1.116139 a 4.9987969,4.9987969 0 0 0 -1.82967,6.82842 4.9987969,4.9987969 0 0 0 6.82842,1.829669 4.9987969,4.9987969 0 0 0 1.829669,-6.828419 4.9987969,4.9987969 0 0 0 -6.828419,-1.82967 z m -8.364455,5.849664 a 4.1146326,4.1146326 0 0 0 -1.505579,5.620862 4.1146326,4.1146326 0 0 0 5.620239,1.505938 4.1146326,4.1146326 0 0 0 1.50656,-5.620597 4.1146326,4.1146326 0 0 0 -5.62122,-1.506203 z m 17.88621,-9.694825 a 3.5672927,3.5672927 0 0 0 -1.305312,4.873455 3.5672927,3.5672927 0 0 0 4.872832,1.305671 3.5672927,3.5672927 0 0 0 1.30567,-4.872831 3.5672927,3.5672927 0 0 0 -4.87319,-1.306295 z m -4.437785,12.650856 a 4.9987969,4.9987969 0 0 0 -1.829665,6.828428 4.9987969,4.9987969 0 0 0 6.82842,1.829669 4.9987969,4.9987969 0 0 0 1.829669,-6.828419 4.9987969,4.9987969 0 0 0 -6.828424,-1.829678 z m -8.30107,5.959449 a 3.9883232,3.9883232 0 0 0 -1.459807,5.448055 3.9883232,3.9883232 0 0 0 5.448062,1.459806 3.9883232,3.9883232 0 0 0 1.459808,-5.448055 3.9883232,3.9883232 0 0 0 -5.448063,-1.459806 z m 13.385405,2.846877 a 4.9987969,4.9987969 0 0 0 -1.829672,6.828418 4.9987969,4.9987969 0 0 0 6.82842,1.829669 4.9987969,4.9987969 0 0 0 1.82967,-6.82842 4.9987969,4.9987969 0 0 0 -6.828418,-1.829667 z m -8.469372,5.667942 a 4.3251476,4.3251476 45 0 0 -1.583004,5.907856 4.3251476,4.3251476 45 0 0 5.908213,1.583625 4.3251476,4.3251476 45 0 0 1.583268,-5.908833 4.3251476,4.3251476 45 0 0 -5.908477,-1.582648 z m 13.553701,3.138374 a 4.9987969,4.9987969 0 0 0 -1.82967,6.82842 4.9987969,4.9987969 0 0 0 6.82842,1.82967 4.9987969,4.9987969 0 0 0 1.829669,-6.82842 4.9987969,4.9987969 0 0 0 -6.828419,-1.82967 z m -8.634423,5.665661 a 4.4093537,4.4093537 45 0 0 -1.613937,6.0232919 4.4093537,4.4093537 45 0 0 6.023293,1.6139363 4.4093537,4.4093537 45 0 0 1.613936,-6.0232922 4.4093537,4.4093537 45 0 0 -6.023292,-1.613936 z m 17.945988,-9.874879 a 3.9883232,3.9883232 0 0 0 -1.459804,5.448061 3.9883232,3.9883232 0 0 0 5.448062,1.459804 3.9883232,3.9883232 0 0 0 1.459804,-5.448062 3.9883232,3.9883232 0 0 0 -5.448062,-1.459803 z m 10.028844,-3.554103 a 2.0515821,2.0515821 0 0 0 -0.751003,2.802782 2.0515821,2.0515821 0 0 0 2.802782,0.751005 2.0515821,2.0515821 0 0 0 0.751003,-2.802784 2.0515821,2.0515821 0 0 0 -2.802782,-0.751003 z m -14.256079,16.56964 a 4.9987969,4.9987969 0 0 0 -1.829669,6.828421 4.9987969,4.9987969 0 0 0 6.82842,1.829669 4.9987969,4.9987969 0 0 0 1.829669,-6.828419 4.9987969,4.9987969 0 0 0 -6.82842,-1.829671 z m 8.806319,-5.08433 a 4.9987969,4.9987969 0 0 0 -1.829669,6.82842 4.9987969,4.9987969 0 0 0 6.82842,1.8296695 4.9987969,4.9987969 0 0 0 1.82967,-6.8284195 4.9987969,4.9987969 0 0 0 -6.828421,-1.82967 z m 9.902443,-3.773036 a 3.3146741,3.3146741 0 0 0 -1.213401,4.528476 3.3146741,3.3146741 0 0 0 4.528117,1.212781 3.3146741,3.3146741 0 0 0 1.213139,-4.527497 3.3146741,3.3146741 0 0 0 -4.527855,-1.21376 z M -55.56349,-5.3854219 a 2.8094373,2.8094373 0 0 0 -1.028336,3.8378069 2.8094373,2.8094373 0 0 0 3.837806,1.02833706 2.8094373,2.8094373 0 0 0 1.028338,-3.83780656 2.8094373,2.8094373 0 0 0 -3.837808,-1.0283374 z" />
          <path
             id="path107"
             style="mix-blend-mode:multiply;fill:#ffff00;fill-opacity:1;stroke:none;stroke-width:0.170912;stroke-linecap:round;stroke-linejoin:round;stroke-dasharray:none;stroke-opacity:1;paint-order:stroke markers fill"
             d="m -61.092041,-8.9333151 a 4.9987969,4.9987969 0 0 0 6.828421,-1.8296689 4.9987969,4.9987969 0 0 0 -1.829672,-6.828419 4.9987969,4.9987969 0 0 0 -6.828419,1.829669 4.9987969,4.9987969 0 0 0 1.82967,6.8284189 z m 8.932359,4.866024 a 4.7461786,4.7461786 0 0 0 6.483447,-1.7377619 4.7461786,4.7461786 0 0 0 -1.737137,-6.483088 4.7461786,4.7461786 0 0 0 -6.483086,1.73714 4.7461786,4.7461786 0 0 0 1.736776,6.4837099 z M -69.014269,-15.548933 a 3.230468,3.230468 0 0 0 4.413039,-1.182473 3.230468,3.230468 0 0 0 -1.182469,-4.413038 3.230468,3.230468 0 0 0 -4.413039,1.18247 3.230468,3.230468 0 0 0 1.182469,4.413041 z m 27.269657,14.57733093 a 2.2199945,2.2199945 0 0 0 3.032681,-0.81260903 2.2199945,2.2199945 0 0 0 -0.812605,-3.032675 2.2199945,2.2199945 0 0 0 -3.032677,0.812599 2.2199945,2.2199945 0 0 0 0.812601,3.03268503 z m -5.45678,-11.68369893 a 4.9987969,4.9987969 0 0 0 6.82842,-1.829669 4.9987969,4.9987969 0 0 0 -1.82967,-6.82842 4.9987969,4.9987969 0 0 0 -6.828419,1.82967 4.9987969,4.9987969 0 0 0 1.829669,6.828419 z m 9.248186,4.3189979 a 4.1146326,4.1146326 0 0 0 5.620598,-1.506561 4.1146326,4.1146326 0 0 0 -1.505939,-5.6202379 4.1146326,4.1146326 0 0 0 -5.62086,1.505579 4.1146326,4.1146326 0 0 0 1.506201,5.6212199 z M -55.292277,-18.978802 a 3.5672927,3.5672927 0 0 0 4.873193,-1.306294 3.5672927,3.5672927 0 0 0 -1.305672,-4.872832 3.5672927,3.5672927 0 0 0 -4.872831,1.305672 3.5672927,3.5672927 0 0 0 1.30531,4.873454 z m 13.174855,-2.482194 a 4.9987969,4.9987969 0 0 0 6.828425,-1.829677 4.9987969,4.9987969 0 0 0 -1.82967,-6.82842 4.9987969,4.9987969 0 0 0 -6.828419,1.82967 4.9987969,4.9987969 0 0 0 1.829664,6.828427 z m 9.311569,4.209213 a 3.9883232,3.9883232 0 0 0 5.448058,-1.459797 3.9883232,3.9883232 0 0 0 -1.459802,-5.448062 3.9883232,3.9883232 0 0 0 -5.448057,1.459796 3.9883232,3.9883232 0 0 0 1.459801,5.448063 z m -4.227234,-13.015539 a 4.9987969,4.9987969 0 0 0 6.82842,-1.829666 4.9987969,4.9987969 0 0 0 -1.829671,-6.82842 4.9987969,4.9987969 0 0 0 -6.82842,1.82967 4.9987969,4.9987969 0 0 0 1.829671,6.828416 z m 9.143267,4.50072 a 4.3251476,4.3251476 0 0 0 5.907856,-1.583005 4.3251476,4.3251476 0 0 0 -1.582647,-5.908476 4.3251476,4.3251476 0 0 0 -5.908833,1.583266 4.3251476,4.3251476 0 0 0 1.583624,5.908215 z m -4.058938,-13.307036 a 4.9987969,4.9987969 0 0 0 6.82842,-1.829669 4.9987969,4.9987969 0 0 0 -1.829669,-6.828421 4.9987969,4.9987969 0 0 0 -6.82842,1.829671 4.9987969,4.9987969 0 0 0 1.829669,6.828419 z m 9.223818,4.644799 a 4.4093537,4.4093537 0 0 0 6.023293,-1.613935 4.4093537,4.4093537 0 0 0 -1.613937,-6.023294 4.4093537,4.4093537 0 0 0 -6.023293,1.613937 4.4093537,4.4093537 0 0 0 1.613937,6.023292 z m -17.52489,-10.604243 a 3.9883232,3.9883232 0 0 0 5.448061,-1.459802 3.9883232,3.9883232 0 0 0 -1.459804,-5.448062 3.9883232,3.9883232 0 0 0 -5.448061,1.459804 3.9883232,3.9883232 0 0 0 1.459804,5.44806 z m -8.092366,-6.908181 a 2.0515821,2.0515821 0 0 0 2.802782,-0.751003 2.0515821,2.0515821 0 0 0 -0.751001,-2.802784 2.0515821,2.0515821 0 0 0 -2.802784,0.751005 2.0515821,2.0515821 0 0 0 0.751003,2.802782 z m 21.477769,4.061306 a 4.9987969,4.9987969 0 0 0 6.828421,-1.829671 4.9987969,4.9987969 0 0 0 -1.829671,-6.828419 4.9987969,4.9987969 0 0 0 -6.828418,1.829669 4.9987969,4.9987969 0 0 0 1.829668,6.828421 z m -8.806318,-5.084331 a 4.9987969,4.9987969 0 0 0 6.82842,-1.82967 4.9987969,4.9987969 0 0 0 -1.82967,-6.82842 4.9987969,4.9987969 0 0 0 -6.82842,1.829669 4.9987969,4.9987969 0 0 0 1.82967,6.828421 z m -8.218766,-6.689249 a 3.3146741,3.3146741 0 0 0 4.528475,-1.213402 3.3146741,3.3146741 0 0 0 -1.213759,-4.527854 3.3146741,3.3146741 0 0 0 -4.527497,1.213138 3.3146741,3.3146741 0 0 0 1.212781,4.528118 z m 26.926045,14.961938 a 2.8094373,2.8094373 0 0 0 3.837805,-1.028338 2.8094373,2.8094373 0 0 0 -1.028337,-3.837806 2.8094373,2.8094373 0 0 0 -3.837807,1.028336 2.8094373,2.8094373 0 0 0 1.028339,3.837808 z" />
          <path
             id="path108"
             style="mix-blend-mode:multiply;fill:#00ffff;fill-opacity:1;stroke:none;stroke-width:0.170912;stroke-linecap:round;stroke-linejoin:round;stroke-dasharray:none;stroke-opacity:1;paint-order:stroke markers fill"
             d="m -18.262875,-37.625392 a 4.9987969,4.9987969 0 0 0 -4.99875,-4.998751 4.9987969,4.9987969 0 0 0 -4.998749,4.998752 4.9987969,4.9987969 0 0 0 4.99875,4.99875 4.9987969,4.9987969 0 0 0 4.998749,-4.998751 z m -0.252079,-10.168661 a 4.7461786,4.7461786 0 0 0 -4.746669,-4.745949 4.7461786,4.7461786 0 0 0 -4.745951,4.745949 4.7461786,4.7461786 0 0 0 4.74595,4.745947 4.7461786,4.7461786 0 0 0 4.74667,-4.745947 z m -1.5161,20.337321 a 3.230468,3.230468 0 0 0 -3.230571,-3.230567 3.230468,3.230468 0 0 0 -3.230569,3.230567 3.230468,3.230468 0 0 0 3.230569,3.230569 3.230468,3.230468 0 0 0 3.230571,-3.230569 z m -1.010489,-30.904881 a 2.2199945,2.2199945 0 0 0 -2.220081,-2.220074 2.2199945,2.2199945 0 0 0 -2.220071,2.220074 2.2199945,2.2199945 0 0 0 2.22007,2.220075 2.2199945,2.2199945 0 0 0 2.220082,-2.220075 z m -7.389991,10.56756 a 4.9987969,4.9987969 0 0 0 -4.99875,-4.998751 4.9987969,4.9987969 0 0 0 -4.99875,4.998751 4.9987969,4.9987969 0 0 0 4.99875,4.998749 4.9987969,4.9987969 0 0 0 4.99875,-4.998749 z m -0.883731,-10.168664 a 4.1146326,4.1146326 0 0 0 -4.115019,-4.1143 4.1146326,4.1146326 0 0 0 -4.114299,4.114301 4.1146326,4.1146326 0 0 0 4.114299,4.115018 4.1146326,4.1146326 0 0 0 4.115019,-4.115019 z m -0.547139,20.337326 a 3.5672927,3.5672927 0 0 0 -3.56788,-3.567162 3.5672927,3.5672927 0 0 0 -3.56716,3.567161 3.5672927,3.5672927 0 0 0 3.56716,3.56716 3.5672927,3.5672927 0 0 0 3.56788,-3.567159 z m -8.73707,-10.168662 a 4.9987969,4.9987969 0 0 0 -4.99876,-4.998751 4.9987969,4.9987969 0 0 0 -4.99875,4.998751 4.9987969,4.9987969 0 0 0 4.99875,4.998749 4.9987969,4.9987969 0 0 0 4.99876,-4.998749 z m -1.0105,-10.168662 a 3.9883232,3.9883232 0 0 0 -3.98825,-3.988258 3.9883232,3.9883232 0 0 0 -3.988259,3.988257 3.9883232,3.9883232 0 0 0 3.988249,3.988257 3.9883232,3.9883232 0 0 0 3.98826,-3.988256 z m -9.15817,10.168662 a 4.9987969,4.9987969 0 0 0 -4.998747,-4.998753 4.9987969,4.9987969 0 0 0 -4.99875,4.998752 4.9987969,4.9987969 0 0 0 4.998751,4.99875 4.9987969,4.9987969 0 0 0 4.998746,-4.998749 z m -0.673896,-10.168662 a 4.3251476,4.3251476 0 0 0 -4.32485,-4.324851 4.3251476,4.3251476 0 0 0 -4.325567,4.324851 4.3251476,4.3251476 0 0 0 4.325565,4.325566 4.3251476,4.3251476 0 0 0 4.324852,-4.325566 z m -9.494762,10.168662 a 4.9987969,4.9987969 0 0 0 -4.99875,-4.998751 4.9987969,4.9987969 0 0 0 -4.998751,4.99875 4.9987969,4.9987969 0 0 0 4.998751,4.99875 4.9987969,4.9987969 0 0 0 4.99875,-4.998749 z m -0.589395,-10.310461 a 4.4093537,4.4093537 0 0 0 -4.409355,-4.409357 4.4093537,4.4093537 0 0 0 -4.409357,4.409358 4.4093537,4.4093537 0 0 0 4.409357,4.409356 4.4093537,4.4093537 0 0 0 4.409355,-4.409357 z m -0.421099,20.479122 a 3.9883232,3.9883232 0 0 0 -3.988256,-3.988258 3.9883232,3.9883232 0 0 0 -3.988258,3.988258 3.9883232,3.9883232 0 0 0 3.988258,3.988257 3.9883232,3.9883232 0 0 0 3.988256,-3.988257 z m -1.936477,10.462285 a 2.0515821,2.0515821 0 0 0 -2.051779,-2.051779 2.0515821,2.0515821 0 0 0 -2.051781,2.051778 2.0515821,2.0515821 0 0 0 2.051781,2.05178 2.0515821,2.0515821 0 0 0 2.051779,-2.051779 z m -7.22169,-20.630947 a 4.9987969,4.9987969 0 0 0 -4.998752,-4.99875 4.9987969,4.9987969 0 0 0 -4.998749,4.998751 4.9987969,4.9987969 0 0 0 4.998749,4.998749 4.9987969,4.9987969 0 0 0 4.998752,-4.99875 z m -10e-7,10.168661 a 4.9987969,4.9987969 0 0 0 -4.998751,-4.99875 4.9987969,4.9987969 0 0 0 -4.99875,4.99875 4.9987969,4.9987969 0 0 0 4.99875,4.998751 4.9987969,4.9987969 0 0 0 4.998751,-4.998751 z m -1.683677,10.462285 a 3.3146741,3.3146741 0 0 0 -3.315074,-3.315074 3.3146741,3.3146741 0 0 0 -3.314357,3.315073 3.3146741,3.3146741 0 0 0 3.314357,3.314359 3.3146741,3.3146741 0 0 0 3.315074,-3.314358 z m -0.505604,-30.799608 a 2.8094373,2.8094373 0 0 0 -2.809469,-2.809468 2.8094373,2.8094373 0 0 0 -2.809469,2.809469 2.8094373,2.8094373 0 0 0 2.809468,2.80947 2.8094373,2.8094373 0 0 0 2.80947,-2.809471 z" />
        </g>
      </g>
    </g>
  </g>
</svg>
