<?xml version="1.0" encoding="UTF-8" standalone="no"?>
<!-- Created with Inkscape (http://www.inkscape.org/) -->

<svg
   width="4in"
   height="4in"
   viewBox="0 0 101.59999 101.60001"
   version="1.1"
   id="svg1"
   xmlns="http://www.w3.org/2000/svg"
   xmlns:svg="http://www.w3.org/2000/svg">
  <defs
     id="defs1" />
  <g
     id="layer1">
    <g
       id="g743"
       transform="matrix(0.97591034,0.56344209,-0.56344209,0.97591034,25.725929,-26.014003)"
       style="display:inline;opacity:1;mix-blend-mode:luminosity">
      <path
         d="M 30.886802,25.312755 A 19.405352,19.405352 0 0 0 21.183627,42.118305 19.405352,19.405352 0 0 0 31.659082,59.347081 19.405352,19.405352 0 0 1 41.869899,45.311439 19.405352,19.405352 0 0 1 41.605096,42.118513 19.405352,19.405352 0 0 1 50.799657,25.616535 19.405352,19.405352 0 0 0 40.589185,22.712883 19.405352,19.405352 0 0 0 30.886802,25.312755 Z"
         style="mix-blend-mode:normal;fill:#1c1c1c;fill-opacity:1;stroke:#000000;stroke-width:2.032;stroke-linecap:round;stroke-linejoin:round;paint-order:stroke markers fill"
         id="path737" />
      <path
         d="m 50.799657,25.616535 a 19.405352,19.405352 0 0 0 -9.194561,16.501978 19.405352,19.405352 0 0 0 0.264803,3.192926 19.405352,19.405352 0 0 1 8.930123,-2.177161 19.405352,19.405352 0 0 1 8.929966,2.176782 19.405352,19.405352 0 0 0 0.264618,-3.192619 19.405352,19.405352 0 0 0 -9.194949,-16.501906 z"
         style="mix-blend-mode:difference;fill:#b3b3b3;fill-opacity:1;stroke:#000000;stroke-width:2.032;stroke-linecap:round;stroke-linejoin:round;paint-order:stroke markers fill"
         id="path738" />
      <path
         d="M 50.799657,25.616535 A 19.405352,19.405352 0 0 1 59.994606,42.118441 19.405352,19.405352 0 0 1 59.729988,45.31106 19.405352,19.405352 0 0 1 69.94064,59.34691 19.405352,19.405352 0 0 0 80.416075,42.118649 19.405352,19.405352 0 0 0 61.010654,22.713091 19.405352,19.405352 0 0 0 50.799657,25.616535 Z"
         style="mix-blend-mode:difference;fill:#979797;fill-opacity:1;stroke:#000000;stroke-width:2.032;stroke-linecap:round;stroke-linejoin:round;paint-order:stroke markers fill"
         id="path739" />
      <path
         d="M 59.729988,45.31106 A 19.405352,19.405352 0 0 1 50.800046,58.620419 19.405352,19.405352 0 0 0 61.010518,61.52407 19.405352,19.405352 0 0 0 69.94064,59.34691 19.405352,19.405352 0 0 0 59.729988,45.31106 Z"
         style="mix-blend-mode:difference;fill:#e3e3e3;fill-opacity:1;stroke:#000000;stroke-width:2.032;stroke-linecap:round;stroke-linejoin:round;paint-order:stroke markers fill"
         id="path740" />
      <path
         d="m 50.800046,58.620419 a 19.405352,19.405352 0 0 1 -8.930147,-13.30898 19.405352,19.405352 0 0 0 -10.210817,14.035642 19.405352,19.405352 0 0 0 8.929966,2.176782 19.405352,19.405352 0 0 0 10.210998,-2.903444 z"
         style="mix-blend-mode:difference;fill:#686868;fill-opacity:1;stroke:#000000;stroke-width:2.032;stroke-linecap:round;stroke-linejoin:round;paint-order:stroke markers fill"
         id="path741" />
      <path
         d="m 59.729988,45.31106 a 19.405352,19.405352 0 0 0 -8.929966,-2.176782 19.405352,19.405352 0 0 0 -8.930123,2.177161 19.405352,19.405352 0 0 0 8.930147,13.30898 19.405352,19.405352 0 0 0 8.929942,-13.309359 z"
         style="mix-blend-mode:difference;fill:#ffffff;fill-opacity:1;stroke:#000000;stroke-width:2.032;stroke-linecap:round;stroke-linejoin:round;paint-order:stroke markers fill"
         id="path742" />
      <path
         d="M 50.800046,58.620419 A 19.405352,19.405352 0 0 1 40.589048,61.523863 19.405352,19.405352 0 0 1 31.659082,59.347081 19.405352,19.405352 0 0 0 31.394464,62.539699 19.405352,19.405352 0 0 0 50.799885,81.945257 19.405352,19.405352 0 0 0 70.205443,62.539835 19.405352,19.405352 0 0 0 69.94064,59.34691 19.405352,19.405352 0 0 1 61.010518,61.52407 19.405352,19.405352 0 0 1 50.800046,58.620419 Z"
         style="mix-blend-mode:difference;fill:#4c4c4c;fill-opacity:1;stroke:#000000;stroke-width:2.032;stroke-linecap:round;stroke-linejoin:round;paint-order:stroke markers fill"
         id="path743" />
    </g>
  </g>
</svg>
