<?xml version="1.0" encoding="UTF-8" standalone="no"?>
<svg
   width="384"
   height="384"
   viewBox="0 0 384 384"
   style="isolation:isolate"
   version="1.1"
   id="svg1"
   sodipodi:docname="ValueToOneInk.svg"
   inkscape:version="1.4.4 (dcaf3e7d9e, 2026-05-05)"
   xmlns:inkscape="http://www.inkscape.org/namespaces/inkscape"
   xmlns:sodipodi="http://sodipodi.sourceforge.net/DTD/sodipodi-0.dtd"
   xmlns="http://www.w3.org/2000/svg"
   xmlns:svg="http://www.w3.org/2000/svg">
  <defs
     id="defs1" />
  <sodipodi:namedview
     id="namedview1"
     pagecolor="#ffffff"
     bordercolor="#000000"
     borderopacity="0.25"
     inkscape:showpageshadow="2"
     inkscape:pageopacity="0.0"
     inkscape:pagecheckerboard="0"
     inkscape:deskcolor="#d1d1d1"
     inkscape:zoom="2.0052083"
     inkscape:cx="192"
     inkscape:cy="192"
     inkscape:window-width="1920"
     inkscape:window-height="1011"
     inkscape:window-x="0"
     inkscape:window-y="0"
     inkscape:window-maximized="1"
     inkscape:current-layer="svg1" />
  <title
     id="title1">Toniator — ColorSource.svg</title>
  <desc
     id="desc1">Editable CMYK halftone generated by Toniator</desc>
  <g
     id="toniator-cyan"
     inkscape:groupmode="layer"
     inkscape:label="Cyan"
     fill="#00aeef"
     opacity="1"
     style="mix-blend-mode:multiply" />
  <g
     id="toniator-magenta"
     inkscape:groupmode="layer"
     inkscape:label="Magenta"
     fill="#ec008c"
     opacity="1"
     style="mix-blend-mode:multiply" />
  <g
     id="toniator-yellow"
     inkscape:groupmode="layer"
     inkscape:label="Yellow"
     fill="#ffd400"
     opacity="1"
     style="mix-blend-mode:multiply" />
  <g
     id="toniator-black"
     inkscape:groupmode="layer"
     inkscape:label="Black"
     fill="#111111"
     opacity="1"
     style="mix-blend-mode:multiply">
    <path
       id="black-mark-0"
       d="M 289.75 88.328 C 293.019 88.328 295.672 90.981 295.672 94.25 C 295.672 97.518 293.019 100.171 289.75 100.171 C 286.482 100.171 283.829 97.518 283.829 94.25 C 283.829 90.981 286.482 88.328 289.75 88.328 Z" />
    <path
       id="black-mark-1"
       d="M 322.334 121.097 C 325.5 121.097 328.07 123.667 328.07 126.833 C 328.07 129.999 325.5 132.569 322.334 132.569 C 319.168 132.569 316.598 129.999 316.598 126.833 C 316.598 123.667 319.168 121.097 322.334 121.097 Z" />
    <path
       id="black-mark-2"
       d="M 268.028 89.221 C 270.804 89.221 273.057 91.474 273.057 94.25 C 273.057 97.025 270.804 99.278 268.028 99.278 C 265.252 99.278 262.999 97.025 262.999 94.25 C 262.999 91.474 265.252 89.221 268.028 89.221 Z" />
    <path
       id="black-mark-3"
       d="M 278.889 99.189 C 282.158 99.189 284.811 101.842 284.811 105.111 C 284.811 108.379 282.158 111.032 278.889 111.032 C 275.621 111.032 272.968 108.379 272.968 105.111 C 272.968 101.842 275.621 99.189 278.889 99.189 Z" />
    <path
       id="black-mark-4"
       d="M 289.75 111.903 C 291.996 111.903 293.819 113.726 293.819 115.972 C 293.819 118.218 291.996 120.041 289.75 120.041 C 287.505 120.041 285.682 118.218 285.682 115.972 C 285.682 113.726 287.505 111.903 289.75 111.903 Z" />
    <path
       id="black-mark-5"
       d="M 300.612 122.899 C 302.783 122.899 304.546 124.662 304.546 126.833 C 304.546 129.005 302.783 130.767 300.612 130.767 C 298.44 130.767 296.678 129.005 296.678 126.833 C 296.678 124.662 298.44 122.899 300.612 122.899 Z" />
    <path
       id="black-mark-6"
       d="M 311.473 131.958 C 314.639 131.958 317.209 134.528 317.209 137.694 C 317.209 140.861 314.639 143.43 311.473 143.43 C 308.306 143.43 305.737 140.861 305.737 137.694 C 305.737 134.528 308.306 131.958 311.473 131.958 Z" />
    <path
       id="black-mark-7"
       d="M 322.334 143.931 C 324.887 143.931 326.958 146.003 326.958 148.555 C 326.958 151.108 324.887 153.18 322.334 153.18 C 319.781 153.18 317.709 151.108 317.709 148.555 C 317.709 146.003 319.781 143.931 322.334 143.931 Z" />
    <path
       id="black-mark-8"
       d="M 333.195 153.411 C 336.51 153.411 339.201 156.101 339.201 159.417 C 339.201 162.732 336.51 165.422 333.195 165.422 C 329.88 165.422 327.189 162.732 327.189 159.417 C 327.189 156.101 329.88 153.411 333.195 153.411 Z" />
    <path
       id="black-mark-9"
       d="M 202.861 44.799 C 206.176 44.799 208.867 47.49 208.867 50.805 C 208.867 54.12 206.176 56.811 202.861 56.811 C 199.546 56.811 196.855 54.12 196.855 50.805 C 196.855 47.49 199.546 44.799 202.861 44.799 Z" />
    <path
       id="black-mark-10"
       d="M 213.722 55.835 C 216.941 55.835 219.553 58.448 219.553 61.666 C 219.553 64.885 216.941 67.497 213.722 67.497 C 210.504 67.497 207.892 64.885 207.892 61.666 C 207.892 58.448 210.504 55.835 213.722 55.835 Z" />
    <path
       id="black-mark-11"
       d="M 224.583 66.562 C 227.876 66.562 230.548 69.235 230.548 72.527 C 230.548 75.82 227.876 78.492 224.583 78.492 C 221.291 78.492 218.619 75.82 218.619 72.527 C 218.619 69.235 221.291 66.562 224.583 66.562 Z" />
    <path
       id="black-mark-12"
       d="M 235.445 77.406 C 238.747 77.406 241.427 80.086 241.427 83.388 C 241.427 86.69 238.747 89.37 235.445 89.37 C 232.143 89.37 229.463 86.69 229.463 83.388 C 229.463 80.086 232.143 77.406 235.445 77.406 Z" />
    <path
       id="black-mark-13"
       d="M 246.306 90.08 C 248.607 90.08 250.476 91.948 250.476 94.25 C 250.476 96.551 248.607 98.419 246.306 98.419 C 244.004 98.419 242.136 96.551 242.136 94.25 C 242.136 91.948 244.004 90.08 246.306 90.08 Z" />
    <path
       id="black-mark-14"
       d="M 257.167 100.941 C 259.469 100.941 261.337 102.809 261.337 105.111 C 261.337 107.412 259.469 109.28 257.167 109.28 C 254.865 109.28 252.997 107.412 252.997 105.111 C 252.997 102.809 254.865 100.941 257.167 100.941 Z" />
    <path
       id="black-mark-15"
       d="M 268.028 113.167 C 269.577 113.167 270.833 114.423 270.833 115.972 C 270.833 117.52 269.577 118.777 268.028 118.777 C 266.48 118.777 265.223 117.52 265.223 115.972 C 265.223 114.423 266.48 113.167 268.028 113.167 Z" />
    <path
       id="black-mark-16"
       d="M 278.889 124.55 C 280.15 124.55 281.172 125.573 281.172 126.833 C 281.172 128.093 280.15 129.116 278.889 129.116 C 277.629 129.116 276.606 128.093 276.606 126.833 C 276.606 125.573 277.629 124.55 278.889 124.55 Z" />
    <path
       id="black-mark-17"
       d="M 289.75 135.411 C 291.011 135.411 292.034 136.434 292.034 137.694 C 292.034 138.954 291.011 139.977 289.75 139.977 C 288.49 139.977 287.467 138.954 287.467 137.694 C 287.467 136.434 288.49 135.411 289.75 135.411 Z" />
    <path
       id="black-mark-18"
       d="M 300.612 146.003 C 302.021 146.003 303.164 147.146 303.164 148.555 C 303.164 149.964 302.021 151.108 300.612 151.108 C 299.203 151.108 298.059 149.964 298.059 148.555 C 298.059 147.146 299.203 146.003 300.612 146.003 Z" />
    <path
       id="black-mark-19"
       d="M 311.473 155.685 C 313.533 155.685 315.205 157.357 315.205 159.417 C 315.205 161.476 313.533 163.148 311.473 163.148 C 309.413 163.148 307.741 161.476 307.741 159.417 C 307.741 157.357 309.413 155.685 311.473 155.685 Z" />
    <path
       id="black-mark-20"
       d="M 322.334 167.085 C 324.096 167.085 325.527 168.515 325.527 170.278 C 325.527 172.04 324.096 173.47 322.334 173.47 C 320.572 173.47 319.141 172.04 319.141 170.278 C 319.141 168.515 320.572 167.085 322.334 167.085 Z" />
    <path
       id="black-mark-21"
       d="M 333.195 175.15 C 336.501 175.15 339.184 177.833 339.184 181.139 C 339.184 184.445 336.501 187.128 333.195 187.128 C 329.889 187.128 327.206 184.445 327.206 181.139 C 327.206 177.833 329.889 175.15 333.195 175.15 Z" />
    <path
       id="black-mark-22"
       d="M 181.139 44.947 C 184.372 44.947 186.997 47.571 186.997 50.805 C 186.997 54.038 184.372 56.663 181.139 56.663 C 177.905 56.663 175.281 54.038 175.281 50.805 C 175.281 47.571 177.905 44.947 181.139 44.947 Z" />
    <path
       id="black-mark-23"
       d="M 192 55.96 C 195.15 55.96 197.706 58.516 197.706 61.666 C 197.706 64.816 195.15 67.373 192 67.373 C 188.85 67.373 186.294 64.816 186.294 61.666 C 186.294 58.516 188.85 55.96 192 55.96 Z" />
    <path
       id="black-mark-24"
       d="M 202.861 66.697 C 206.08 66.697 208.692 69.309 208.692 72.527 C 208.692 75.746 206.08 78.358 202.861 78.358 C 199.643 78.358 197.031 75.746 197.031 72.527 C 197.031 69.309 199.643 66.697 202.861 66.697 Z" />
    <path
       id="black-mark-25"
       d="M 213.722 77.745 C 216.838 77.745 219.366 80.273 219.366 83.388 C 219.366 86.504 216.838 89.032 213.722 89.032 C 210.607 89.032 208.079 86.504 208.079 83.388 C 208.079 80.273 210.607 77.745 213.722 77.745 Z" />
    <path
       id="black-mark-26"
       d="M 224.583 89.63 C 227.134 89.63 229.203 91.7 229.203 94.25 C 229.203 96.8 227.134 98.869 224.583 98.869 C 222.033 98.869 219.964 96.8 219.964 94.25 C 219.964 91.7 222.033 89.63 224.583 89.63 Z" />
    <path
       id="black-mark-27"
       d="M 235.445 101.118 C 237.648 101.118 239.437 102.907 239.437 105.111 C 239.437 107.314 237.648 109.103 235.445 109.103 C 233.241 109.103 231.452 107.314 231.452 105.111 C 231.452 102.907 233.241 101.118 235.445 101.118 Z" />
    <path
       id="black-mark-28"
       d="M 246.306 113.84 C 247.482 113.84 248.437 114.795 248.437 115.972 C 248.437 117.148 247.482 118.103 246.306 118.103 C 245.129 118.103 244.174 117.148 244.174 115.972 C 244.174 114.795 245.129 113.84 246.306 113.84 Z" />
    <path
       id="black-mark-29"
       d="M 257.167 125.124 C 258.11 125.124 258.876 125.89 258.876 126.833 C 258.876 127.776 258.11 128.542 257.167 128.542 C 256.224 128.542 255.458 127.776 255.458 126.833 C 255.458 125.89 256.224 125.124 257.167 125.124 Z" />
    <path
       id="black-mark-30"
       d="M 268.028 135.967 C 268.982 135.967 269.755 136.741 269.755 137.694 C 269.755 138.648 268.982 139.421 268.028 139.421 C 267.075 139.421 266.301 138.648 266.301 137.694 C 266.301 136.741 267.075 135.967 268.028 135.967 Z" />
    <path
       id="black-mark-31"
       d="M 278.889 146.845 C 279.833 146.845 280.6 147.611 280.6 148.555 C 280.6 149.5 279.833 150.266 278.889 150.266 C 277.945 150.266 277.179 149.5 277.179 148.555 C 277.179 147.611 277.945 146.845 278.889 146.845 Z" />
    <path
       id="black-mark-32"
       d="M 289.75 157.706 C 290.695 157.706 291.461 158.472 291.461 159.417 C 291.461 160.361 290.695 161.127 289.75 161.127 C 288.806 161.127 288.04 160.361 288.04 159.417 C 288.04 158.472 288.806 157.706 289.75 157.706 Z" />
    <path
       id="black-mark-33"
       d="M 300.612 168.55 C 301.565 168.55 302.339 169.324 302.339 170.278 C 302.339 171.231 301.565 172.005 300.612 172.005 C 299.658 172.005 298.884 171.231 298.884 170.278 C 298.884 169.324 299.658 168.55 300.612 168.55 Z" />
    <path
       id="black-mark-34"
       d="M 311.473 177.946 C 313.235 177.946 314.665 179.376 314.665 181.139 C 314.665 182.901 313.235 184.332 311.473 184.332 C 309.71 184.332 308.28 182.901 308.28 181.139 C 308.28 179.376 309.71 177.946 311.473 177.946 Z" />
    <path
       id="black-mark-35"
       d="M 322.334 188.891 C 324.05 188.891 325.442 190.284 325.442 192 C 325.442 193.716 324.05 195.109 322.334 195.109 C 320.618 195.109 319.225 193.716 319.225 192 C 319.225 190.284 320.618 188.891 322.334 188.891 Z" />
    <path
       id="black-mark-36"
       d="M 333.195 196.855 C 336.51 196.855 339.201 199.546 339.201 202.861 C 339.201 206.176 336.51 208.867 333.195 208.867 C 329.88 208.867 327.189 206.176 327.189 202.861 C 327.189 199.546 329.88 196.855 333.195 196.855 Z" />
    <path
       id="black-mark-37"
       d="M 159.417 44.985 C 162.629 44.985 165.237 47.592 165.237 50.805 C 165.237 54.018 162.629 56.625 159.417 56.625 C 156.204 56.625 153.596 54.018 153.596 50.805 C 153.596 47.592 156.204 44.985 159.417 44.985 Z" />
    <path
       id="black-mark-38"
       d="M 170.278 56.031 C 173.388 56.031 175.913 58.556 175.913 61.666 C 175.913 64.777 173.388 67.301 170.278 67.301 C 167.167 67.301 164.643 64.777 164.643 61.666 C 164.643 58.556 167.167 56.031 170.278 56.031 Z" />
    <path
       id="black-mark-39"
       d="M 181.139 66.892 C 184.249 66.892 186.774 69.417 186.774 72.527 C 186.774 75.638 184.249 78.162 181.139 78.162 C 178.028 78.162 175.504 75.638 175.504 72.527 C 175.504 69.417 178.028 66.892 181.139 66.892 Z" />
    <path
       id="black-mark-40"
       d="M 192 77.813 C 195.078 77.813 197.576 80.311 197.576 83.388 C 197.576 86.466 195.078 88.964 192 88.964 C 188.922 88.964 186.424 86.466 186.424 83.388 C 186.424 80.311 188.922 77.813 192 77.813 Z" />
    <path
       id="black-mark-41"
       d="M 202.861 89.131 C 205.687 89.131 207.98 91.424 207.98 94.25 C 207.98 97.075 205.687 99.369 202.861 99.369 C 200.035 99.369 197.742 97.075 197.742 94.25 C 197.742 91.424 200.035 89.131 202.861 89.131 Z" />
    <path
       id="black-mark-42"
       d="M 213.722 99.992 C 216.548 99.992 218.841 102.285 218.841 105.111 C 218.841 107.936 216.548 110.23 213.722 110.23 C 210.897 110.23 208.603 107.936 208.603 105.111 C 208.603 102.285 210.897 99.992 213.722 99.992 Z" />
    <path
       id="black-mark-43"
       d="M 224.583 114.427 C 225.436 114.427 226.128 115.119 226.128 115.972 C 226.128 116.825 225.436 117.517 224.583 117.517 C 223.731 117.517 223.039 116.825 223.039 115.972 C 223.039 115.119 223.731 114.427 224.583 114.427 Z" />
    <path
       id="black-mark-44"
       d="M 235.445 125.354 C 236.261 125.354 236.924 126.017 236.924 126.833 C 236.924 127.65 236.261 128.312 235.445 128.312 C 234.628 128.312 233.965 127.65 233.965 126.833 C 233.965 126.017 234.628 125.354 235.445 125.354 Z" />
    <path
       id="black-mark-45"
       d="M 246.306 135.985 C 247.249 135.985 248.015 136.751 248.015 137.694 C 248.015 138.637 247.249 139.403 246.306 139.403 C 245.363 139.403 244.597 138.637 244.597 137.694 C 244.597 136.751 245.363 135.985 246.306 135.985 Z" />
    <path
       id="black-mark-46"
       d="M 257.167 146.847 C 258.11 146.847 258.876 147.612 258.876 148.555 C 258.876 149.499 258.11 150.264 257.167 150.264 C 256.224 150.264 255.458 149.499 255.458 148.555 C 255.458 147.612 256.224 146.847 257.167 146.847 Z" />
    <path
       id="black-mark-47"
       d="M 268.028 157.706 C 268.972 157.706 269.739 158.472 269.739 159.417 C 269.739 160.361 268.972 161.127 268.028 161.127 C 267.084 161.127 266.318 160.361 266.318 159.417 C 266.318 158.472 267.084 157.706 268.028 157.706 Z" />
    <path
       id="black-mark-48"
       d="M 278.889 168.567 C 279.833 168.567 280.6 169.334 280.6 170.278 C 280.6 171.222 279.833 171.988 278.889 171.988 C 277.945 171.988 277.179 171.222 277.179 170.278 C 277.179 169.334 277.945 168.567 278.889 168.567 Z" />
    <path
       id="black-mark-49"
       d="M 289.75 179.428 C 290.695 179.428 291.461 180.195 291.461 181.139 C 291.461 182.083 290.695 182.849 289.75 182.849 C 288.806 182.849 288.04 182.083 288.04 181.139 C 288.04 180.195 288.806 179.428 289.75 179.428 Z" />
    <path
       id="black-mark-50"
       d="M 300.612 190.29 C 301.556 190.29 302.322 191.056 302.322 192 C 302.322 192.944 301.556 193.71 300.612 193.71 C 299.667 193.71 298.901 192.944 298.901 192 C 298.901 191.056 299.667 190.29 300.612 190.29 Z" />
    <path
       id="black-mark-51"
       d="M 311.473 199.348 C 313.412 199.348 314.986 200.922 314.986 202.861 C 314.986 204.8 313.412 206.374 311.473 206.374 C 309.534 206.374 307.96 204.8 307.96 202.861 C 307.96 200.922 309.534 199.348 311.473 199.348 Z" />
    <path
       id="black-mark-52"
       d="M 322.334 210.21 C 324.273 210.21 325.847 211.783 325.847 213.722 C 325.847 215.661 324.273 217.235 322.334 217.235 C 320.395 217.235 318.821 215.661 318.821 213.722 C 318.821 211.783 320.395 210.21 322.334 210.21 Z" />
    <path
       id="black-mark-53"
       d="M 137.694 44.911 C 140.947 44.911 143.588 47.552 143.588 50.805 C 143.588 54.058 140.947 56.698 137.694 56.698 C 134.441 56.698 131.801 54.058 131.801 50.805 C 131.801 47.552 134.441 44.911 137.694 44.911 Z" />
    <path
       id="black-mark-54"
       d="M 148.555 56.046 C 151.657 56.046 154.175 58.564 154.175 61.666 C 154.175 64.768 151.657 67.286 148.555 67.286 C 145.453 67.286 142.936 64.768 142.936 61.666 C 142.936 58.564 145.453 56.046 148.555 56.046 Z" />
    <path
       id="black-mark-55"
       d="M 159.417 66.914 C 162.515 66.914 165.029 69.429 165.029 72.527 C 165.029 75.626 162.515 78.14 159.417 78.14 C 156.318 78.14 153.804 75.626 153.804 72.527 C 153.804 69.429 156.318 66.914 159.417 66.914 Z" />
    <path
       id="black-mark-56"
       d="M 170.278 77.816 C 173.354 77.816 175.85 80.313 175.85 83.388 C 175.85 86.464 173.354 88.961 170.278 88.961 C 167.202 88.961 164.706 86.464 164.706 83.388 C 164.706 80.313 167.202 77.816 170.278 77.816 Z" />
    <path
       id="black-mark-57"
       d="M 181.139 88.677 C 184.215 88.677 186.711 91.174 186.711 94.25 C 186.711 97.325 184.215 99.822 181.139 99.822 C 178.063 99.822 175.567 97.325 175.567 94.25 C 175.567 91.174 178.063 88.677 181.139 88.677 Z" />
    <path
       id="black-mark-58"
       d="M 192 99.589 C 195.048 99.589 197.522 102.063 197.522 105.111 C 197.522 108.159 195.048 110.632 192 110.632 C 188.952 110.632 186.478 108.159 186.478 105.111 C 186.478 102.063 188.952 99.589 192 99.589 Z" />
    <path
       id="black-mark-59"
       d="M 202.861 113.971 C 203.966 113.971 204.862 114.867 204.862 115.972 C 204.862 117.076 203.966 117.973 202.861 117.973 C 201.757 117.973 200.86 117.076 200.86 115.972 C 200.86 114.867 201.757 113.971 202.861 113.971 Z" />
    <path
       id="black-mark-60"
       d="M 213.722 125.556 C 214.427 125.556 214.999 126.128 214.999 126.833 C 214.999 127.538 214.427 128.11 213.722 128.11 C 213.018 128.11 212.445 127.538 212.445 126.833 C 212.445 126.128 213.018 125.556 213.722 125.556 Z" />
    <path
       id="black-mark-61"
       d="M 224.583 136.417 C 225.288 136.417 225.86 136.989 225.86 137.694 C 225.86 138.399 225.288 138.971 224.583 138.971 C 223.879 138.971 223.307 138.399 223.307 137.694 C 223.307 136.989 223.879 136.417 224.583 136.417 Z" />
    <path
       id="black-mark-62"
       d="M 235.445 147.103 C 236.246 147.103 236.897 147.754 236.897 148.555 C 236.897 149.357 236.246 150.007 235.445 150.007 C 234.643 150.007 233.993 149.357 233.993 148.555 C 233.993 147.754 234.643 147.103 235.445 147.103 Z" />
    <path
       id="black-mark-63"
       d="M 246.306 157.706 C 247.25 157.706 248.016 158.472 248.016 159.417 C 248.016 160.361 247.25 161.127 246.306 161.127 C 245.362 161.127 244.595 160.361 244.595 159.417 C 244.595 158.472 245.362 157.706 246.306 157.706 Z" />
    <path
       id="black-mark-64"
       d="M 257.167 168.567 C 258.111 168.567 258.877 169.334 258.877 170.278 C 258.877 171.222 258.111 171.988 257.167 171.988 C 256.223 171.988 255.457 171.222 255.457 170.278 C 255.457 169.334 256.223 168.567 257.167 168.567 Z" />
    <path
       id="black-mark-65"
       d="M 268.028 179.428 C 268.972 179.428 269.739 180.195 269.739 181.139 C 269.739 182.083 268.972 182.849 268.028 182.849 C 267.084 182.849 266.318 182.083 266.318 181.139 C 266.318 180.195 267.084 179.428 268.028 179.428 Z" />
    <path
       id="black-mark-66"
       d="M 278.889 190.29 C 279.833 190.29 280.6 191.056 280.6 192 C 280.6 192.944 279.833 193.71 278.889 193.71 C 277.945 193.71 277.179 192.944 277.179 192 C 277.179 191.056 277.945 190.29 278.889 190.29 Z" />
    <path
       id="black-mark-67"
       d="M 289.75 201.151 C 290.695 201.151 291.461 201.917 291.461 202.861 C 291.461 203.805 290.695 204.572 289.75 204.572 C 288.806 204.572 288.04 203.805 288.04 202.861 C 288.04 201.917 288.806 201.151 289.75 201.151 Z" />
    <path
       id="black-mark-68"
       d="M 300.612 211.928 C 301.602 211.928 302.406 212.732 302.406 213.722 C 302.406 214.713 301.602 215.517 300.612 215.517 C 299.621 215.517 298.817 214.713 298.817 213.722 C 298.817 212.732 299.621 211.928 300.612 211.928 Z" />
    <path
       id="black-mark-69"
       d="M 311.473 220.313 C 313.83 220.313 315.744 222.226 315.744 224.583 C 315.744 226.941 313.83 228.854 311.473 228.854 C 309.115 228.854 307.202 226.941 307.202 224.583 C 307.202 222.226 309.115 220.313 311.473 220.313 Z" />
    <path
       id="black-mark-70"
       d="M 322.334 230.079 C 325.296 230.079 327.7 232.483 327.7 235.445 C 327.7 238.406 325.296 240.81 322.334 240.81 C 319.372 240.81 316.968 238.406 316.968 235.445 C 316.968 232.483 319.372 230.079 322.334 230.079 Z" />
    <path
       id="black-mark-71"
       d="M 115.972 44.823 C 119.274 44.823 121.954 47.503 121.954 50.805 C 121.954 54.107 119.274 56.787 115.972 56.787 C 112.67 56.787 109.99 54.107 109.99 50.805 C 109.99 47.503 112.67 44.823 115.972 44.823 Z" />
    <path
       id="black-mark-72"
       d="M 126.833 56.006 C 129.958 56.006 132.494 58.541 132.494 61.666 C 132.494 64.791 129.958 67.327 126.833 67.327 C 123.708 67.327 121.172 64.791 121.172 61.666 C 121.172 58.541 123.708 56.006 126.833 56.006 Z" />
    <path
       id="black-mark-73"
       d="M 137.694 66.867 C 140.819 66.867 143.355 69.403 143.355 72.527 C 143.355 75.652 140.819 78.188 137.694 78.188 C 134.57 78.188 132.034 75.652 132.034 72.527 C 132.034 69.403 134.57 66.867 137.694 66.867 Z" />
    <path
       id="black-mark-74"
       d="M 148.555 77.816 C 151.631 77.816 154.128 80.313 154.128 83.388 C 154.128 86.464 151.631 88.961 148.555 88.961 C 145.48 88.961 142.983 86.464 142.983 83.388 C 142.983 80.313 145.48 77.816 148.555 77.816 Z" />
    <path
       id="black-mark-75"
       d="M 159.417 88.677 C 162.492 88.677 164.989 91.174 164.989 94.25 C 164.989 97.325 162.492 99.822 159.417 99.822 C 156.341 99.822 153.844 97.325 153.844 94.25 C 153.844 91.174 156.341 88.677 159.417 88.677 Z" />
    <path
       id="black-mark-76"
       d="M 170.278 99.539 C 173.354 99.539 175.85 102.035 175.85 105.111 C 175.85 108.187 173.354 110.683 170.278 110.683 C 167.202 110.683 164.706 108.187 164.706 105.111 C 164.706 102.035 167.202 99.539 170.278 99.539 Z" />
    <path
       id="black-mark-77"
       d="M 181.139 110.804 C 183.992 110.804 186.307 113.119 186.307 115.972 C 186.307 118.825 183.992 121.14 181.139 121.14 C 178.286 121.14 175.971 118.825 175.971 115.972 C 175.971 113.119 178.286 110.804 181.139 110.804 Z" />
    <path
       id="black-mark-78"
       d="M 192 125.489 C 192.742 125.489 193.344 126.091 193.344 126.833 C 193.344 127.575 192.742 128.177 192 128.177 C 191.258 128.177 190.656 127.575 190.656 126.833 C 190.656 126.091 191.258 125.489 192 125.489 Z" />
    <path
       id="black-mark-79"
       d="M 202.861 136.417 C 203.566 136.417 204.138 136.989 204.138 137.694 C 204.138 138.399 203.566 138.971 202.861 138.971 C 202.156 138.971 201.584 138.399 201.584 137.694 C 201.584 136.989 202.156 136.417 202.861 136.417 Z" />
    <path
       id="black-mark-80"
       d="M 213.722 147.279 C 214.427 147.279 214.999 147.851 214.999 148.555 C 214.999 149.26 214.427 149.832 213.722 149.832 C 213.018 149.832 212.445 149.26 212.445 148.555 C 212.445 147.851 213.018 147.279 213.722 147.279 Z" />
    <path
       id="black-mark-81"
       d="M 224.583 158.138 C 225.289 158.138 225.862 158.711 225.862 159.417 C 225.862 160.122 225.289 160.695 224.583 160.695 C 223.878 160.695 223.305 160.122 223.305 159.417 C 223.305 158.711 223.878 158.138 224.583 158.138 Z" />
    <path
       id="black-mark-82"
       d="M 235.445 168.664 C 236.335 168.664 237.058 169.387 237.058 170.278 C 237.058 171.168 236.335 171.891 235.445 171.891 C 234.554 171.891 233.831 171.168 233.831 170.278 C 233.831 169.387 234.554 168.664 235.445 168.664 Z" />
    <path
       id="black-mark-83"
       d="M 246.306 179.428 C 247.25 179.428 248.016 180.195 248.016 181.139 C 248.016 182.083 247.25 182.849 246.306 182.849 C 245.362 182.849 244.595 182.083 244.595 181.139 C 244.595 180.195 245.362 179.428 246.306 179.428 Z" />
    <path
       id="black-mark-84"
       d="M 257.167 190.29 C 258.111 190.29 258.877 191.056 258.877 192 C 258.877 192.944 258.111 193.71 257.167 193.71 C 256.223 193.71 255.457 192.944 255.457 192 C 255.457 191.056 256.223 190.29 257.167 190.29 Z" />
    <path
       id="black-mark-85"
       d="M 268.028 201.151 C 268.972 201.151 269.739 201.917 269.739 202.861 C 269.739 203.805 268.972 204.572 268.028 204.572 C 267.084 204.572 266.318 203.805 266.318 202.861 C 266.318 201.917 267.084 201.151 268.028 201.151 Z" />
    <path
       id="black-mark-86"
       d="M 278.889 212.012 C 279.833 212.012 280.6 212.778 280.6 213.722 C 280.6 214.666 279.833 215.433 278.889 215.433 C 277.945 215.433 277.179 214.666 277.179 213.722 C 277.179 212.778 277.945 212.012 278.889 212.012 Z" />
    <path
       id="black-mark-87"
       d="M 289.75 222.873 C 290.695 222.873 291.461 223.639 291.461 224.583 C 291.461 225.528 290.695 226.294 289.75 226.294 C 288.806 226.294 288.04 225.528 288.04 224.583 C 288.04 223.639 288.806 222.873 289.75 222.873 Z" />
    <path
       id="black-mark-88"
       d="M 300.612 232.033 C 302.495 232.033 304.023 233.561 304.023 235.445 C 304.023 237.328 302.495 238.856 300.612 238.856 C 298.728 238.856 297.2 237.328 297.2 235.445 C 297.2 233.561 298.728 232.033 300.612 232.033 Z" />
    <path
       id="black-mark-89"
       d="M 105.111 55.774 C 108.363 55.774 111.003 58.414 111.003 61.666 C 111.003 64.918 108.363 67.558 105.111 67.558 C 101.858 67.558 99.219 64.918 99.219 61.666 C 99.219 58.414 101.858 55.774 105.111 55.774 Z" />
    <path
       id="black-mark-90"
       d="M 115.972 66.766 C 119.152 66.766 121.733 69.347 121.733 72.527 C 121.733 75.707 119.152 78.288 115.972 78.288 C 112.792 78.288 110.211 75.707 110.211 72.527 C 110.211 69.347 112.792 66.766 115.972 66.766 Z" />
    <path
       id="black-mark-91"
       d="M 126.833 77.816 C 129.909 77.816 132.405 80.313 132.405 83.388 C 132.405 86.464 129.909 88.961 126.833 88.961 C 123.757 88.961 121.261 86.464 121.261 83.388 C 121.261 80.313 123.757 77.816 126.833 77.816 Z" />
    <path
       id="black-mark-92"
       d="M 137.694 88.677 C 140.77 88.677 143.266 91.174 143.266 94.25 C 143.266 97.325 140.77 99.822 137.694 99.822 C 134.618 99.822 132.122 97.325 132.122 94.25 C 132.122 91.174 134.618 88.677 137.694 88.677 Z" />
    <path
       id="black-mark-93"
       d="M 148.555 99.539 C 151.631 99.539 154.128 102.035 154.128 105.111 C 154.128 108.187 151.631 110.683 148.555 110.683 C 145.48 110.683 142.983 108.187 142.983 105.111 C 142.983 102.035 145.48 99.539 148.555 99.539 Z" />
    <path
       id="black-mark-94"
       d="M 159.417 110.4 C 162.492 110.4 164.989 112.896 164.989 115.972 C 164.989 119.048 162.492 121.544 159.417 121.544 C 156.341 121.544 153.844 119.048 153.844 115.972 C 153.844 112.896 156.341 110.4 159.417 110.4 Z" />
    <path
       id="black-mark-95"
       d="M 170.278 124.175 C 171.745 124.175 172.936 125.366 172.936 126.833 C 172.936 128.3 171.745 129.491 170.278 129.491 C 168.81 129.491 167.62 128.3 167.62 126.833 C 167.62 125.366 168.81 124.175 170.278 124.175 Z" />
    <path
       id="black-mark-96"
       d="M 181.139 135.036 C 182.606 135.036 183.797 136.227 183.797 137.694 C 183.797 139.161 182.606 140.352 181.139 140.352 C 179.672 140.352 178.481 139.161 178.481 137.694 C 178.481 136.227 179.672 135.036 181.139 135.036 Z" />
    <path
       id="black-mark-97"
       d="M 192 147.279 C 192.705 147.279 193.277 147.851 193.277 148.555 C 193.277 149.26 192.705 149.832 192 149.832 C 191.295 149.832 190.723 149.26 190.723 148.555 C 190.723 147.851 191.295 147.279 192 147.279 Z" />
    <path
       id="black-mark-98"
       d="M 202.861 158.15 C 203.56 158.15 204.128 158.717 204.128 159.417 C 204.128 160.116 203.56 160.683 202.861 160.683 C 202.162 160.683 201.594 160.116 201.594 159.417 C 201.594 158.717 202.162 158.15 202.861 158.15 Z" />
    <path
       id="black-mark-99"
       d="M 213.722 169.441 C 214.184 169.441 214.559 169.816 214.559 170.278 C 214.559 170.739 214.184 171.114 213.722 171.114 C 213.261 171.114 212.886 170.739 212.886 170.278 C 212.886 169.816 213.261 169.441 213.722 169.441 Z" />
    <path
       id="black-mark-100"
       d="M 224.583 179.846 C 225.297 179.846 225.876 180.425 225.876 181.139 C 225.876 181.852 225.297 182.431 224.583 182.431 C 223.87 182.431 223.291 181.852 223.291 181.139 C 223.291 180.425 223.87 179.846 224.583 179.846 Z" />
    <path
       id="black-mark-101"
       d="M 235.445 190.301 C 236.382 190.301 237.143 191.062 237.143 192 C 237.143 192.938 236.382 193.699 235.445 193.699 C 234.507 193.699 233.746 192.938 233.746 192 C 233.746 191.062 234.507 190.301 235.445 190.301 Z" />
    <path
       id="black-mark-102"
       d="M 246.306 201.151 C 247.25 201.151 248.016 201.917 248.016 202.861 C 248.016 203.805 247.25 204.572 246.306 204.572 C 245.362 204.572 244.595 203.805 244.595 202.861 C 244.595 201.917 245.362 201.151 246.306 201.151 Z" />
    <path
       id="black-mark-103"
       d="M 257.167 212.012 C 258.111 212.012 258.877 212.778 258.877 213.722 C 258.877 214.666 258.111 215.433 257.167 215.433 C 256.223 215.433 255.457 214.666 255.457 213.722 C 255.457 212.778 256.223 212.012 257.167 212.012 Z" />
    <path
       id="black-mark-104"
       d="M 268.028 222.873 C 268.972 222.873 269.739 223.639 269.739 224.583 C 269.739 225.528 268.972 226.294 268.028 226.294 C 267.084 226.294 266.318 225.528 266.318 224.583 C 266.318 223.639 267.084 222.873 268.028 222.873 Z" />
    <path
       id="black-mark-105"
       d="M 278.889 233.515 C 279.954 233.515 280.819 234.38 280.819 235.445 C 280.819 236.51 279.954 237.374 278.889 237.374 C 277.824 237.374 276.96 236.51 276.96 235.445 C 276.96 234.38 277.824 233.515 278.889 233.515 Z" />
    <path
       id="black-mark-106"
       d="M 289.75 242.911 C 291.624 242.911 293.145 244.432 293.145 246.306 C 293.145 248.18 291.624 249.701 289.75 249.701 C 287.876 249.701 286.356 248.18 286.356 246.306 C 286.356 244.432 287.876 242.911 289.75 242.911 Z" />
    <path
       id="black-mark-107"
       d="M 300.612 252.222 C 303.341 252.222 305.556 254.438 305.556 257.167 C 305.556 259.896 303.341 262.112 300.612 262.112 C 297.882 262.112 295.667 259.896 295.667 257.167 C 295.667 254.438 297.882 252.222 300.612 252.222 Z" />
    <path
       id="black-mark-108"
       d="M 94.25 66.635 C 97.502 66.635 100.141 69.275 100.141 72.527 C 100.141 75.78 97.502 78.419 94.25 78.419 C 90.997 78.419 88.358 75.78 88.358 72.527 C 88.358 69.275 90.997 66.635 94.25 66.635 Z" />
    <path
       id="black-mark-109"
       d="M 105.111 77.677 C 108.264 77.677 110.822 80.236 110.822 83.388 C 110.822 86.541 108.264 89.1 105.111 89.1 C 101.958 89.1 99.399 86.541 99.399 83.388 C 99.399 80.236 101.958 77.677 105.111 77.677 Z" />
    <path
       id="black-mark-110"
       d="M 115.972 88.677 C 119.048 88.677 121.544 91.174 121.544 94.25 C 121.544 97.325 119.048 99.822 115.972 99.822 C 112.896 99.822 110.4 97.325 110.4 94.25 C 110.4 91.174 112.896 88.677 115.972 88.677 Z" />
    <path
       id="black-mark-111"
       d="M 126.833 99.539 C 129.909 99.539 132.405 102.035 132.405 105.111 C 132.405 108.187 129.909 110.683 126.833 110.683 C 123.757 110.683 121.261 108.187 121.261 105.111 C 121.261 102.035 123.757 99.539 126.833 99.539 Z" />
    <path
       id="black-mark-112"
       d="M 137.694 110.4 C 140.77 110.4 143.266 112.896 143.266 115.972 C 143.266 119.048 140.77 121.544 137.694 121.544 C 134.618 121.544 132.122 119.048 132.122 115.972 C 132.122 112.896 134.618 110.4 137.694 110.4 Z" />
    <path
       id="black-mark-113"
       d="M 148.555 121.261 C 151.631 121.261 154.128 123.757 154.128 126.833 C 154.128 129.909 151.631 132.405 148.555 132.405 C 145.48 132.405 142.983 129.909 142.983 126.833 C 142.983 123.757 145.48 121.261 148.555 121.261 Z" />
    <path
       id="black-mark-114"
       d="M 159.417 132.526 C 162.269 132.526 164.584 134.842 164.584 137.694 C 164.584 140.547 162.269 142.862 159.417 142.862 C 156.564 142.862 154.249 140.547 154.249 137.694 C 154.249 134.842 156.564 132.526 159.417 132.526 Z" />
    <path
       id="black-mark-115"
       d="M 170.278 147.211 C 171.02 147.211 171.622 147.813 171.622 148.555 C 171.622 149.297 171.02 149.9 170.278 149.9 C 169.536 149.9 168.933 149.297 168.933 148.555 C 168.933 147.813 169.536 147.211 170.278 147.211 Z" />
    <path
       id="black-mark-116"
       d="M 181.139 158.721 C 181.523 158.721 181.835 159.032 181.835 159.417 C 181.835 159.801 181.523 160.113 181.139 160.113 C 180.755 160.113 180.443 159.801 180.443 159.417 C 180.443 159.032 180.755 158.721 181.139 158.721 Z" />
    <path
       id="black-mark-117"
       d="M 192 170.082 C 192.108 170.082 192.195 170.17 192.195 170.278 C 192.195 170.385 192.108 170.473 192 170.473 C 191.892 170.473 191.805 170.385 191.805 170.278 C 191.805 170.17 191.892 170.082 192 170.082 Z" />
    <path
       id="black-mark-118"
       d="M 202.861 180.303 C 203.323 180.303 203.697 180.677 203.697 181.139 C 203.697 181.6 203.323 181.975 202.861 181.975 C 202.4 181.975 202.025 181.6 202.025 181.139 C 202.025 180.677 202.4 180.303 202.861 180.303 Z" />
    <path
       id="black-mark-119"
       d="M 213.722 191.871 C 213.793 191.871 213.851 191.929 213.851 192 C 213.851 192.071 213.793 192.129 213.722 192.129 C 213.651 192.129 213.594 192.071 213.594 192 C 213.594 191.929 213.651 191.871 213.722 191.871 Z" />
    <path
       id="black-mark-120"
       d="M 224.583 202.096 C 225.006 202.096 225.349 202.439 225.349 202.861 C 225.349 203.284 225.006 203.626 224.583 203.626 C 224.161 203.626 223.818 203.284 223.818 202.861 C 223.818 202.439 224.161 202.096 224.583 202.096 Z" />
    <path
       id="black-mark-121"
       d="M 235.445 212.077 C 236.353 212.077 237.09 212.814 237.09 213.722 C 237.09 214.631 236.353 215.368 235.445 215.368 C 234.536 215.368 233.799 214.631 233.799 213.722 C 233.799 212.814 234.536 212.077 235.445 212.077 Z" />
    <path
       id="black-mark-122"
       d="M 246.306 222.873 C 247.25 222.873 248.016 223.639 248.016 224.583 C 248.016 225.528 247.25 226.294 246.306 226.294 C 245.362 226.294 244.595 225.528 244.595 224.583 C 244.595 223.639 245.362 222.873 246.306 222.873 Z" />
    <path
       id="black-mark-123"
       d="M 257.167 233.734 C 258.111 233.734 258.877 234.5 258.877 235.445 C 258.877 236.389 258.111 237.155 257.167 237.155 C 256.223 237.155 255.457 236.389 255.457 235.445 C 255.457 234.5 256.223 233.734 257.167 233.734 Z" />
    <path
       id="black-mark-124"
       d="M 268.028 244.09 C 269.251 244.09 270.244 245.083 270.244 246.306 C 270.244 247.529 269.251 248.522 268.028 248.522 C 266.805 248.522 265.812 247.529 265.812 246.306 C 265.812 245.083 266.805 244.09 268.028 244.09 Z" />
    <path
       id="black-mark-125"
       d="M 278.889 253.772 C 280.763 253.772 282.284 255.293 282.284 257.167 C 282.284 259.041 280.763 260.562 278.889 260.562 C 277.015 260.562 275.494 259.041 275.494 257.167 C 275.494 255.293 277.015 253.772 278.889 253.772 Z" />
    <path
       id="black-mark-126"
       d="M 289.75 262.696 C 292.694 262.696 295.082 265.085 295.082 268.028 C 295.082 270.971 292.694 273.36 289.75 273.36 C 286.807 273.36 284.418 270.971 284.418 268.028 C 284.418 265.085 286.807 262.696 289.75 262.696 Z" />
    <path
       id="black-mark-127"
       d="M 83.388 77.5 C 86.639 77.5 89.277 80.138 89.277 83.388 C 89.277 86.639 86.639 89.277 83.388 89.277 C 80.138 89.277 77.5 86.639 77.5 83.388 C 77.5 80.138 80.138 77.5 83.388 77.5 Z" />
    <path
       id="black-mark-128"
       d="M 94.25 88.66 C 97.335 88.66 99.839 91.164 99.839 94.25 C 99.839 97.335 97.335 99.839 94.25 99.839 C 91.164 99.839 88.66 97.335 88.66 94.25 C 88.66 91.164 91.164 88.66 94.25 88.66 Z" />
    <path
       id="black-mark-129"
       d="M 105.111 99.522 C 108.196 99.522 110.7 102.026 110.7 105.111 C 110.7 108.196 108.196 110.7 105.111 110.7 C 102.026 110.7 99.522 108.196 99.522 105.111 C 99.522 102.026 102.026 99.522 105.111 99.522 Z" />
    <path
       id="black-mark-130"
       d="M 115.972 110.4 C 119.048 110.4 121.544 112.896 121.544 115.972 C 121.544 119.048 119.048 121.544 115.972 121.544 C 112.896 121.544 110.4 119.048 110.4 115.972 C 110.4 112.896 112.896 110.4 115.972 110.4 Z" />
    <path
       id="black-mark-131"
       d="M 126.833 121.261 C 129.909 121.261 132.405 123.757 132.405 126.833 C 132.405 129.909 129.909 132.405 126.833 132.405 C 123.757 132.405 121.261 129.909 121.261 126.833 C 121.261 123.757 123.757 121.261 126.833 121.261 Z" />
    <path
       id="black-mark-132"
       d="M 137.694 132.122 C 140.77 132.122 143.266 134.618 143.266 137.694 C 143.266 140.77 140.77 143.266 137.694 143.266 C 134.618 143.266 132.122 140.77 132.122 137.694 C 132.122 134.618 134.618 132.122 137.694 132.122 Z" />
    <path
       id="black-mark-133"
       d="M 148.555 143.059 C 151.589 143.059 154.052 145.521 154.052 148.555 C 154.052 151.589 151.589 154.052 148.555 154.052 C 145.521 154.052 143.059 151.589 143.059 148.555 C 143.059 145.521 145.521 143.059 148.555 143.059 Z" />
    <path
       id="black-mark-134"
       d="M 159.417 158.297 C 160.034 158.297 160.536 158.799 160.536 159.417 C 160.536 160.034 160.034 160.536 159.417 160.536 C 158.799 160.536 158.297 160.034 158.297 159.417 C 158.297 158.799 158.799 158.297 159.417 158.297 Z" />
    <path
       id="black-mark-135"
       d="M 170.278 170.268 C 170.283 170.268 170.288 170.272 170.288 170.278 C 170.288 170.283 170.283 170.288 170.278 170.288 C 170.272 170.288 170.268 170.283 170.268 170.278 C 170.268 170.272 170.272 170.268 170.278 170.268 Z" />
    <path
       id="black-mark-136"
       d="M 181.139 181.129 C 181.144 181.129 181.149 181.133 181.149 181.139 C 181.149 181.144 181.144 181.149 181.139 181.149 C 181.133 181.149 181.129 181.144 181.129 181.139 C 181.129 181.133 181.133 181.129 181.139 181.129 Z" />
    <path
       id="black-mark-137"
       d="M 192 192 C 192 192 192 192 192 192 C 192 192 192 192 192 192 C 192 192 192 192 192 192 C 192 192 192 192 192 192 Z" />
    <path
       id="black-mark-138"
       d="M 202.861 202.676 C 202.963 202.676 203.047 202.759 203.047 202.861 C 203.047 202.963 202.963 203.047 202.861 203.047 C 202.759 203.047 202.676 202.963 202.676 202.861 C 202.676 202.759 202.759 202.676 202.861 202.676 Z" />
    <path
       id="black-mark-139"
       d="M 213.722 213.537 C 213.825 213.537 213.908 213.62 213.908 213.722 C 213.908 213.825 213.825 213.908 213.722 213.908 C 213.62 213.908 213.537 213.825 213.537 213.722 C 213.537 213.62 213.62 213.537 213.722 213.537 Z" />
    <path
       id="black-mark-140"
       d="M 224.583 224.04 C 224.884 224.04 225.127 224.283 225.127 224.583 C 225.127 224.884 224.884 225.127 224.583 225.127 C 224.283 225.127 224.04 224.884 224.04 224.583 C 224.04 224.283 224.283 224.04 224.583 224.04 Z" />
    <path
       id="black-mark-141"
       d="M 235.445 234.065 C 236.206 234.065 236.825 234.683 236.825 235.445 C 236.825 236.206 236.206 236.825 235.445 236.825 C 234.683 236.825 234.065 236.206 234.065 235.445 C 234.065 234.683 234.683 234.065 235.445 234.065 Z" />
    <path
       id="black-mark-142"
       d="M 246.306 244.528 C 247.287 244.528 248.084 245.324 248.084 246.306 C 248.084 247.287 247.287 248.084 246.306 248.084 C 245.324 248.084 244.528 247.287 244.528 246.306 C 244.528 245.324 245.324 244.528 246.306 244.528 Z" />
    <path
       id="black-mark-143"
       d="M 257.167 255.389 C 258.148 255.389 258.945 256.186 258.945 257.167 C 258.945 258.148 258.148 258.945 257.167 258.945 C 256.186 258.945 255.389 258.148 255.389 257.167 C 255.389 256.186 256.186 255.389 257.167 255.389 Z" />
    <path
       id="black-mark-144"
       d="M 268.028 263.808 C 270.358 263.808 272.248 265.699 272.248 268.028 C 272.248 270.358 270.358 272.248 268.028 272.248 C 265.699 272.248 263.808 270.358 263.808 268.028 C 263.808 265.699 265.699 263.808 268.028 263.808 Z" />
    <path
       id="black-mark-145"
       d="M 72.527 88.278 C 75.824 88.278 78.499 90.953 78.499 94.25 C 78.499 97.546 75.824 100.221 72.527 100.221 C 69.231 100.221 66.555 97.546 66.555 94.25 C 66.555 90.953 69.231 88.278 72.527 88.278 Z" />
    <path
       id="black-mark-146"
       d="M 83.388 99.358 C 86.564 99.358 89.141 101.935 89.141 105.111 C 89.141 108.286 86.564 110.863 83.388 110.863 C 80.213 110.863 77.636 108.286 77.636 105.111 C 77.636 101.935 80.213 99.358 83.388 99.358 Z" />
    <path
       id="black-mark-147"
       d="M 94.25 110.4 C 97.325 110.4 99.822 112.896 99.822 115.972 C 99.822 119.048 97.325 121.544 94.25 121.544 C 91.174 121.544 88.677 119.048 88.677 115.972 C 88.677 112.896 91.174 110.4 94.25 110.4 Z" />
    <path
       id="black-mark-148"
       d="M 105.111 121.261 C 108.187 121.261 110.683 123.757 110.683 126.833 C 110.683 129.909 108.187 132.405 105.111 132.405 C 102.035 132.405 99.539 129.909 99.539 126.833 C 99.539 123.757 102.035 121.261 105.111 121.261 Z" />
    <path
       id="black-mark-149"
       d="M 115.972 132.122 C 119.048 132.122 121.544 134.618 121.544 137.694 C 121.544 140.77 119.048 143.266 115.972 143.266 C 112.896 143.266 110.4 140.77 110.4 137.694 C 110.4 134.618 112.896 132.122 115.972 132.122 Z" />
    <path
       id="black-mark-150"
       d="M 126.833 142.988 C 129.906 142.988 132.4 145.482 132.4 148.555 C 132.4 151.628 129.906 154.122 126.833 154.122 C 123.76 154.122 121.266 151.628 121.266 148.555 C 121.266 145.482 123.76 142.988 126.833 142.988 Z" />
    <path
       id="black-mark-151"
       d="M 137.694 154.52 C 140.397 154.52 142.59 156.714 142.59 159.417 C 142.59 162.119 140.397 164.313 137.694 164.313 C 134.992 164.313 132.798 162.119 132.798 159.417 C 132.798 156.714 134.992 154.52 137.694 154.52 Z" />
    <path
       id="black-mark-152"
       d="M 148.555 166.993 C 150.368 166.993 151.84 168.465 151.84 170.278 C 151.84 172.091 150.368 173.562 148.555 173.562 C 146.742 173.562 145.271 172.091 145.271 170.278 C 145.271 168.465 146.742 166.993 148.555 166.993 Z" />
    <path
       id="black-mark-153"
       d="M 159.417 180.92 C 159.537 180.92 159.635 181.018 159.635 181.139 C 159.635 181.26 159.537 181.358 159.417 181.358 C 159.296 181.358 159.198 181.26 159.198 181.139 C 159.198 181.018 159.296 180.92 159.417 180.92 Z" />
    <path
       id="black-mark-154"
       d="M 170.278 192 C 170.278 192 170.278 192 170.278 192 C 170.278 192 170.278 192 170.278 192 C 170.278 192 170.278 192 170.278 192 C 170.278 192 170.278 192 170.278 192 Z" />
    <path
       id="black-mark-155"
       d="M 181.139 202.861 C 181.139 202.861 181.139 202.861 181.139 202.861 C 181.139 202.861 181.139 202.861 181.139 202.861 C 181.139 202.861 181.139 202.861 181.139 202.861 C 181.139 202.861 181.139 202.861 181.139 202.861 Z" />
    <path
       id="black-mark-156"
       d="M 192 213.695 C 192.015 213.695 192.027 213.707 192.027 213.722 C 192.027 213.737 192.015 213.75 192 213.75 C 191.985 213.75 191.973 213.737 191.973 213.722 C 191.973 213.707 191.985 213.695 192 213.695 Z" />
    <path
       id="black-mark-157"
       d="M 202.861 224.165 C 203.092 224.165 203.279 224.353 203.279 224.583 C 203.279 224.814 203.092 225.002 202.861 225.002 C 202.63 225.002 202.443 224.814 202.443 224.583 C 202.443 224.353 202.63 224.165 202.861 224.165 Z" />
    <path
       id="black-mark-158"
       d="M 213.722 235.011 C 213.962 235.011 214.156 235.205 214.156 235.445 C 214.156 235.684 213.962 235.878 213.722 235.878 C 213.483 235.878 213.289 235.684 213.289 235.445 C 213.289 235.205 213.483 235.011 213.722 235.011 Z" />
    <path
       id="black-mark-159"
       d="M 224.583 245.792 C 224.867 245.792 225.097 246.022 225.097 246.306 C 225.097 246.589 224.867 246.82 224.583 246.82 C 224.3 246.82 224.07 246.589 224.07 246.306 C 224.07 246.022 224.3 245.792 224.583 245.792 Z" />
    <path
       id="black-mark-160"
       d="M 235.445 255.737 C 236.234 255.737 236.875 256.378 236.875 257.167 C 236.875 257.956 236.234 258.597 235.445 258.597 C 234.655 258.597 234.015 257.956 234.015 257.167 C 234.015 256.378 234.655 255.737 235.445 255.737 Z" />
    <path
       id="black-mark-161"
       d="M 246.306 264.6 C 248.198 264.6 249.734 266.136 249.734 268.028 C 249.734 269.921 248.198 271.457 246.306 271.457 C 244.413 271.457 242.877 269.921 242.877 268.028 C 242.877 266.136 244.413 264.6 246.306 264.6 Z" />
    <path
       id="black-mark-162"
       d="M 257.167 272.884 C 260.482 272.884 263.173 275.574 263.173 278.889 C 263.173 282.204 260.482 284.895 257.167 284.895 C 253.852 284.895 251.161 282.204 251.161 278.889 C 251.161 275.574 253.852 272.884 257.167 272.884 Z" />
    <path
       id="black-mark-163"
       d="M 61.666 99.139 C 64.962 99.139 67.638 101.814 67.638 105.111 C 67.638 108.407 64.962 111.082 61.666 111.082 C 58.37 111.082 55.694 108.407 55.694 105.111 C 55.694 101.814 58.37 99.139 61.666 99.139 Z" />
    <path
       id="black-mark-164"
       d="M 72.527 110.095 C 75.771 110.095 78.404 112.728 78.404 115.972 C 78.404 119.216 75.771 121.848 72.527 121.848 C 69.283 121.848 66.651 119.216 66.651 115.972 C 66.651 112.728 69.283 110.095 72.527 110.095 Z" />
    <path
       id="black-mark-165"
       d="M 83.388 121.225 C 86.484 121.225 88.996 123.738 88.996 126.833 C 88.996 129.929 86.484 132.441 83.388 132.441 C 80.293 132.441 77.781 129.929 77.781 126.833 C 77.781 123.738 80.293 121.225 83.388 121.225 Z" />
    <path
       id="black-mark-166"
       d="M 94.25 132.122 C 97.325 132.122 99.822 134.618 99.822 137.694 C 99.822 140.77 97.325 143.266 94.25 143.266 C 91.174 143.266 88.677 140.77 88.677 137.694 C 88.677 134.618 91.174 132.122 94.25 132.122 Z" />
    <path
       id="black-mark-167"
       d="M 105.111 142.983 C 108.187 142.983 110.683 145.48 110.683 148.555 C 110.683 151.631 108.187 154.128 105.111 154.128 C 102.035 154.128 99.539 151.631 99.539 148.555 C 99.539 145.48 102.035 142.983 105.111 142.983 Z" />
    <path
       id="black-mark-168"
       d="M 115.972 154.15 C 118.879 154.15 121.239 156.509 121.239 159.417 C 121.239 162.324 118.879 164.683 115.972 164.683 C 113.065 164.683 110.705 162.324 110.705 159.417 C 110.705 156.509 113.065 154.15 115.972 154.15 Z" />
    <path
       id="black-mark-169"
       d="M 126.833 165.977 C 129.207 165.977 131.133 167.904 131.133 170.278 C 131.133 172.651 129.207 174.578 126.833 174.578 C 124.459 174.578 122.533 172.651 122.533 170.278 C 122.533 167.904 124.459 165.977 126.833 165.977 Z" />
    <path
       id="black-mark-170"
       d="M 137.694 176.839 C 140.068 176.839 141.995 178.765 141.995 181.139 C 141.995 183.513 140.068 185.439 137.694 185.439 C 135.32 185.439 133.394 183.513 133.394 181.139 C 133.394 178.765 135.32 176.839 137.694 176.839 Z" />
    <path
       id="black-mark-171"
       d="M 148.555 188.8 C 150.322 188.8 151.756 190.233 151.756 192 C 151.756 193.767 150.322 195.2 148.555 195.2 C 146.789 195.2 145.355 193.767 145.355 192 C 145.355 190.233 146.789 188.8 148.555 188.8 Z" />
    <path
       id="black-mark-172"
       d="M 159.417 202.406 C 159.668 202.406 159.871 202.61 159.871 202.861 C 159.871 203.112 159.668 203.316 159.417 203.316 C 159.165 203.316 158.962 203.112 158.962 202.861 C 158.962 202.61 159.165 202.406 159.417 202.406 Z" />
    <path
       id="black-mark-173"
       d="M 170.278 213.722 C 170.278 213.722 170.278 213.722 170.278 213.722 C 170.278 213.722 170.278 213.722 170.278 213.722 C 170.278 213.722 170.278 213.722 170.278 213.722 C 170.278 213.722 170.278 213.722 170.278 213.722 Z" />
    <path
       id="black-mark-174"
       d="M 181.139 224.371 C 181.256 224.371 181.351 224.466 181.351 224.583 C 181.351 224.701 181.256 224.796 181.139 224.796 C 181.022 224.796 180.926 224.701 180.926 224.583 C 180.926 224.466 181.022 224.371 181.139 224.371 Z" />
    <path
       id="black-mark-175"
       d="M 192 235.011 C 192.239 235.011 192.434 235.205 192.434 235.445 C 192.434 235.684 192.239 235.878 192 235.878 C 191.761 235.878 191.566 235.684 191.566 235.445 C 191.566 235.205 191.761 235.011 192 235.011 Z" />
    <path
       id="black-mark-176"
       d="M 202.861 245.737 C 203.175 245.737 203.43 245.992 203.43 246.306 C 203.43 246.62 203.175 246.874 202.861 246.874 C 202.547 246.874 202.293 246.62 202.293 246.306 C 202.293 245.992 202.547 245.737 202.861 245.737 Z" />
    <path
       id="black-mark-177"
       d="M 213.722 256.599 C 214.036 256.599 214.291 256.853 214.291 257.167 C 214.291 257.481 214.036 257.735 213.722 257.735 C 213.409 257.735 213.154 257.481 213.154 257.167 C 213.154 256.853 213.409 256.599 213.722 256.599 Z" />
    <path
       id="black-mark-178"
       d="M 224.583 265.307 C 226.085 265.307 227.304 266.526 227.304 268.028 C 227.304 269.53 226.085 270.749 224.583 270.749 C 223.082 270.749 221.863 269.53 221.863 268.028 C 221.863 266.526 223.082 265.307 224.583 265.307 Z" />
    <path
       id="black-mark-179"
       d="M 235.445 273.029 C 238.679 273.029 241.305 275.655 241.305 278.889 C 241.305 282.124 238.679 284.749 235.445 284.749 C 232.21 284.749 229.585 282.124 229.585 278.889 C 229.585 275.655 232.21 273.029 235.445 273.029 Z" />
    <path
       id="black-mark-180"
       d="M 246.306 283.745 C 249.621 283.745 252.312 286.435 252.312 289.75 C 252.312 293.066 249.621 295.756 246.306 295.756 C 242.991 295.756 240.3 293.066 240.3 289.75 C 240.3 286.435 242.991 283.745 246.306 283.745 Z" />
    <path
       id="black-mark-181"
       d="M 61.666 121.021 C 64.874 121.021 67.478 123.625 67.478 126.833 C 67.478 130.041 64.874 132.645 61.666 132.645 C 58.458 132.645 55.854 130.041 55.854 126.833 C 55.854 123.625 58.458 121.021 61.666 121.021 Z" />
    <path
       id="black-mark-182"
       d="M 72.527 131.882 C 75.735 131.882 78.339 134.486 78.339 137.694 C 78.339 140.902 75.735 143.506 72.527 143.506 C 69.319 143.506 66.715 140.902 66.715 137.694 C 66.715 134.486 69.319 131.882 72.527 131.882 Z" />
    <path
       id="black-mark-183"
       d="M 83.388 142.956 C 86.479 142.956 88.988 145.465 88.988 148.555 C 88.988 151.646 86.479 154.155 83.388 154.155 C 80.298 154.155 77.789 151.646 77.789 148.555 C 77.789 145.465 80.298 142.956 83.388 142.956 Z" />
    <path
       id="black-mark-184"
       d="M 94.25 153.879 C 97.306 153.879 99.787 156.36 99.787 159.417 C 99.787 162.473 97.306 164.954 94.25 164.954 C 91.193 164.954 88.712 162.473 88.712 159.417 C 88.712 156.36 91.193 153.879 94.25 153.879 Z" />
    <path
       id="black-mark-185"
       d="M 105.111 165.371 C 107.819 165.371 110.017 167.569 110.017 170.278 C 110.017 172.986 107.819 175.184 105.111 175.184 C 102.402 175.184 100.205 172.986 100.205 170.278 C 100.205 167.569 102.402 165.371 105.111 165.371 Z" />
    <path
       id="black-mark-186"
       d="M 115.972 176.743 C 118.398 176.743 120.367 178.713 120.367 181.139 C 120.367 183.565 118.398 185.534 115.972 185.534 C 113.546 185.534 111.576 183.565 111.576 181.139 C 111.576 178.713 113.546 176.743 115.972 176.743 Z" />
    <path
       id="black-mark-187"
       d="M 126.833 187.705 C 129.204 187.705 131.128 189.629 131.128 192 C 131.128 194.371 129.204 196.295 126.833 196.295 C 124.462 196.295 122.538 194.371 122.538 192 C 122.538 189.629 124.462 187.705 126.833 187.705 Z" />
    <path
       id="black-mark-188"
       d="M 137.694 198.561 C 140.068 198.561 141.995 200.487 141.995 202.861 C 141.995 205.235 140.068 207.162 137.694 207.162 C 135.32 207.162 133.394 205.235 133.394 202.861 C 133.394 200.487 135.32 198.561 137.694 198.561 Z" />
    <path
       id="black-mark-189"
       d="M 148.555 210.118 C 150.545 210.118 152.16 211.733 152.16 213.722 C 152.16 215.712 150.545 217.327 148.555 217.327 C 146.566 217.327 144.951 215.712 144.951 213.722 C 144.951 211.733 146.566 210.118 148.555 210.118 Z" />
    <path
       id="black-mark-190"
       d="M 159.417 222.962 C 160.312 222.962 161.038 223.688 161.038 224.583 C 161.038 225.479 160.312 226.205 159.417 226.205 C 158.521 226.205 157.795 225.479 157.795 224.583 C 157.795 223.688 158.521 222.962 159.417 222.962 Z" />
    <path
       id="black-mark-191"
       d="M 170.278 234.356 C 170.879 234.356 171.367 234.844 171.367 235.445 C 171.367 236.046 170.879 236.533 170.278 236.533 C 169.677 236.533 169.189 236.046 169.189 235.445 C 169.189 234.844 169.677 234.356 170.278 234.356 Z" />
    <path
       id="black-mark-192"
       d="M 181.139 242.621 C 183.173 242.621 184.823 244.272 184.823 246.306 C 184.823 248.34 183.173 249.99 181.139 249.99 C 179.105 249.99 177.454 248.34 177.454 246.306 C 177.454 244.272 179.105 242.621 181.139 242.621 Z" />
    <path
       id="black-mark-193"
       d="M 192 255.672 C 192.825 255.672 193.495 256.342 193.495 257.167 C 193.495 257.992 192.825 258.662 192 258.662 C 191.175 258.662 190.505 257.992 190.505 257.167 C 190.505 256.342 191.175 255.672 192 255.672 Z" />
    <path
       id="black-mark-194"
       d="M 202.861 264.647 C 204.728 264.647 206.243 266.162 206.243 268.028 C 206.243 269.895 204.728 271.409 202.861 271.409 C 200.995 271.409 199.48 269.895 199.48 268.028 C 199.48 266.162 200.995 264.647 202.861 264.647 Z" />
    <path
       id="black-mark-195"
       d="M 213.722 274.125 C 216.352 274.125 218.486 276.26 218.486 278.889 C 218.486 281.519 216.352 283.653 213.722 283.653 C 211.093 283.653 208.958 281.519 208.958 278.889 C 208.958 276.26 211.093 274.125 213.722 274.125 Z" />
    <path
       id="black-mark-196"
       d="M 224.583 284.541 C 227.459 284.541 229.793 286.875 229.793 289.75 C 229.793 292.626 227.459 294.96 224.583 294.96 C 221.708 294.96 219.374 292.626 219.374 289.75 C 219.374 286.875 221.708 284.541 224.583 284.541 Z" />
    <path
       id="black-mark-197"
       d="M 61.666 142.757 C 64.867 142.757 67.464 145.355 67.464 148.555 C 67.464 151.756 64.867 154.354 61.666 154.354 C 58.465 154.354 55.868 151.756 55.868 148.555 C 55.868 145.355 58.465 142.757 61.666 142.757 Z" />
    <path
       id="black-mark-198"
       d="M 72.527 153.589 C 75.744 153.589 78.354 156.2 78.354 159.417 C 78.354 162.633 75.744 165.244 72.527 165.244 C 69.311 165.244 66.7 162.633 66.7 159.417 C 66.7 156.2 69.311 153.589 72.527 153.589 Z" />
    <path
       id="black-mark-199"
       d="M 83.388 164.684 C 86.476 164.684 88.983 167.19 88.983 170.278 C 88.983 173.366 86.476 175.872 83.388 175.872 C 80.3 175.872 77.794 173.366 77.794 170.278 C 77.794 167.19 80.3 164.684 83.388 164.684 Z" />
    <path
       id="black-mark-200"
       d="M 94.25 176.233 C 96.958 176.233 99.156 178.431 99.156 181.139 C 99.156 183.847 96.958 186.045 94.25 186.045 C 91.541 186.045 89.343 183.847 89.343 181.139 C 89.343 178.431 91.541 176.233 94.25 176.233 Z" />
    <path
       id="black-mark-201"
       d="M 105.111 187.614 C 107.532 187.614 109.497 189.579 109.497 192 C 109.497 194.421 107.532 196.386 105.111 196.386 C 102.689 196.386 100.724 194.421 100.724 192 C 100.724 189.579 102.689 187.614 105.111 187.614 Z" />
    <path
       id="black-mark-202"
       d="M 115.972 198.488 C 118.386 198.488 120.345 200.447 120.345 202.861 C 120.345 205.275 118.386 207.235 115.972 207.235 C 113.558 207.235 111.598 205.275 111.598 202.861 C 111.598 200.447 113.558 198.488 115.972 198.488 Z" />
    <path
       id="black-mark-203"
       d="M 126.833 209.422 C 129.207 209.422 131.133 211.348 131.133 213.722 C 131.133 216.096 129.207 218.023 126.833 218.023 C 124.459 218.023 122.533 216.096 122.533 213.722 C 122.533 211.348 124.459 209.422 126.833 209.422 Z" />
    <path
       id="black-mark-204"
       d="M 137.694 220.04 C 140.202 220.04 142.238 222.075 142.238 224.583 C 142.238 227.092 140.202 229.127 137.694 229.127 C 135.186 229.127 133.151 227.092 133.151 224.583 C 133.151 222.075 135.186 220.04 137.694 220.04 Z" />
    <path
       id="black-mark-205"
       d="M 148.555 230.723 C 151.162 230.723 153.277 232.838 153.277 235.445 C 153.277 238.051 151.162 240.167 148.555 240.167 C 145.949 240.167 143.833 238.051 143.833 235.445 C 143.833 232.838 145.949 230.723 148.555 230.723 Z" />
    <path
       id="black-mark-206"
       d="M 159.417 241.611 C 162.008 241.611 164.112 243.714 164.112 246.306 C 164.112 248.898 162.008 251.001 159.417 251.001 C 156.825 251.001 154.721 248.898 154.721 246.306 C 154.721 243.714 156.825 241.611 159.417 241.611 Z" />
    <path
       id="black-mark-207"
       d="M 170.278 253.482 C 172.312 253.482 173.962 255.133 173.962 257.167 C 173.962 259.201 172.312 260.852 170.278 260.852 C 168.244 260.852 166.593 259.201 166.593 257.167 C 166.593 255.133 168.244 253.482 170.278 253.482 Z" />
    <path
       id="black-mark-208"
       d="M 181.139 263.299 C 183.749 263.299 185.868 265.418 185.868 268.028 C 185.868 270.638 183.749 272.757 181.139 272.757 C 178.528 272.757 176.41 270.638 176.41 268.028 C 176.41 265.418 178.528 263.299 181.139 263.299 Z" />
    <path
       id="black-mark-209"
       d="M 192 274.16 C 194.61 274.16 196.729 276.279 196.729 278.889 C 196.729 281.5 194.61 283.618 192 283.618 C 189.39 283.618 187.271 281.5 187.271 278.889 C 187.271 276.279 189.39 274.16 192 274.16 Z" />
    <path
       id="black-mark-210"
       d="M 202.861 284.986 C 205.491 284.986 207.625 287.121 207.625 289.75 C 207.625 292.38 205.491 294.514 202.861 294.514 C 200.231 294.514 198.097 292.38 198.097 289.75 C 198.097 287.121 200.231 284.986 202.861 284.986 Z" />
    <path
       id="black-mark-211"
       d="M 213.722 295.512 C 216.537 295.512 218.822 297.797 218.822 300.612 C 218.822 303.427 216.537 305.711 213.722 305.711 C 210.907 305.711 208.623 303.427 208.623 300.612 C 208.623 297.797 210.907 295.512 213.722 295.512 Z" />
    <path
       id="black-mark-212"
       d="M 224.583 305.472 C 227.896 305.472 230.584 308.16 230.584 311.473 C 230.584 314.785 227.896 317.474 224.583 317.474 C 221.271 317.474 218.583 314.785 218.583 311.473 C 218.583 308.16 221.271 305.472 224.583 305.472 Z" />
    <path
       id="black-mark-213"
       d="M 61.666 164.369 C 64.928 164.369 67.575 167.016 67.575 170.278 C 67.575 173.539 64.928 176.187 61.666 176.187 C 58.404 176.187 55.757 173.539 55.757 170.278 C 55.757 167.016 58.404 164.369 61.666 164.369 Z" />
    <path
       id="black-mark-214"
       d="M 72.527 175.23 C 75.789 175.23 78.436 177.877 78.436 181.139 C 78.436 184.401 75.789 187.048 72.527 187.048 C 69.266 187.048 66.618 184.401 66.618 181.139 C 66.618 177.877 69.266 175.23 72.527 175.23 Z" />
    <path
       id="black-mark-215"
       d="M 83.388 186.884 C 86.212 186.884 88.504 189.176 88.504 192 C 88.504 194.824 86.212 197.116 83.388 197.116 C 80.565 197.116 78.273 194.824 78.273 192 C 78.273 189.176 80.565 186.884 83.388 186.884 Z" />
    <path
       id="black-mark-216"
       d="M 94.25 198.261 C 96.789 198.261 98.849 200.322 98.849 202.861 C 98.849 205.4 96.789 207.461 94.25 207.461 C 91.711 207.461 89.65 205.4 89.65 202.861 C 89.65 200.322 91.711 198.261 94.25 198.261 Z" />
    <path
       id="black-mark-217"
       d="M 105.111 209.123 C 107.65 209.123 109.71 211.183 109.71 213.722 C 109.71 216.261 107.65 218.322 105.111 218.322 C 102.572 218.322 100.511 216.261 100.511 213.722 C 100.511 211.183 102.572 209.123 105.111 209.123 Z" />
    <path
       id="black-mark-218"
       d="M 115.972 219.911 C 118.551 219.911 120.645 222.004 120.645 224.583 C 120.645 227.163 118.551 229.256 115.972 229.256 C 113.392 229.256 111.299 227.163 111.299 224.583 C 111.299 222.004 113.392 219.911 115.972 219.911 Z" />
    <path
       id="black-mark-219"
       d="M 126.833 230.716 C 129.443 230.716 131.562 232.834 131.562 235.445 C 131.562 238.055 129.443 240.174 126.833 240.174 C 124.223 240.174 122.104 238.055 122.104 235.445 C 122.104 232.834 124.223 230.716 126.833 230.716 Z" />
    <path
       id="black-mark-220"
       d="M 137.694 241.577 C 140.305 241.577 142.423 243.695 142.423 246.306 C 142.423 248.916 140.305 251.035 137.694 251.035 C 135.084 251.035 132.965 248.916 132.965 246.306 C 132.965 243.695 135.084 241.577 137.694 241.577 Z" />
    <path
       id="black-mark-221"
       d="M 148.555 252.438 C 151.166 252.438 153.284 254.557 153.284 257.167 C 153.284 259.777 151.166 261.896 148.555 261.896 C 145.945 261.896 143.826 259.777 143.826 257.167 C 143.826 254.557 145.945 252.438 148.555 252.438 Z" />
    <path
       id="black-mark-222"
       d="M 159.417 263.299 C 162.027 263.299 164.145 265.418 164.145 268.028 C 164.145 270.638 162.027 272.757 159.417 272.757 C 156.806 272.757 154.688 270.638 154.688 268.028 C 154.688 265.418 156.806 263.299 159.417 263.299 Z" />
    <path
       id="black-mark-223"
       d="M 170.278 274.16 C 172.888 274.16 175.007 276.279 175.007 278.889 C 175.007 281.5 172.888 283.618 170.278 283.618 C 167.667 283.618 165.549 281.5 165.549 278.889 C 165.549 276.279 167.667 274.16 170.278 274.16 Z" />
    <path
       id="black-mark-224"
       d="M 181.139 285.021 C 183.749 285.021 185.868 287.14 185.868 289.75 C 185.868 292.361 183.749 294.479 181.139 294.479 C 178.528 294.479 176.41 292.361 176.41 289.75 C 176.41 287.14 178.528 285.021 181.139 285.021 Z" />
    <path
       id="black-mark-225"
       d="M 192 295.838 C 194.635 295.838 196.774 297.976 196.774 300.612 C 196.774 303.247 194.635 305.386 192 305.386 C 189.365 305.386 187.226 303.247 187.226 300.612 C 187.226 297.976 189.365 295.838 192 295.838 Z" />
    <path
       id="black-mark-226"
       d="M 202.861 305.838 C 205.972 305.838 208.496 308.362 208.496 311.473 C 208.496 314.583 205.972 317.108 202.861 317.108 C 199.751 317.108 197.226 314.583 197.226 311.473 C 197.226 308.362 199.751 305.838 202.861 305.838 Z" />
    <path
       id="black-mark-227"
       d="M 213.722 316.699 C 216.833 316.699 219.358 319.223 219.358 322.334 C 219.358 325.445 216.833 327.969 213.722 327.969 C 210.612 327.969 208.087 325.445 208.087 322.334 C 208.087 319.223 210.612 316.699 213.722 316.699 Z" />
    <path
       id="black-mark-228"
       d="M 61.666 186.216 C 64.859 186.216 67.45 188.807 67.45 192 C 67.45 195.193 64.859 197.784 61.666 197.784 C 58.473 197.784 55.882 195.193 55.882 192 C 55.882 188.807 58.473 186.216 61.666 186.216 Z" />
    <path
       id="black-mark-229"
       d="M 72.527 197.421 C 75.53 197.421 77.967 199.858 77.967 202.861 C 77.967 205.864 75.53 208.301 72.527 208.301 C 69.524 208.301 67.087 205.864 67.087 202.861 C 67.087 199.858 69.524 197.421 72.527 197.421 Z" />
    <path
       id="black-mark-230"
       d="M 83.388 208.878 C 86.062 208.878 88.232 211.048 88.232 213.722 C 88.232 216.396 86.062 218.566 83.388 218.566 C 80.715 218.566 78.544 216.396 78.544 213.722 C 78.544 211.048 80.715 208.878 83.388 208.878 Z" />
    <path
       id="black-mark-231"
       d="M 94.25 219.856 C 96.859 219.856 98.977 221.974 98.977 224.583 C 98.977 227.193 96.859 229.311 94.25 229.311 C 91.64 229.311 89.522 227.193 89.522 224.583 C 89.522 221.974 91.64 219.856 94.25 219.856 Z" />
    <path
       id="black-mark-232"
       d="M 105.111 230.716 C 107.721 230.716 109.84 232.834 109.84 235.445 C 109.84 238.055 107.721 240.174 105.111 240.174 C 102.5 240.174 100.382 238.055 100.382 235.445 C 100.382 232.834 102.5 230.716 105.111 230.716 Z" />
    <path
       id="black-mark-233"
       d="M 115.972 241.577 C 118.582 241.577 120.701 243.695 120.701 246.306 C 120.701 248.916 118.582 251.035 115.972 251.035 C 113.362 251.035 111.243 248.916 111.243 246.306 C 111.243 243.695 113.362 241.577 115.972 241.577 Z" />
    <path
       id="black-mark-234"
       d="M 126.833 252.438 C 129.443 252.438 131.562 254.557 131.562 257.167 C 131.562 259.777 129.443 261.896 126.833 261.896 C 124.223 261.896 122.104 259.777 122.104 257.167 C 122.104 254.557 124.223 252.438 126.833 252.438 Z" />
    <path
       id="black-mark-235"
       d="M 137.694 263.299 C 140.305 263.299 142.423 265.418 142.423 268.028 C 142.423 270.638 140.305 272.757 137.694 272.757 C 135.084 272.757 132.965 270.638 132.965 268.028 C 132.965 265.418 135.084 263.299 137.694 263.299 Z" />
    <path
       id="black-mark-236"
       d="M 148.555 274.16 C 151.166 274.16 153.284 276.279 153.284 278.889 C 153.284 281.5 151.166 283.618 148.555 283.618 C 145.945 283.618 143.826 281.5 143.826 278.889 C 143.826 276.279 145.945 274.16 148.555 274.16 Z" />
    <path
       id="black-mark-237"
       d="M 159.417 285.021 C 162.027 285.021 164.145 287.14 164.145 289.75 C 164.145 292.361 162.027 294.479 159.417 294.479 C 156.806 294.479 154.688 292.361 154.688 289.75 C 154.688 287.14 156.806 285.021 159.417 285.021 Z" />
    <path
       id="black-mark-238"
       d="M 170.278 295.883 C 172.888 295.883 175.007 298.001 175.007 300.612 C 175.007 303.222 172.888 305.341 170.278 305.341 C 167.667 305.341 165.549 303.222 165.549 300.612 C 165.549 298.001 167.667 295.883 170.278 295.883 Z" />
    <path
       id="black-mark-239"
       d="M 181.139 306.498 C 183.885 306.498 186.113 308.727 186.113 311.473 C 186.113 314.219 183.885 316.447 181.139 316.447 C 178.393 316.447 176.165 314.219 176.165 311.473 C 176.165 308.727 178.393 306.498 181.139 306.498 Z" />
    <path
       id="black-mark-240"
       d="M 192 317.079 C 194.901 317.079 197.255 319.433 197.255 322.334 C 197.255 325.234 194.901 327.589 192 327.589 C 189.099 327.589 186.745 325.234 186.745 322.334 C 186.745 319.433 189.099 317.079 192 317.079 Z" />
    <path
       id="black-mark-241"
       d="M 61.666 208.282 C 64.669 208.282 67.106 210.719 67.106 213.722 C 67.106 216.725 64.669 219.162 61.666 219.162 C 58.663 219.162 56.226 216.725 56.226 213.722 C 56.226 210.719 58.663 208.282 61.666 208.282 Z" />
    <path
       id="black-mark-242"
       d="M 72.527 219.349 C 75.417 219.349 77.762 221.694 77.762 224.583 C 77.762 227.473 75.417 229.818 72.527 229.818 C 69.638 229.818 67.293 227.473 67.293 224.583 C 67.293 221.694 69.638 219.349 72.527 219.349 Z" />
    <path
       id="black-mark-243"
       d="M 83.388 230.716 C 85.999 230.716 88.117 232.834 88.117 235.445 C 88.117 238.055 85.999 240.174 83.388 240.174 C 80.778 240.174 78.659 238.055 78.659 235.445 C 78.659 232.834 80.778 230.716 83.388 230.716 Z" />
    <path
       id="black-mark-244"
       d="M 94.25 241.577 C 96.86 241.577 98.978 243.695 98.978 246.306 C 98.978 248.916 96.86 251.035 94.25 251.035 C 91.639 251.035 89.521 248.916 89.521 246.306 C 89.521 243.695 91.639 241.577 94.25 241.577 Z" />
    <path
       id="black-mark-245"
       d="M 105.111 252.438 C 107.721 252.438 109.84 254.557 109.84 257.167 C 109.84 259.777 107.721 261.896 105.111 261.896 C 102.5 261.896 100.382 259.777 100.382 257.167 C 100.382 254.557 102.5 252.438 105.111 252.438 Z" />
    <path
       id="black-mark-246"
       d="M 115.972 263.299 C 118.582 263.299 120.701 265.418 120.701 268.028 C 120.701 270.638 118.582 272.757 115.972 272.757 C 113.362 272.757 111.243 270.638 111.243 268.028 C 111.243 265.418 113.362 263.299 115.972 263.299 Z" />
    <path
       id="black-mark-247"
       d="M 126.833 274.16 C 129.443 274.16 131.562 276.279 131.562 278.889 C 131.562 281.5 129.443 283.618 126.833 283.618 C 124.223 283.618 122.104 281.5 122.104 278.889 C 122.104 276.279 124.223 274.16 126.833 274.16 Z" />
    <path
       id="black-mark-248"
       d="M 137.694 285.021 C 140.305 285.021 142.423 287.14 142.423 289.75 C 142.423 292.361 140.305 294.479 137.694 294.479 C 135.084 294.479 132.965 292.361 132.965 289.75 C 132.965 287.14 135.084 285.021 137.694 285.021 Z" />
    <path
       id="black-mark-249"
       d="M 148.555 295.883 C 151.166 295.883 153.284 298.001 153.284 300.612 C 153.284 303.222 151.166 305.341 148.555 305.341 C 145.945 305.341 143.826 303.222 143.826 300.612 C 143.826 298.001 145.945 295.883 148.555 295.883 Z" />
    <path
       id="black-mark-250"
       d="M 159.417 306.609 C 162.102 306.609 164.281 308.788 164.281 311.473 C 164.281 314.158 162.102 316.337 159.417 316.337 C 156.732 316.337 154.552 314.158 154.552 311.473 C 154.552 308.788 156.732 306.609 159.417 306.609 Z" />
    <path
       id="black-mark-251"
       d="M 170.278 317.36 C 173.023 317.36 175.252 319.588 175.252 322.334 C 175.252 325.08 173.023 327.308 170.278 327.308 C 167.532 327.308 165.303 325.08 165.303 322.334 C 165.303 319.588 167.532 317.36 170.278 317.36 Z" />
    <path
       id="black-mark-252"
       d="M 181.139 327.54 C 184.261 327.54 186.794 330.073 186.794 333.195 C 186.794 336.317 184.261 338.85 181.139 338.85 C 178.017 338.85 175.484 336.317 175.484 333.195 C 175.484 330.073 178.017 327.54 181.139 327.54 Z" />
    <path
       id="black-mark-253"
       d="M 50.805 218.578 C 54.12 218.578 56.811 221.268 56.811 224.583 C 56.811 227.899 54.12 230.589 50.805 230.589 C 47.49 230.589 44.799 227.899 44.799 224.583 C 44.799 221.268 47.49 218.578 50.805 218.578 Z" />
    <path
       id="black-mark-254"
       d="M 61.666 230.305 C 64.503 230.305 66.806 232.608 66.806 235.445 C 66.806 238.282 64.503 240.584 61.666 240.584 C 58.829 240.584 56.527 238.282 56.527 235.445 C 56.527 232.608 58.829 230.305 61.666 230.305 Z" />
    <path
       id="black-mark-255"
       d="M 72.527 241.116 C 75.392 241.116 77.717 243.441 77.717 246.306 C 77.717 249.17 75.392 251.495 72.527 251.495 C 69.663 251.495 67.338 249.17 67.338 246.306 C 67.338 243.441 69.663 241.116 72.527 241.116 Z" />
    <path
       id="black-mark-256"
       d="M 83.388 252.433 C 86.002 252.433 88.122 254.554 88.122 257.167 C 88.122 259.78 86.002 261.901 83.388 261.901 C 80.775 261.901 78.654 259.78 78.654 257.167 C 78.654 254.554 80.775 252.433 83.388 252.433 Z" />
    <path
       id="black-mark-257"
       d="M 94.25 263.299 C 96.86 263.299 98.978 265.418 98.978 268.028 C 98.978 270.638 96.86 272.757 94.25 272.757 C 91.639 272.757 89.521 270.638 89.521 268.028 C 89.521 265.418 91.639 263.299 94.25 263.299 Z" />
    <path
       id="black-mark-258"
       d="M 105.111 274.155 C 107.724 274.155 109.845 276.276 109.845 278.889 C 109.845 281.502 107.724 283.623 105.111 283.623 C 102.498 283.623 100.377 281.502 100.377 278.889 C 100.377 276.276 102.498 274.155 105.111 274.155 Z" />
    <path
       id="black-mark-259"
       d="M 115.972 285.021 C 118.582 285.021 120.701 287.14 120.701 289.75 C 120.701 292.361 118.582 294.479 115.972 294.479 C 113.362 294.479 111.243 292.361 111.243 289.75 C 111.243 287.14 113.362 285.021 115.972 285.021 Z" />
    <path
       id="black-mark-260"
       d="M 126.833 295.883 C 129.443 295.883 131.562 298.001 131.562 300.612 C 131.562 303.222 129.443 305.341 126.833 305.341 C 124.223 305.341 122.104 303.222 122.104 300.612 C 122.104 298.001 124.223 295.883 126.833 295.883 Z" />
    <path
       id="black-mark-261"
       d="M 137.694 306.544 C 140.415 306.544 142.623 308.752 142.623 311.473 C 142.623 314.194 140.415 316.402 137.694 316.402 C 134.973 316.402 132.765 314.194 132.765 311.473 C 132.765 308.752 134.973 306.544 137.694 306.544 Z" />
    <path
       id="black-mark-262"
       d="M 148.555 317.48 C 151.235 317.48 153.409 319.654 153.409 322.334 C 153.409 325.013 151.235 327.188 148.555 327.188 C 145.876 327.188 143.701 325.013 143.701 322.334 C 143.701 319.654 145.876 317.48 148.555 317.48 Z" />
    <path
       id="black-mark-263"
       d="M 159.417 327.715 C 162.441 327.715 164.897 330.17 164.897 333.195 C 164.897 336.22 162.441 338.675 159.417 338.675 C 156.392 338.675 153.937 336.22 153.937 333.195 C 153.937 330.17 156.392 327.715 159.417 327.715 Z" />
    <path
       id="black-mark-264"
       d="M 50.805 240.305 C 54.117 240.305 56.806 242.993 56.806 246.306 C 56.806 249.618 54.117 252.307 50.805 252.307 C 47.493 252.307 44.804 249.618 44.804 246.306 C 44.804 242.993 47.493 240.305 50.805 240.305 Z" />
    <path
       id="black-mark-265"
       d="M 61.666 251.977 C 64.531 251.977 66.856 254.302 66.856 257.167 C 66.856 260.032 64.531 262.357 61.666 262.357 C 58.801 262.357 56.476 260.032 56.476 257.167 C 56.476 254.302 58.801 251.977 61.666 251.977 Z" />
    <path
       id="black-mark-266"
       d="M 72.527 262.668 C 75.486 262.668 77.887 265.069 77.887 268.028 C 77.887 270.987 75.486 273.388 72.527 273.388 C 69.569 273.388 67.167 270.987 67.167 268.028 C 67.167 265.069 69.569 262.668 72.527 262.668 Z" />
    <path
       id="black-mark-267"
       d="M 83.388 273.855 C 86.167 273.855 88.423 276.11 88.423 278.889 C 88.423 281.668 86.167 283.924 83.388 283.924 C 80.609 283.924 78.354 281.668 78.354 278.889 C 78.354 276.11 80.609 273.855 83.388 273.855 Z" />
    <path
       id="black-mark-268"
       d="M 94.25 285.016 C 96.863 285.016 98.983 287.137 98.983 289.75 C 98.983 292.364 96.863 294.484 94.25 294.484 C 91.636 294.484 89.516 292.364 89.516 289.75 C 89.516 287.137 91.636 285.016 94.25 285.016 Z" />
    <path
       id="black-mark-269"
       d="M 105.111 295.642 C 107.854 295.642 110.08 297.869 110.08 300.612 C 110.08 303.355 107.854 305.581 105.111 305.581 C 102.368 305.581 100.141 303.355 100.141 300.612 C 100.141 297.869 102.368 295.642 105.111 295.642 Z" />
    <path
       id="black-mark-270"
       d="M 115.972 306.318 C 118.817 306.318 121.126 308.627 121.126 311.473 C 121.126 314.318 118.817 316.627 115.972 316.627 C 113.127 316.627 110.817 314.318 110.817 311.473 C 110.817 308.627 113.127 306.318 115.972 306.318 Z" />
    <path
       id="black-mark-271"
       d="M 126.833 317.405 C 129.554 317.405 131.762 319.613 131.762 322.334 C 131.762 325.055 129.554 327.263 126.833 327.263 C 124.112 327.263 121.904 325.055 121.904 322.334 C 121.904 319.613 124.112 317.405 126.833 317.405 Z" />
    <path
       id="black-mark-272"
       d="M 137.694 327.605 C 140.78 327.605 143.284 330.109 143.284 333.195 C 143.284 336.281 140.78 338.785 137.694 338.785 C 134.608 338.785 132.104 336.281 132.104 333.195 C 132.104 330.109 134.608 327.605 137.694 327.605 Z" />
    <path
       id="black-mark-273"
       d="M 50.805 262.022 C 54.12 262.022 56.811 264.713 56.811 268.028 C 56.811 271.343 54.12 274.034 50.805 274.034 C 47.49 274.034 44.799 271.343 44.799 268.028 C 44.799 264.713 47.49 262.022 50.805 262.022 Z" />
    <path
       id="black-mark-274"
       d="M 61.666 273.239 C 64.785 273.239 67.316 275.77 67.316 278.889 C 67.316 282.008 64.785 284.54 61.666 284.54 C 58.547 284.54 56.016 282.008 56.016 278.889 C 56.016 275.77 58.547 273.239 61.666 273.239 Z" />
    <path
       id="black-mark-275"
       d="M 72.527 284.1 C 75.646 284.1 78.177 286.632 78.177 289.75 C 78.177 292.869 75.646 295.401 72.527 295.401 C 69.408 295.401 66.877 292.869 66.877 289.75 C 66.877 286.632 69.408 284.1 72.527 284.1 Z" />
    <path
       id="black-mark-276"
       d="M 83.388 295.142 C 86.408 295.142 88.858 297.592 88.858 300.612 C 88.858 303.631 86.408 306.082 83.388 306.082 C 80.369 306.082 77.918 303.631 77.918 300.612 C 77.918 297.592 80.369 295.142 83.388 295.142 Z" />
    <path
       id="black-mark-277"
       d="M 94.25 305.948 C 97.299 305.948 99.775 308.423 99.775 311.473 C 99.775 314.523 97.299 316.998 94.25 316.998 C 91.2 316.998 88.724 314.523 88.724 311.473 C 88.724 308.423 91.2 305.948 94.25 305.948 Z" />
    <path
       id="black-mark-278"
       d="M 105.111 316.809 C 108.161 316.809 110.636 319.284 110.636 322.334 C 110.636 325.384 108.161 327.859 105.111 327.859 C 102.061 327.859 99.586 325.384 99.586 322.334 C 99.586 319.284 102.061 316.809 105.111 316.809 Z" />
    <path
       id="black-mark-279"
       d="M 115.972 327.35 C 119.199 327.35 121.817 329.968 121.817 333.195 C 121.817 336.422 119.199 339.041 115.972 339.041 C 112.745 339.041 110.126 336.422 110.126 333.195 C 110.126 329.968 112.745 327.35 115.972 327.35 Z" />
    <path
       id="black-mark-280"
       d="M 61.666 294.636 C 64.965 294.636 67.642 297.313 67.642 300.612 C 67.642 303.91 64.965 306.587 61.666 306.587 C 58.367 306.587 55.69 303.91 55.69 300.612 C 55.69 297.313 58.367 294.636 61.666 294.636 Z" />
    <path
       id="black-mark-281"
       d="M 83.388 316.413 C 86.657 316.413 89.309 319.066 89.309 322.334 C 89.309 325.602 86.657 328.255 83.388 328.255 C 80.12 328.255 77.468 325.602 77.468 322.334 C 77.468 319.066 80.12 316.413 83.388 316.413 Z" />
  </g>
</svg>
