<?xml version="1.0" encoding="UTF-8" standalone="no"?>
<!-- Created with Inkscape (http://www.inkscape.org/) -->

<svg
   width="4in"
   height="4in"
   viewBox="0 0 101.59999 101.60001"
   version="1.1"
   id="svg1"
   xml:space="preserve"
   xmlns:xlink="http://www.w3.org/1999/xlink"
   xmlns="http://www.w3.org/2000/svg"
   xmlns:svg="http://www.w3.org/2000/svg"><defs
     id="defs1"><linearGradient
       id="linearGradient14"><stop
         style="stop-color:#00d3f3;stop-opacity:1;"
         offset="0"
         id="stop14" /><stop
         style="stop-color:#ffffff;stop-opacity:1;"
         offset="0.98769963"
         id="stop15" /></linearGradient><linearGradient
       id="linearGradient12"><stop
         style="stop-color:#ffff00;stop-opacity:1;"
         offset="0"
         id="stop12" /><stop
         style="stop-color:#ff00ff;stop-opacity:1;"
         offset="1"
         id="stop13" /></linearGradient><linearGradient
       xlink:href="#linearGradient12"
       id="linearGradient13"
       x1="1.6408591"
       y1="47.027573"
       x2="99.959145"
       y2="47.027573"
       gradientUnits="userSpaceOnUse" /><radialGradient
       xlink:href="#linearGradient14"
       id="radialGradient15"
       cx="50.799999"
       cy="50.799999"
       fx="50.799999"
       fy="50.799999"
       r="50.799999"
       gradientUnits="userSpaceOnUse"
       gradientTransform="matrix(0.89068062,0.46543304,-0.18290141,0.35001113,14.844816,9.375436)" /></defs><g
     id="layer1"><rect
       style="fill:url(#radialGradient15);stroke:none;stroke-width:6.35;stroke-linecap:round;stroke-linejoin:round;paint-order:stroke markers fill"
       id="rect12"
       width="101.6"
       height="101.6"
       x="0"
       y="0"
       ry="0" /><path
       id="path1"
       style="fill:url(#linearGradient13);fill-opacity:1;stroke:#000000;stroke-width:2.032;stroke-linecap:round;stroke-linejoin:round;stroke-dasharray:none;stroke-opacity:1;paint-order:stroke markers fill"
       d="m 52.221957,36.290226 c -2.070406,0.01105 -2.93662,1.422227 -2.891441,2.820519 0.04518,1.398293 0.917542,2.820892 2.891441,2.820892 1.973899,0 2.891812,-1.567841 2.891812,-2.820892 0,-1.25305 -0.821405,-2.831566 -2.891812,-2.820519 z m -50.5810979,0.06944 v 6.235518 h 1.0430274 c 0.022926,-0.143536 0.051464,-0.283484 0.085405,-0.419959 0.5091035,-2.047126 2.2547341,-3.28578 5.1765238,-3.28578 v 16.125902 c 0,1.983007 -1.7778634,1.659042 -1.7778634,1.659042 v 1.090557 H 16.620881 v -1.090557 c 0,0 -1.754099,0.192939 -1.754099,-1.659042 V 38.889441 c 4.32454,0 4.265032,2.130503 5.16724,3.705738 h 0.9955 v -6.235517 z m 71.7238559,2.25352 c -1.291445,2.667882 -3.244553,4.473459 -6.115211,5.309454 l 0.454492,1.146253 1.536507,-0.103602 c 0,0 -0.142213,6.525736 -0.142213,9.765623 0,1.130446 1.377502,2.807963 3.187752,3.013233 0.120682,0.01369 0.243352,0.02079 0.367602,0.02079 3.450501,0 4.124213,-2.702441 4.124213,-2.702441 l -0.379115,-0.711071 c 0,0 -2.180742,2.069205 -2.180742,-0.473799 v -8.770124 h 2.559857 V 43.116506 H 74.218 V 38.613179 Z M 43.35752,42.216069 c -3.465629,0 -4.740598,2.559855 -4.740598,2.559855 v -2.512698 l -6.826281,1.422142 v 0.758599 c 0.777893,0.225742 1.564356,0.351442 1.564356,1.801257 v 8.770122 c 0,2.066315 -1.564356,1.659042 -1.564356,1.659042 v 1.090557 h 8.058681 v -1.090557 c 0,0 -1.2324,0.337174 -1.2324,-1.659042 v -7.963995 c 0.0084,-1.365718 0.910065,-1.730335 1.635279,-1.730335 0.725212,0 1.635648,0.584429 1.635648,1.730335 v 7.963995 c 0,1.958596 -1.398378,1.659042 -1.398378,1.659042 v 1.090557 h 7.798018 v -1.090557 c 0,0 -1.043029,0.376019 -1.043029,-1.659042 v -9.101709 c 0,-0.437271 -0.421312,-3.697568 -3.88694,-3.697568 z m 11.566506,0.09469 -6.826281,1.369044 v 0.953912 c 0,0 0.02443,-0.0038 0.06721,-0.0074 0.299428,-0.02541 1.497149,-0.04112 1.497149,1.33451 0,2.859946 0.04753,5.80733 0.04753,8.770124 0,1.963805 -1.327456,1.94347 -1.327456,1.94347 l 0.09506,1.090557 h 7.679567 v -1.090557 c 0,0 -0.0432,0.0052 -0.113624,0 -0.02348,-0.0018 -0.05019,-0.0046 -0.07908,-0.0093 -0.346716,-0.05571 -1.040058,-0.363315 -1.040058,-1.934187 z m 7.063554,0.2369 c -2.201055,0 -5.736097,1.23585 -5.736097,3.436905 0,1.178884 0.756223,2.38905 2.325555,2.38905 1.016241,0 2.225298,-0.94302 2.225298,-1.891115 0,-1.054069 -0.59262,-1.027166 -0.59262,-1.552474 0,-0.468715 0.700281,-0.687677 1.16185,-0.687677 0.581593,0 1.325971,0.505731 1.325971,1.623766 v 2.346349 c -2.821775,0.650888 -7.228417,1.662761 -7.228417,5.736096 0,1.813209 1.404447,3.580975 3.486289,3.794854 0.13879,0.01426 0.280562,0.02153 0.425157,0.02153 3.271908,0 3.744646,-1.990655 3.744727,-1.990999 0,0 -1.09e-4,0.03128 0.0049,0.08577 0.03453,0.381236 0.323781,1.905226 2.744771,1.905226 2.444835,0 3.460299,-1.990999 3.460299,-1.990999 l -0.331587,-0.616386 c 0,0 -1.232769,0.932537 -1.232769,-1.303692 0,-2.514272 -0.04715,-4.48421 -0.04715,-7.086944 0,-2.373583 -1.043653,-4.219269 -5.736096,-4.219269 z m 32.851847,0.142214 -6.162733,1.137714 v 0.853285 c 0,0 1.516826,1.03659 1.516826,1.801627 v 8.532852 c 0,1.67998 -1.516826,1.564356 -1.516826,1.564356 v 1.185243 h 7.548864 v -1.185243 c 0,0 -1.386131,0.148532 -1.386131,-1.564356 v -7.300453 c 0,0 0.526936,-1.258032 1.090186,-1.374613 0.692867,-0.143409 0.403784,1.042656 1.848785,1.042656 1.232563,0 2.180743,-1.174177 2.180743,-2.65454 0,-1.274145 -1.052425,-1.991 -1.990998,-1.991 -2.514011,0 -3.128716,2.512328 -3.128716,2.512328 z m -70.184003,0.04753 c -4.005964,0 -7.173336,2.207843 -7.321989,7.584881 -0.148653,5.377038 3.707636,7.442667 7.321989,7.442667 3.614355,0 7.372117,-2.579925 7.372117,-7.442667 0,-4.862743 -3.366151,-7.584881 -7.372117,-7.584881 z m 57.858528,0 c -3.786638,0 -6.780452,2.207843 -6.920966,7.584881 -0.140515,5.377038 3.504498,7.442667 6.920966,7.442667 3.41647,0 6.9685,-2.579925 6.9685,-7.442667 0,-4.862743 -3.181859,-7.584881 -6.9685,-7.584881 z m -57.858528,1.896314 c 1.857041,0 1.889674,3.697101 1.914137,5.688567 0.02448,1.991466 -0.297771,5.593882 -1.914137,5.593882 -1.616367,0 -1.882059,-3.575037 -1.895941,-5.593882 -0.01388,-2.018846 0.0389,-5.688567 1.895941,-5.688567 z m 57.858528,0 c 1.755368,0 1.786301,3.697101 1.809424,5.688567 0.02314,1.991466 -0.281553,5.593882 -1.809424,5.593882 -1.527871,0 -1.778851,-3.575037 -1.791973,-5.593882 -0.01313,-2.018846 0.0366,-5.688567 1.791973,-5.688567 z m -19.816415,5.024648 v 4.195504 c 0,0.69281 -0.420029,1.185242 -1.112836,1.185242 -0.721458,0 -1.042657,-1.271639 -1.042657,-1.967605 0,-2.494625 2.155493,-3.413141 2.155493,-3.413141 z" /></g></svg>
